<svg preserveAspectRatio="none" width="100%" height="100%" overflow="visible" style="display: block;" viewBox="0 0 28.7 30.1002" fill="none" xmlns="http://www.w3.org/2000/svg">
<g id="elements">
<path id="Vector" d="M12.9507 16.4503H19.9507M8.75068 16.4503H8.76326M15.7507 22.0503H8.75068M19.9507 22.0503H19.9381" stroke="var(--stroke-0, white)" stroke-width="2.1" stroke-linecap="round" stroke-linejoin="round"/>
<path id="Vector_2" d="M22.7503 1.05V3.85M5.95034 1.05V3.85" stroke="var(--stroke-0, white)" stroke-width="2.1" stroke-linecap="round" stroke-linejoin="round"/>
<path id="Vector_3" d="M1.05 15.3907C1.05 9.29048 1.05 6.24037 2.80297 4.34527C4.55593 2.45017 7.37729 2.45017 13.02 2.45017H15.68C21.3227 2.45017 24.1441 2.45017 25.897 4.34527C27.65 6.24037 27.65 9.29048 27.65 15.3907V16.1096C27.65 22.2099 27.65 25.26 25.897 27.1551C24.1441 29.0502 21.3227 29.0502 15.68 29.0502H13.02C7.37729 29.0502 4.55593 29.0502 2.80297 27.1551C1.05 25.26 1.05 22.2099 1.05 16.1096V15.3907Z" stroke="var(--stroke-0, white)" stroke-width="2.1" stroke-linecap="round" stroke-linejoin="round"/>
<path id="Vector 4049" d="M1.75034 9.45H26.9503" stroke="var(--stroke-0, white)" stroke-width="2.1" stroke-linecap="round" stroke-linejoin="round"/>
</g>
</svg>
