<svg width="323" height="218" viewBox="0 0 323 218" fill="none" xmlns="http://www.w3.org/2000/svg">
<path d="M187.526 62.4805C155.965 36.9082 147.402 56.5529 132.671 74.074C107.699 118.729 86.6019 147.64 66.6914 163.647V192.911H319.723V3.99805C260.13 7.78604 266.884 89.0638 207.076 73.6833C199.748 71.7987 193.405 67.244 187.526 62.4805Z" fill="white" fill-opacity="0.12"/>
<g opacity="0.2">
<mask id="mask0_789_15287" style="mask-type:alpha" maskUnits="userSpaceOnUse" x="66" y="3" width="254" height="190">
<path d="M187.525 62.3902C155.965 36.8575 147.402 56.4719 132.671 73.9659C107.699 118.552 86.6019 147.418 66.6914 163.401V192.62H319.723V3.99805C260.128 7.78032 266.884 88.9376 207.071 73.5744C199.747 71.6932 193.404 67.1462 187.525 62.3902Z" fill="white"/>
</mask>
<g mask="url(#mask0_789_15287)">
<line y1="-0.160815" x2="558.904" y2="-0.160815" transform="matrix(-0.959991 -0.28003 0.959991 -0.28003 767.621 97.5386)" stroke="white" stroke-width="0.321629"/>
<line y1="-0.160815" x2="558.904" y2="-0.160815" transform="matrix(-0.959991 -0.28003 0.959991 -0.28003 764.762 98.376)" stroke="white" stroke-width="0.321629"/>
<line y1="-0.160815" x2="558.904" y2="-0.160815" transform="matrix(-0.959991 -0.28003 0.959991 -0.28003 761.883 99.2134)" stroke="white" stroke-width="0.321629"/>
<line y1="-0.160815" x2="558.904" y2="-0.160815" transform="matrix(-0.959991 -0.28003 0.959991 -0.28003 759.016 100.049)" stroke="white" stroke-width="0.321629"/>
<line y1="-0.160815" x2="558.904" y2="-0.160815" transform="matrix(-0.959991 -0.28003 0.959991 -0.28003 756.137 100.886)" stroke="white" stroke-width="0.321629"/>
<line y1="-0.160815" x2="558.904" y2="-0.160815" transform="matrix(-0.959991 -0.28003 0.959991 -0.28003 753.273 101.724)" stroke="white" stroke-width="0.321629"/>
<line y1="-0.160815" x2="558.904" y2="-0.160815" transform="matrix(-0.959991 -0.28003 0.959991 -0.28003 750.414 102.562)" stroke="white" stroke-width="0.321629"/>
<line y1="-0.160815" x2="558.904" y2="-0.160815" transform="matrix(-0.959991 -0.28003 0.959991 -0.28003 747.531 103.396)" stroke="white" stroke-width="0.321629"/>
<line y1="-0.160815" x2="558.904" y2="-0.160815" transform="matrix(-0.959991 -0.28003 0.959991 -0.28003 744.672 104.234)" stroke="white" stroke-width="0.321629"/>
<line y1="-0.160815" x2="558.904" y2="-0.160815" transform="matrix(-0.959991 -0.28003 0.959991 -0.28003 741.801 105.072)" stroke="white" stroke-width="0.321629"/>
<line y1="-0.160815" x2="558.904" y2="-0.160815" transform="matrix(-0.959991 -0.28003 0.959991 -0.28003 738.926 105.909)" stroke="white" stroke-width="0.321629"/>
<line y1="-0.160815" x2="558.904" y2="-0.160815" transform="matrix(-0.959991 -0.28003 0.959991 -0.28003 736.062 106.745)" stroke="white" stroke-width="0.321629"/>
<line y1="-0.160815" x2="558.904" y2="-0.160815" transform="matrix(-0.959991 -0.28003 0.959991 -0.28003 733.184 107.582)" stroke="white" stroke-width="0.321629"/>
<line y1="-0.160815" x2="558.904" y2="-0.160815" transform="matrix(-0.959991 -0.28003 0.959991 -0.28003 730.32 108.419)" stroke="white" stroke-width="0.321629"/>
<line y1="-0.160815" x2="558.904" y2="-0.160815" transform="matrix(-0.959991 -0.28003 0.959991 -0.28003 727.461 109.257)" stroke="white" stroke-width="0.321629"/>
<line y1="-0.160815" x2="558.904" y2="-0.160815" transform="matrix(-0.959991 -0.28003 0.959991 -0.28003 724.582 110.092)" stroke="white" stroke-width="0.321629"/>
<line y1="-0.160815" x2="558.904" y2="-0.160815" transform="matrix(-0.959991 -0.28003 0.959991 -0.28003 721.715 110.93)" stroke="white" stroke-width="0.321629"/>
<line y1="-0.160815" x2="558.904" y2="-0.160815" transform="matrix(-0.959991 -0.28003 0.959991 -0.28003 718.852 111.767)" stroke="white" stroke-width="0.321629"/>
<line y1="-0.160815" x2="558.904" y2="-0.160815" transform="matrix(-0.959991 -0.28003 0.959991 -0.28003 715.973 112.605)" stroke="white" stroke-width="0.321629"/>
<line y1="-0.160815" x2="558.904" y2="-0.160815" transform="matrix(-0.959991 -0.28003 0.959991 -0.28003 713.109 113.44)" stroke="white" stroke-width="0.321629"/>
<line y1="-0.160815" x2="558.904" y2="-0.160815" transform="matrix(-0.959991 -0.28003 0.959991 -0.28003 710.23 114.278)" stroke="white" stroke-width="0.321629"/>
<line y1="-0.160815" x2="558.904" y2="-0.160815" transform="matrix(-0.959991 -0.28003 0.959991 -0.28003 707.363 115.115)" stroke="white" stroke-width="0.321629"/>
<line y1="-0.160815" x2="558.904" y2="-0.160815" transform="matrix(-0.959991 -0.28003 0.959991 -0.28003 704.5 115.953)" stroke="white" stroke-width="0.321629"/>
<line y1="-0.160815" x2="558.904" y2="-0.160815" transform="matrix(-0.959991 -0.28003 0.959991 -0.28003 701.625 116.788)" stroke="white" stroke-width="0.321629"/>
<line y1="-0.160815" x2="558.904" y2="-0.160815" transform="matrix(-0.959991 -0.28003 0.959991 -0.28003 698.762 117.625)" stroke="white" stroke-width="0.321629"/>
<line y1="-0.160815" x2="558.904" y2="-0.160815" transform="matrix(-0.959991 -0.28003 0.959991 -0.28003 695.902 118.463)" stroke="white" stroke-width="0.321629"/>
<line y1="-0.160815" x2="558.904" y2="-0.160815" transform="matrix(-0.959991 -0.28003 0.959991 -0.28003 693.023 119.3)" stroke="white" stroke-width="0.321629"/>
<line y1="-0.160815" x2="558.904" y2="-0.160815" transform="matrix(-0.959991 -0.28003 0.959991 -0.28003 690.152 120.136)" stroke="white" stroke-width="0.321629"/>
<line y1="-0.160815" x2="558.904" y2="-0.160815" transform="matrix(-0.959991 -0.28003 0.959991 -0.28003 687.289 120.973)" stroke="white" stroke-width="0.321629"/>
<line y1="-0.160815" x2="558.904" y2="-0.160815" transform="matrix(-0.959991 -0.28003 0.959991 -0.28003 684.41 121.811)" stroke="white" stroke-width="0.321629"/>
<line y1="-0.160815" x2="558.904" y2="-0.160815" transform="matrix(-0.959991 -0.28003 0.959991 -0.28003 681.551 122.648)" stroke="white" stroke-width="0.321629"/>
<line y1="-0.160815" x2="558.904" y2="-0.160815" transform="matrix(-0.959991 -0.28003 0.959991 -0.28003 678.672 123.484)" stroke="white" stroke-width="0.321629"/>
<line y1="-0.160815" x2="558.904" y2="-0.160815" transform="matrix(-0.959991 -0.28003 0.959991 -0.28003 675.812 124.321)" stroke="white" stroke-width="0.321629"/>
<line y1="-0.160815" x2="558.904" y2="-0.160815" transform="matrix(-0.959991 -0.28003 0.959991 -0.28003 672.941 125.159)" stroke="white" stroke-width="0.321629"/>
<line y1="-0.160815" x2="558.904" y2="-0.160815" transform="matrix(-0.959991 -0.28003 0.959991 -0.28003 670.066 125.996)" stroke="white" stroke-width="0.321629"/>
<line y1="-0.160815" x2="558.904" y2="-0.160815" transform="matrix(-0.959991 -0.28003 0.959991 -0.28003 667.199 126.832)" stroke="white" stroke-width="0.321629"/>
<line y1="-0.160815" x2="558.904" y2="-0.160815" transform="matrix(-0.959991 -0.28003 0.959991 -0.28003 664.34 127.669)" stroke="white" stroke-width="0.321629"/>
<line y1="-0.160815" x2="558.904" y2="-0.160815" transform="matrix(-0.959991 -0.28003 0.959991 -0.28003 661.461 128.506)" stroke="white" stroke-width="0.321629"/>
<line y1="-0.160815" x2="558.904" y2="-0.160815" transform="matrix(-0.959991 -0.28003 0.959991 -0.28003 658.594 129.344)" stroke="white" stroke-width="0.321629"/>
<line y1="-0.160815" x2="558.904" y2="-0.160815" transform="matrix(-0.959991 -0.28003 0.959991 -0.28003 655.715 130.18)" stroke="white" stroke-width="0.321629"/>
<line y1="-0.160815" x2="558.904" y2="-0.160815" transform="matrix(-0.959991 -0.28003 0.959991 -0.28003 652.852 131.017)" stroke="white" stroke-width="0.321629"/>
<line y1="-0.160815" x2="558.904" y2="-0.160815" transform="matrix(-0.959991 -0.28003 0.959991 -0.28003 649.992 131.854)" stroke="white" stroke-width="0.321629"/>
<line y1="-0.160815" x2="558.904" y2="-0.160815" transform="matrix(-0.959991 -0.28003 0.959991 -0.28003 647.113 132.69)" stroke="white" stroke-width="0.321629"/>
<line y1="-0.160815" x2="558.904" y2="-0.160815" transform="matrix(-0.959991 -0.28003 0.959991 -0.28003 644.25 133.527)" stroke="white" stroke-width="0.321629"/>
<line y1="-0.160815" x2="558.904" y2="-0.160815" transform="matrix(-0.959991 -0.28003 0.959991 -0.28003 641.379 134.365)" stroke="white" stroke-width="0.321629"/>
<line y1="-0.160815" x2="558.904" y2="-0.160815" transform="matrix(-0.959991 -0.28003 0.959991 -0.28003 638.504 135.202)" stroke="white" stroke-width="0.321629"/>
<line y1="-0.160815" x2="558.904" y2="-0.160815" transform="matrix(-0.959991 -0.28003 0.959991 -0.28003 635.641 136.038)" stroke="white" stroke-width="0.321629"/>
<line y1="-0.160815" x2="558.904" y2="-0.160815" transform="matrix(-0.959991 -0.28003 0.959991 -0.28003 632.762 136.875)" stroke="white" stroke-width="0.321629"/>
<line y1="-0.160815" x2="558.904" y2="-0.160815" transform="matrix(-0.959991 -0.28003 0.959991 -0.28003 629.898 137.713)" stroke="white" stroke-width="0.321629"/>
<line y1="-0.160815" x2="558.904" y2="-0.160815" transform="matrix(-0.959991 -0.28003 0.959991 -0.28003 627.039 138.55)" stroke="white" stroke-width="0.321629"/>
<line y1="-0.160815" x2="558.904" y2="-0.160815" transform="matrix(-0.959991 -0.28003 0.959991 -0.28003 624.156 139.385)" stroke="white" stroke-width="0.321629"/>
<line y1="-0.160815" x2="558.904" y2="-0.160815" transform="matrix(-0.959991 -0.28003 0.959991 -0.28003 621.293 140.223)" stroke="white" stroke-width="0.321629"/>
<line y1="-0.160815" x2="558.904" y2="-0.160815" transform="matrix(-0.959991 -0.28003 0.959991 -0.28003 618.43 141.061)" stroke="white" stroke-width="0.321629"/>
<line y1="-0.160815" x2="558.904" y2="-0.160815" transform="matrix(-0.959991 -0.28003 0.959991 -0.28003 615.551 141.898)" stroke="white" stroke-width="0.321629"/>
<line y1="-0.160815" x2="558.904" y2="-0.160815" transform="matrix(-0.959991 -0.28003 0.959991 -0.28003 612.688 142.733)" stroke="white" stroke-width="0.321629"/>
<line y1="-0.160815" x2="558.904" y2="-0.160815" transform="matrix(-0.959991 -0.28003 0.959991 -0.28003 609.812 143.571)" stroke="white" stroke-width="0.321629"/>
<line y1="-0.160815" x2="558.904" y2="-0.160815" transform="matrix(-0.959991 -0.28003 0.959991 -0.28003 606.949 144.408)" stroke="white" stroke-width="0.321629"/>
<line y1="-0.160815" x2="558.904" y2="-0.160815" transform="matrix(-0.959991 -0.28003 0.959991 -0.28003 604.078 145.246)" stroke="white" stroke-width="0.321629"/>
<line y1="-0.160815" x2="558.904" y2="-0.160815" transform="matrix(-0.959991 -0.28003 0.959991 -0.28003 601.203 146.081)" stroke="white" stroke-width="0.321629"/>
<line y1="-0.160815" x2="558.904" y2="-0.160815" transform="matrix(-0.959991 -0.28003 0.959991 -0.28003 598.34 146.918)" stroke="white" stroke-width="0.321629"/>
<line y1="-0.160815" x2="558.904" y2="-0.160815" transform="matrix(-0.959991 -0.28003 0.959991 -0.28003 595.477 147.756)" stroke="white" stroke-width="0.321629"/>
<line y1="-0.160815" x2="558.904" y2="-0.160815" transform="matrix(-0.959991 -0.28003 0.959991 -0.28003 592.598 148.594)" stroke="white" stroke-width="0.321629"/>
<line y1="-0.160815" x2="558.904" y2="-0.160815" transform="matrix(-0.959991 -0.28003 0.959991 -0.28003 589.734 149.429)" stroke="white" stroke-width="0.321629"/>
<line y1="-0.160815" x2="558.904" y2="-0.160815" transform="matrix(-0.959991 -0.28003 0.959991 -0.28003 586.852 150.267)" stroke="white" stroke-width="0.321629"/>
<line y1="-0.160815" x2="558.904" y2="-0.160815" transform="matrix(-0.959991 -0.28003 0.959991 -0.28003 583.988 151.104)" stroke="white" stroke-width="0.321629"/>
<line y1="-0.160815" x2="558.904" y2="-0.160815" transform="matrix(-0.959991 -0.28003 0.959991 -0.28003 581.125 151.941)" stroke="white" stroke-width="0.321629"/>
<line y1="-0.160815" x2="558.904" y2="-0.160815" transform="matrix(-0.959991 -0.28003 0.959991 -0.28003 578.25 152.777)" stroke="white" stroke-width="0.321629"/>
<line y1="-0.160815" x2="558.904" y2="-0.160815" transform="matrix(-0.959991 -0.28003 0.959991 -0.28003 575.391 153.614)" stroke="white" stroke-width="0.321629"/>
<line y1="-0.160815" x2="558.904" y2="-0.160815" transform="matrix(-0.959991 -0.28003 0.959991 -0.28003 572.52 154.452)" stroke="white" stroke-width="0.321629"/>
<line y1="-0.160815" x2="558.904" y2="-0.160815" transform="matrix(-0.959991 -0.28003 0.959991 -0.28003 569.641 155.289)" stroke="white" stroke-width="0.321629"/>
<line y1="-0.160815" x2="558.904" y2="-0.160815" transform="matrix(-0.959991 -0.28003 0.959991 -0.28003 566.777 156.125)" stroke="white" stroke-width="0.321629"/>
<line y1="-0.160815" x2="558.904" y2="-0.160815" transform="matrix(-0.959991 -0.28003 0.959991 -0.28003 563.902 156.962)" stroke="white" stroke-width="0.321629"/>
<line y1="-0.160815" x2="558.904" y2="-0.160815" transform="matrix(-0.959991 -0.28003 0.959991 -0.28003 561.039 157.8)" stroke="white" stroke-width="0.321629"/>
<line y1="-0.160815" x2="558.904" y2="-0.160815" transform="matrix(-0.959991 -0.28003 0.959991 -0.28003 558.176 158.637)" stroke="white" stroke-width="0.321629"/>
<line y1="-0.160815" x2="558.904" y2="-0.160815" transform="matrix(-0.959991 -0.28003 0.959991 -0.28003 555.297 159.473)" stroke="white" stroke-width="0.321629"/>
<line y1="-0.160815" x2="558.904" y2="-0.160815" transform="matrix(-0.959991 -0.28003 0.959991 -0.28003 552.426 160.31)" stroke="white" stroke-width="0.321629"/>
<line y1="-0.160815" x2="558.904" y2="-0.160815" transform="matrix(-0.959991 -0.28003 0.959991 -0.28003 549.57 161.147)" stroke="white" stroke-width="0.321629"/>
<line y1="-0.160815" x2="558.904" y2="-0.160815" transform="matrix(-0.959991 -0.28003 0.959991 -0.28003 546.691 161.985)" stroke="white" stroke-width="0.321629"/>
<line y1="-0.160815" x2="558.904" y2="-0.160815" transform="matrix(-0.959991 -0.28003 0.959991 -0.28003 543.828 162.82)" stroke="white" stroke-width="0.321629"/>
<line y1="-0.160815" x2="558.904" y2="-0.160815" transform="matrix(-0.959991 -0.28003 0.959991 -0.28003 540.949 163.658)" stroke="white" stroke-width="0.321629"/>
<line y1="-0.160815" x2="558.904" y2="-0.160815" transform="matrix(-0.959991 -0.28003 0.959991 -0.28003 538.082 164.495)" stroke="white" stroke-width="0.321629"/>
<line y1="-0.160815" x2="558.904" y2="-0.160815" transform="matrix(-0.959991 -0.28003 0.959991 -0.28003 535.219 165.333)" stroke="white" stroke-width="0.321629"/>
<line y1="-0.160815" x2="558.904" y2="-0.160815" transform="matrix(-0.959991 -0.28003 0.959991 -0.28003 532.34 166.168)" stroke="white" stroke-width="0.321629"/>
<line y1="-0.160815" x2="558.904" y2="-0.160815" transform="matrix(-0.959991 -0.28003 0.959991 -0.28003 529.477 167.005)" stroke="white" stroke-width="0.321629"/>
<line y1="-0.160815" x2="558.904" y2="-0.160815" transform="matrix(-0.959991 -0.28003 0.959991 -0.28003 526.613 167.843)" stroke="white" stroke-width="0.321629"/>
<line y1="-0.160815" x2="558.904" y2="-0.160815" transform="matrix(-0.959991 -0.28003 0.959991 -0.28003 523.738 168.681)" stroke="white" stroke-width="0.321629"/>
<line y1="-0.160815" x2="558.904" y2="-0.160815" transform="matrix(-0.959991 -0.28003 0.959991 -0.28003 520.867 169.516)" stroke="white" stroke-width="0.321629"/>
<line y1="-0.160815" x2="558.904" y2="-0.160815" transform="matrix(-0.959991 -0.28003 0.959991 -0.28003 518.008 170.354)" stroke="white" stroke-width="0.321629"/>
<line y1="-0.160815" x2="558.904" y2="-0.160815" transform="matrix(-0.959991 -0.28003 0.959991 -0.28003 515.129 171.191)" stroke="white" stroke-width="0.321629"/>
<line y1="-0.160815" x2="558.904" y2="-0.160815" transform="matrix(-0.959991 -0.28003 0.959991 -0.28003 512.266 172.028)" stroke="white" stroke-width="0.321629"/>
<line y1="-0.160815" x2="558.904" y2="-0.160815" transform="matrix(-0.959991 -0.28003 0.959991 -0.28003 509.387 172.864)" stroke="white" stroke-width="0.321629"/>
<line y1="-0.160815" x2="558.904" y2="-0.160815" transform="matrix(-0.959991 -0.28003 0.959991 -0.28003 506.527 173.701)" stroke="white" stroke-width="0.321629"/>
<line y1="-0.160815" x2="558.904" y2="-0.160815" transform="matrix(-0.959991 -0.28003 0.959991 -0.28003 503.66 174.539)" stroke="white" stroke-width="0.321629"/>
<line y1="-0.160815" x2="558.904" y2="-0.160815" transform="matrix(-0.959991 -0.28003 0.959991 -0.28003 500.781 175.376)" stroke="white" stroke-width="0.321629"/>
<line y1="-0.160815" x2="558.904" y2="-0.160815" transform="matrix(-0.959991 -0.28003 0.959991 -0.28003 497.918 176.211)" stroke="white" stroke-width="0.321629"/>
<line y1="-0.160815" x2="558.904" y2="-0.160815" transform="matrix(-0.959991 -0.28003 0.959991 -0.28003 495.055 177.049)" stroke="white" stroke-width="0.321629"/>
<line y1="-0.160815" x2="558.904" y2="-0.160815" transform="matrix(-0.959991 -0.28003 0.959991 -0.28003 492.176 177.887)" stroke="white" stroke-width="0.321629"/>
<line y1="-0.160815" x2="558.904" y2="-0.160815" transform="matrix(-0.959991 -0.28003 0.959991 -0.28003 489.316 178.724)" stroke="white" stroke-width="0.321629"/>
<line y1="-0.160815" x2="558.904" y2="-0.160815" transform="matrix(-0.959991 -0.28003 0.959991 -0.28003 486.438 179.559)" stroke="white" stroke-width="0.321629"/>
<line y1="-0.160815" x2="558.904" y2="-0.160815" transform="matrix(-0.959991 -0.28003 0.959991 -0.28003 483.566 180.397)" stroke="white" stroke-width="0.321629"/>
<line y1="-0.160815" x2="558.904" y2="-0.160815" transform="matrix(-0.959991 -0.28003 0.959991 -0.28003 480.707 181.234)" stroke="white" stroke-width="0.321629"/>
<line y1="-0.160815" x2="558.904" y2="-0.160815" transform="matrix(-0.959991 -0.28003 0.959991 -0.28003 477.828 182.07)" stroke="white" stroke-width="0.321629"/>
<line y1="-0.160815" x2="558.904" y2="-0.160815" transform="matrix(-0.959991 -0.28003 0.959991 -0.28003 474.969 182.907)" stroke="white" stroke-width="0.321629"/>
<line y1="-0.160815" x2="558.904" y2="-0.160815" transform="matrix(-0.959991 -0.28003 0.959991 -0.28003 472.098 183.745)" stroke="white" stroke-width="0.321629"/>
<line y1="-0.160815" x2="558.904" y2="-0.160815" transform="matrix(-0.959991 -0.28003 0.959991 -0.28003 469.223 184.582)" stroke="white" stroke-width="0.321629"/>
<line y1="-0.160815" x2="558.904" y2="-0.160815" transform="matrix(-0.959991 -0.28003 0.959991 -0.28003 466.355 185.418)" stroke="white" stroke-width="0.321629"/>
<line y1="-0.160815" x2="558.904" y2="-0.160815" transform="matrix(-0.959991 -0.28003 0.959991 -0.28003 463.477 186.255)" stroke="white" stroke-width="0.321629"/>
<line y1="-0.160815" x2="558.904" y2="-0.160815" transform="matrix(-0.959991 -0.28003 0.959991 -0.28003 460.617 187.093)" stroke="white" stroke-width="0.321629"/>
<line y1="-0.160815" x2="558.904" y2="-0.160815" transform="matrix(-0.959991 -0.28003 0.959991 -0.28003 457.754 187.93)" stroke="white" stroke-width="0.321629"/>
<line y1="-0.160815" x2="558.904" y2="-0.160815" transform="matrix(-0.959991 -0.28003 0.959991 -0.28003 454.879 188.766)" stroke="white" stroke-width="0.321629"/>
<line y1="-0.160815" x2="558.904" y2="-0.160815" transform="matrix(-0.959991 -0.28003 0.959991 -0.28003 452.008 189.603)" stroke="white" stroke-width="0.321629"/>
<line y1="-0.160815" x2="558.904" y2="-0.160815" transform="matrix(-0.959991 -0.28003 0.959991 -0.28003 449.145 190.441)" stroke="white" stroke-width="0.321629"/>
<line y1="-0.160815" x2="558.904" y2="-0.160815" transform="matrix(-0.959991 -0.28003 0.959991 -0.28003 446.27 191.278)" stroke="white" stroke-width="0.321629"/>
<line y1="-0.160815" x2="558.904" y2="-0.160815" transform="matrix(-0.959991 -0.28003 0.959991 -0.28003 443.406 192.114)" stroke="white" stroke-width="0.321629"/>
<line y1="-0.160815" x2="558.904" y2="-0.160815" transform="matrix(-0.959991 -0.28003 0.959991 -0.28003 440.523 192.951)" stroke="white" stroke-width="0.321629"/>
<line y1="-0.160815" x2="558.904" y2="-0.160815" transform="matrix(-0.959991 -0.28003 0.959991 -0.28003 437.664 193.789)" stroke="white" stroke-width="0.321629"/>
<line y1="-0.160815" x2="558.904" y2="-0.160815" transform="matrix(-0.959991 -0.28003 0.959991 -0.28003 434.793 194.626)" stroke="white" stroke-width="0.321629"/>
<line y1="-0.160815" x2="558.904" y2="-0.160815" transform="matrix(-0.959991 -0.28003 0.959991 -0.28003 431.918 195.461)" stroke="white" stroke-width="0.321629"/>
<line y1="-0.160815" x2="558.904" y2="-0.160815" transform="matrix(-0.959991 -0.28003 0.959991 -0.28003 429.055 196.299)" stroke="white" stroke-width="0.321629"/>
<line y1="-0.160815" x2="558.904" y2="-0.160815" transform="matrix(-0.959991 -0.28003 0.959991 -0.28003 426.191 197.136)" stroke="white" stroke-width="0.321629"/>
<line y1="-0.160815" x2="558.904" y2="-0.160815" transform="matrix(-0.959991 -0.28003 0.959991 -0.28003 423.316 197.974)" stroke="white" stroke-width="0.321629"/>
<line y1="-0.160815" x2="558.904" y2="-0.160815" transform="matrix(-0.959991 -0.28003 0.959991 -0.28003 420.445 198.811)" stroke="white" stroke-width="0.321629"/>
<line y1="-0.160815" x2="558.904" y2="-0.160815" transform="matrix(-0.959991 -0.28003 0.959991 -0.28003 417.578 199.647)" stroke="white" stroke-width="0.321629"/>
<line y1="-0.160815" x2="558.904" y2="-0.160815" transform="matrix(-0.959991 -0.28003 0.959991 -0.28003 414.707 200.484)" stroke="white" stroke-width="0.321629"/>
<line y1="-0.160815" x2="558.904" y2="-0.160815" transform="matrix(-0.959991 -0.28003 0.959991 -0.28003 411.848 201.322)" stroke="white" stroke-width="0.321629"/>
<line y1="-0.160815" x2="558.904" y2="-0.160815" transform="matrix(-0.959991 -0.28003 0.959991 -0.28003 408.965 202.159)" stroke="white" stroke-width="0.321629"/>
<line y1="-0.160815" x2="558.904" y2="-0.160815" transform="matrix(-0.959991 -0.28003 0.959991 -0.28003 406.102 202.994)" stroke="white" stroke-width="0.321629"/>
<line y1="-0.160815" x2="558.904" y2="-0.160815" transform="matrix(-0.959991 -0.28003 0.959991 -0.28003 403.234 203.832)" stroke="white" stroke-width="0.321629"/>
<line y1="-0.160815" x2="558.904" y2="-0.160815" transform="matrix(-0.959991 -0.28003 0.959991 -0.28003 400.355 204.669)" stroke="white" stroke-width="0.321629"/>
<line y1="-0.160815" x2="558.904" y2="-0.160815" transform="matrix(-0.959991 -0.28003 0.959991 -0.28003 397.492 205.507)" stroke="white" stroke-width="0.321629"/>
<line y1="-0.160815" x2="558.904" y2="-0.160815" transform="matrix(-0.959991 -0.28003 0.959991 -0.28003 394.633 206.342)" stroke="white" stroke-width="0.321629"/>
<line y1="-0.160815" x2="558.904" y2="-0.160815" transform="matrix(-0.959991 -0.28003 0.959991 -0.28003 391.758 207.18)" stroke="white" stroke-width="0.321629"/>
<line y1="-0.160815" x2="558.904" y2="-0.160815" transform="matrix(-0.959991 -0.28003 0.959991 -0.28003 388.895 208.017)" stroke="white" stroke-width="0.321629"/>
<line y1="-0.160815" x2="558.904" y2="-0.160815" transform="matrix(-0.959991 -0.28003 0.959991 -0.28003 386.02 208.853)" stroke="white" stroke-width="0.321629"/>
<line y1="-0.160815" x2="558.904" y2="-0.160815" transform="matrix(-0.959991 -0.28003 0.959991 -0.28003 383.145 209.69)" stroke="white" stroke-width="0.321629"/>
<line y1="-0.160815" x2="558.904" y2="-0.160815" transform="matrix(-0.959991 -0.28003 0.959991 -0.28003 380.285 210.528)" stroke="white" stroke-width="0.321629"/>
<line y1="-0.160815" x2="558.904" y2="-0.160815" transform="matrix(-0.959991 -0.28003 0.959991 -0.28003 377.402 211.365)" stroke="white" stroke-width="0.321629"/>
<line y1="-0.160815" x2="558.904" y2="-0.160815" transform="matrix(-0.959991 -0.28003 0.959991 -0.28003 374.543 212.2)" stroke="white" stroke-width="0.321629"/>
<line y1="-0.160815" x2="558.904" y2="-0.160815" transform="matrix(-0.959991 -0.28003 0.959991 -0.28003 371.676 213.038)" stroke="white" stroke-width="0.321629"/>
<line y1="-0.160815" x2="558.904" y2="-0.160815" transform="matrix(-0.959991 -0.28003 0.959991 -0.28003 368.805 213.875)" stroke="white" stroke-width="0.321629"/>
<line y1="-0.160815" x2="558.904" y2="-0.160815" transform="matrix(-0.959991 -0.28003 0.959991 -0.28003 365.934 214.713)" stroke="white" stroke-width="0.321629"/>
<line y1="-0.160815" x2="558.904" y2="-0.160815" transform="matrix(-0.959991 -0.28003 0.959991 -0.28003 363.059 215.548)" stroke="white" stroke-width="0.321629"/>
<line y1="-0.160815" x2="558.904" y2="-0.160815" transform="matrix(-0.959991 -0.28003 0.959991 -0.28003 360.195 216.386)" stroke="white" stroke-width="0.321629"/>
<line y1="-0.160815" x2="558.904" y2="-0.160815" transform="matrix(-0.959991 -0.28003 0.959991 -0.28003 357.332 217.223)" stroke="white" stroke-width="0.321629"/>
<line y1="-0.160815" x2="558.904" y2="-0.160815" transform="matrix(-0.959991 -0.28003 0.959991 -0.28003 354.457 218.061)" stroke="white" stroke-width="0.321629"/>
<line y1="-0.160815" x2="558.904" y2="-0.160815" transform="matrix(-0.959991 -0.28003 0.959991 -0.28003 351.586 218.896)" stroke="white" stroke-width="0.321629"/>
<line y1="-0.160815" x2="558.904" y2="-0.160815" transform="matrix(-0.959991 -0.28003 0.959991 -0.28003 348.727 219.734)" stroke="white" stroke-width="0.321629"/>
<line y1="-0.160815" x2="558.904" y2="-0.160815" transform="matrix(-0.959991 -0.28003 0.959991 -0.28003 345.844 220.571)" stroke="white" stroke-width="0.321629"/>
<line y1="-0.160815" x2="558.904" y2="-0.160815" transform="matrix(-0.959991 -0.28003 0.959991 -0.28003 342.984 221.406)" stroke="white" stroke-width="0.321629"/>
<line y1="-0.160815" x2="558.904" y2="-0.160815" transform="matrix(-0.959991 -0.28003 0.959991 -0.28003 340.102 222.244)" stroke="white" stroke-width="0.321629"/>
<line y1="-0.160815" x2="558.904" y2="-0.160815" transform="matrix(-0.959991 -0.28003 0.959991 -0.28003 337.242 223.081)" stroke="white" stroke-width="0.321629"/>
<line y1="-0.160815" x2="558.904" y2="-0.160815" transform="matrix(-0.959991 -0.28003 0.959991 -0.28003 334.371 223.919)" stroke="white" stroke-width="0.321629"/>
<line y1="-0.160815" x2="558.904" y2="-0.160815" transform="matrix(-0.959991 -0.28003 0.959991 -0.28003 331.496 224.754)" stroke="white" stroke-width="0.321629"/>
<line y1="-0.160815" x2="558.904" y2="-0.160815" transform="matrix(-0.959991 -0.28003 0.959991 -0.28003 328.633 225.592)" stroke="white" stroke-width="0.321629"/>
<line y1="-0.160815" x2="558.904" y2="-0.160815" transform="matrix(-0.959991 -0.28003 0.959991 -0.28003 325.773 226.429)" stroke="white" stroke-width="0.321629"/>
<line y1="-0.160815" x2="558.904" y2="-0.160815" transform="matrix(-0.959991 -0.28003 0.959991 -0.28003 322.895 227.267)" stroke="white" stroke-width="0.321629"/>
<line y1="-0.160815" x2="558.904" y2="-0.160815" transform="matrix(-0.959991 -0.28003 0.959991 -0.28003 320.031 228.104)" stroke="white" stroke-width="0.321629"/>
<line y1="-0.160815" x2="558.904" y2="-0.160815" transform="matrix(-0.959991 -0.28003 0.959991 -0.28003 317.152 228.939)" stroke="white" stroke-width="0.321629"/>
<line y1="-0.160815" x2="558.904" y2="-0.160815" transform="matrix(-0.959991 -0.28003 0.959991 -0.28003 314.285 229.777)" stroke="white" stroke-width="0.321629"/>
<line y1="-0.160815" x2="558.904" y2="-0.160815" transform="matrix(-0.959991 -0.28003 0.959991 -0.28003 311.422 230.615)" stroke="white" stroke-width="0.321629"/>
<line y1="-0.160815" x2="558.904" y2="-0.160815" transform="matrix(-0.959991 -0.28003 0.959991 -0.28003 308.543 231.452)" stroke="white" stroke-width="0.321629"/>
<line y1="-0.160815" x2="558.904" y2="-0.160815" transform="matrix(-0.959991 -0.28003 0.959991 -0.28003 305.684 232.287)" stroke="white" stroke-width="0.321629"/>
<line y1="-0.160815" x2="558.904" y2="-0.160815" transform="matrix(-0.959991 -0.28003 0.959991 -0.28003 302.812 233.125)" stroke="white" stroke-width="0.321629"/>
<line y1="-0.160815" x2="558.904" y2="-0.160815" transform="matrix(-0.959991 -0.28003 0.959991 -0.28003 299.934 233.962)" stroke="white" stroke-width="0.321629"/>
<line y1="-0.160815" x2="558.904" y2="-0.160815" transform="matrix(-0.959991 -0.28003 0.959991 -0.28003 297.07 234.8)" stroke="white" stroke-width="0.321629"/>
<line y1="-0.160815" x2="558.904" y2="-0.160815" transform="matrix(-0.959991 -0.28003 0.959991 -0.28003 294.195 235.635)" stroke="white" stroke-width="0.321629"/>
<line y1="-0.160815" x2="558.904" y2="-0.160815" transform="matrix(-0.959991 -0.28003 0.959991 -0.28003 291.336 236.473)" stroke="white" stroke-width="0.321629"/>
<line y1="-0.160815" x2="558.904" y2="-0.160815" transform="matrix(-0.959991 -0.28003 0.959991 -0.28003 288.473 237.31)" stroke="white" stroke-width="0.321629"/>
<line y1="-0.160815" x2="558.904" y2="-0.160815" transform="matrix(-0.959991 -0.28003 0.959991 -0.28003 285.59 238.148)" stroke="white" stroke-width="0.321629"/>
<line y1="-0.160815" x2="558.904" y2="-0.160815" transform="matrix(-0.959991 -0.28003 0.959991 -0.28003 282.727 238.983)" stroke="white" stroke-width="0.321629"/>
<line y1="-0.160815" x2="558.904" y2="-0.160815" transform="matrix(-0.959991 -0.28003 0.959991 -0.28003 279.863 239.821)" stroke="white" stroke-width="0.321629"/>
<line y1="-0.160815" x2="558.904" y2="-0.160815" transform="matrix(-0.959991 -0.28003 0.959991 -0.28003 276.984 240.658)" stroke="white" stroke-width="0.321629"/>
<line y1="-0.160815" x2="558.904" y2="-0.160815" transform="matrix(-0.959991 -0.28003 0.959991 -0.28003 274.121 241.496)" stroke="white" stroke-width="0.321629"/>
<line y1="-0.160815" x2="558.904" y2="-0.160815" transform="matrix(-0.959991 -0.28003 0.959991 -0.28003 271.238 242.331)" stroke="white" stroke-width="0.321629"/>
<line y1="-0.160815" x2="558.904" y2="-0.160815" transform="matrix(-0.959991 -0.28003 0.959991 -0.28003 268.378 243.168)" stroke="white" stroke-width="0.321629"/>
<line y1="-0.160815" x2="558.904" y2="-0.160815" transform="matrix(-0.959991 -0.28003 0.959991 -0.28003 265.512 244.006)" stroke="white" stroke-width="0.321629"/>
<line y1="-0.160815" x2="558.904" y2="-0.160815" transform="matrix(-0.959991 -0.28003 0.959991 -0.28003 262.637 244.844)" stroke="white" stroke-width="0.321629"/>
<line y1="-0.160815" x2="558.904" y2="-0.160815" transform="matrix(-0.959991 -0.28003 0.959991 -0.28003 259.773 245.679)" stroke="white" stroke-width="0.321629"/>
<line y1="-0.160815" x2="558.904" y2="-0.160815" transform="matrix(-0.959991 -0.28003 0.959991 -0.28003 256.91 246.516)" stroke="white" stroke-width="0.321629"/>
<line y1="-0.160815" x2="558.904" y2="-0.160815" transform="matrix(-0.959991 -0.28003 0.959991 -0.28003 254.027 247.354)" stroke="white" stroke-width="0.321629"/>
<line y1="-0.160815" x2="558.904" y2="-0.160815" transform="matrix(-0.959991 -0.28003 0.959991 -0.28003 251.164 248.189)" stroke="white" stroke-width="0.321629"/>
<line y1="-0.160815" x2="558.904" y2="-0.160815" transform="matrix(-0.959991 -0.28003 0.959991 -0.28003 248.301 249.027)" stroke="white" stroke-width="0.321629"/>
<line y1="-0.160815" x2="558.904" y2="-0.160815" transform="matrix(-0.959991 -0.28003 0.959991 -0.28003 245.421 249.864)" stroke="white" stroke-width="0.321629"/>
<line y1="-0.160815" x2="558.904" y2="-0.160815" transform="matrix(-0.959991 -0.28003 0.959991 -0.28003 242.559 250.702)" stroke="white" stroke-width="0.321629"/>
<line y1="-0.160815" x2="558.904" y2="-0.160815" transform="matrix(-0.959991 -0.28003 0.959991 -0.28003 239.684 251.537)" stroke="white" stroke-width="0.321629"/>
<line y1="-0.160815" x2="558.904" y2="-0.160815" transform="matrix(-0.959991 -0.28003 0.959991 -0.28003 236.82 252.375)" stroke="white" stroke-width="0.321629"/>
<line y1="-0.160815" x2="558.904" y2="-0.160815" transform="matrix(-0.959991 -0.28003 0.959991 -0.28003 233.953 253.212)" stroke="white" stroke-width="0.321629"/>
<line y1="-0.160815" x2="558.904" y2="-0.160815" transform="matrix(-0.959991 -0.28003 0.959991 -0.28003 231.074 254.049)" stroke="white" stroke-width="0.321629"/>
</g>
</g>
<path d="M6 179.611C23.3301 189.593 75.5 182.416 132.377 75.6307C137.757 64.9197 148.259 51.5173 160.849 50.1221C169.654 49.1465 169.811 49.5757 194.563 67.6141C197.156 69.5042 199.978 71.2334 202.953 72.4359C263.226 96.7948 259.798 3.99805 320 3.99805" stroke="url(#paint0_linear_789_15287)" stroke-width="1.67358"/>
<path d="M6.96191 177.51C8.81117 177.51 10.3299 179.042 10.3301 180.956C10.3301 182.87 8.81126 184.402 6.96191 184.402C5.1124 184.402 3.59277 182.87 3.59277 180.956C3.59291 179.042 5.11249 177.51 6.96191 177.51Z" fill="url(#paint1_linear_789_15287)" stroke="white" stroke-width="1.18435"/>
<path d="M318 0.591797C319.882 0.591797 321.408 2.11728 321.408 3.99805C321.408 5.87887 319.882 7.4043 318 7.4043C316.118 7.4043 314.592 5.87887 314.592 3.99805C314.592 2.11728 316.118 0.591797 318 0.591797Z" fill="url(#paint2_linear_789_15287)" stroke="white" stroke-width="1.18435"/>
<line x1="164.266" y1="192.411" x2="164.266" y2="15.4931" stroke="url(#paint3_linear_789_15287)" stroke-linecap="round" stroke-dasharray="2 2"/>
<path d="M163.962 46.5698C165.811 46.57 167.33 48.1022 167.33 50.0161C167.33 51.9302 165.811 53.4622 163.962 53.4624C162.112 53.4624 160.593 51.9303 160.593 50.0161C160.593 48.1021 162.112 46.5698 163.962 46.5698Z" fill="url(#paint4_linear_789_15287)" stroke="white" stroke-width="1.18435"/>
<ellipse cx="67.5" cy="192.412" rx="2.5" ry="2.49885" fill="white"/>
<ellipse cx="164.5" cy="192.412" rx="2.5" ry="2.49885" fill="white"/>
<ellipse cx="237.5" cy="192.412" rx="2.5" ry="2.49885" fill="white"/>
<ellipse cx="319.5" cy="192.412" rx="2.5" ry="2.49885" fill="white"/>
<ellipse cx="67.5" cy="162.426" rx="2.5" ry="2.49885" fill="white"/>
<defs>
<linearGradient id="paint0_linear_789_15287" x1="304" y1="3.89989" x2="25" y2="182.9" gradientUnits="userSpaceOnUse">
<stop stop-color="white"/>
<stop offset="1" stop-color="white" stop-opacity="0.2"/>
</linearGradient>
<linearGradient id="paint1_linear_789_15287" x1="6.96155" y1="176.918" x2="6.96155" y2="184.995" gradientUnits="userSpaceOnUse">
<stop stop-color="#FF8C3A"/>
<stop offset="1" stop-color="#FFC943"/>
</linearGradient>
<linearGradient id="paint2_linear_789_15287" x1="318" y1="0" x2="318" y2="7.99633" gradientUnits="userSpaceOnUse">
<stop stop-color="#FF8C3A"/>
<stop offset="1" stop-color="#FFC943"/>
</linearGradient>
<linearGradient id="paint3_linear_789_15287" x1="165.266" y1="14.9931" x2="165.266" y2="192.911" gradientUnits="userSpaceOnUse">
<stop offset="0.00480769" stop-color="white" stop-opacity="0.2"/>
<stop offset="0.5" stop-color="white"/>
<stop offset="1" stop-color="white" stop-opacity="0.2"/>
</linearGradient>
<linearGradient id="paint4_linear_789_15287" x1="163.962" y1="45.978" x2="163.962" y2="54.0547" gradientUnits="userSpaceOnUse">
<stop stop-color="#FF8C3A"/>
<stop offset="1" stop-color="#FFC943"/>
</linearGradient>
</defs>
</svg>
