<svg width="323" height="450" viewBox="0 0 323 450" fill="none" xmlns="http://www.w3.org/2000/svg">
<g opacity="0.23" clip-path="url(#clip0_789_28333)">
<path d="M-172.852 26.8394C-80.2657 9.18825 -5.37334 53.1627 61.0853 113.952C114.769 163.062 166.649 227.39 215.164 259.766C264.53 292.707 351.417 274.969 379.364 216.711" stroke="#FF8C3A" stroke-width="2.3066" stroke-miterlimit="10"/>
<path d="M-163.5 60.3511C-71.0773 39.6683 3.51281 81.3565 64.8872 136.021C113.655 179.569 160.512 235.54 212.099 268.029C262.129 299.827 360.721 295.815 387.659 250.469" stroke="#FF8C3A" stroke-width="2.3066" stroke-miterlimit="10"/>
<path d="M-154.156 93.8691C-61.9042 70.169 12.3805 109.56 68.6927 158.092C112.538 196.093 154.474 243.522 209.027 276.298C259.8 306.812 370.006 316.67 395.935 284.237" stroke="#FF8C3A" stroke-width="2.3066" stroke-miterlimit="10"/>
<path d="M-144.809 127.388C-52.7307 100.659 21.2628 137.761 72.4907 180.168C111.409 212.61 148.329 251.668 205.95 284.582C257.375 313.956 379.297 337.537 404.221 318.028" stroke="#FF8C3A" stroke-width="2.3066" stroke-miterlimit="10"/>
<path d="M-135.459 160.902C-43.544 131.142 30.1361 165.96 76.3019 202.236C110.308 229.128 142.113 259.973 202.894 292.845C254.902 321.218 388.596 358.374 412.525 351.786" stroke="#FF8C3A" stroke-width="2.3066" stroke-miterlimit="10"/>
<path d="M-126.11 194.435C-34.3684 161.646 39.0206 194.175 80.102 224.325C109.185 245.669 135.982 268.13 199.82 301.142C252.48 328.376 397.879 379.258 420.81 385.579" stroke="#FF8C3A" stroke-width="2.3066" stroke-miterlimit="10"/>
<path d="M-41.2134 450.96C-41.2134 450.96 -56.5187 367.646 20.7372 320.565C98.0042 273.482 189.838 361.81 284.353 313.293C378.858 264.779 436.113 145.284 405.418 95.1877" stroke="#FF8C3A" stroke-width="2.43346" stroke-miterlimit="10"/>
<path d="M-67.5583 428.221C-67.5583 428.221 -76.7529 343.849 4.8943 301.268C72.2425 266.145 139.559 325.031 220.373 319.223C245.162 317.435 266.043 310.308 284.009 296.378C311.928 274.729 326.647 242.668 339.756 215.354C365.367 161.985 378.889 91.6688 388.757 63.0796" stroke="#FF8C3A" stroke-width="2.46806" stroke-miterlimit="10"/>
<path d="M-93.9017 405.478C-93.9017 405.478 -96.7705 320.348 -10.9472 281.966C63.8917 248.502 129.566 320.693 219.169 310.075C248.052 306.655 268.771 296.244 283.65 279.44C307.901 252.025 310.097 212.668 314.852 184.463C323.717 131.884 331.887 54.739 372.088 30.9339" stroke="#FF8C3A" stroke-width="2.49113" stroke-miterlimit="10"/>
<path d="M-120.261 382.736C-120.261 382.736 -116.674 297.1 -26.8016 262.677C55.6374 231.093 119.551 316.202 217.965 300.949C250.927 295.841 271.369 282.071 283.302 262.52C303.679 229.109 293.977 182.893 289.96 153.59C282.908 102.192 284.901 17.8381 355.423 -1.17968" stroke="#FF8C3A" stroke-width="2.51419" stroke-miterlimit="10"/>
<path d="M-146.59 359.984C-146.59 359.984 -136.482 274.073 -42.639 243.368C47.4622 213.886 109.527 311.604 216.765 291.795C253.793 284.954 273.822 267.815 282.946 245.576C299.157 206.07 278.318 152.89 265.049 122.695C242.845 72.1345 237.904 -19.0983 338.75 -33.3177" stroke="#FF8C3A" stroke-width="2.54879" stroke-miterlimit="10"/>
<path d="M-172.945 337.241C-172.945 337.241 -156.3 251.244 -58.4923 224.067C39.3155 196.89 99.4549 306.938 215.563 282.656C331.659 258.378 275.217 139.348 240.159 91.8094C203.004 41.4311 190.919 -56.0114 322.083 -65.4546" stroke="url(#paint0_linear_789_28333)" stroke-width="2.57186" stroke-miterlimit="10"/>
</g>
<defs>
<linearGradient id="paint0_linear_789_28333" x1="39.1575" y1="8.89688" x2="122.802" y2="308.871" gradientUnits="userSpaceOnUse">
<stop stop-color="#FF8C3A"/>
<stop offset="1" stop-color="#FFC943"/>
</linearGradient>
<clipPath id="clip0_789_28333">
<rect width="626.426" height="507.152" fill="white" transform="translate(-254.664 48.4541) rotate(-15.5806)"/>
</clipPath>
</defs>
</svg>
