<svg width="18" height="18" viewBox="0 0 18 18" fill="none" xmlns="http://www.w3.org/2000/svg">
<g clip-path="url(#clip0_789_16574)">
<path d="M8.99756 0.9375C9.78452 0.9375 10.4044 1.5319 10.8001 2.33394L12.1217 4.99887C12.1617 5.08135 12.2567 5.19749 12.3995 5.30373C12.5422 5.40986 12.6819 5.46841 12.7738 5.48385L15.166 5.88459C16.0301 6.0298 16.7544 6.45337 16.9895 7.19093C17.2245 7.92787 16.8803 8.6937 16.2589 9.31623L16.2583 9.31684L14.3998 11.1906C14.3262 11.2649 14.2437 11.4048 14.1919 11.5871C14.1405 11.7681 14.136 11.933 14.1593 12.0396L14.1596 12.041L14.6913 14.359C14.9118 15.3238 14.8387 16.2805 14.1583 16.7806C13.4755 17.2825 12.5425 17.06 11.6949 16.5552L9.4524 15.2168C9.35824 15.1605 9.19651 15.1149 9.00131 15.1149C8.80754 15.1149 8.64241 15.1599 8.54212 15.2182L8.5407 15.2191L6.30265 16.5549C5.45603 17.0615 4.52414 17.28 3.84132 16.7777C3.16136 16.2774 3.08459 15.3225 3.30582 14.3585L3.83741 12.041L3.83774 12.0396C3.86105 11.933 3.85648 11.7681 3.80509 11.5871C3.75334 11.4048 3.67083 11.2649 3.59717 11.1906L1.73738 9.31548C1.11997 8.69297 0.776893 7.9278 1.00995 7.19194C1.24368 6.45393 1.96656 6.02985 2.83124 5.88455L5.22148 5.48414L5.22224 5.48401C5.30987 5.46881 5.44752 5.41092 5.58985 5.30451C5.73244 5.19791 5.82768 5.08152 5.86783 4.99887L5.86985 4.99475L7.18971 2.33323L7.19023 2.33218C7.58971 1.53081 8.21151 0.9375 8.99756 0.9375Z" fill="#FF8C3A"/>
</g>
<defs>
<clipPath id="clip0_789_16574">
<rect width="18" height="18" fill="white"/>
</clipPath>
</defs>
</svg>
