<svg width="18" height="18" viewBox="0 0 18 18" fill="none" xmlns="http://www.w3.org/2000/svg">
<g clip-path="url(#clip0_789_16578)">
<path d="M8.99854 0.9375C9.78549 0.9375 10.4054 1.5319 10.8011 2.33394L12.1226 4.99887C12.1627 5.08135 12.2577 5.19749 12.4005 5.30373C12.5432 5.40986 12.6829 5.46841 12.7748 5.48385L15.167 5.88459C16.0311 6.0298 16.7554 6.45337 16.9905 7.19093C17.2254 7.92787 16.8812 8.6937 16.2599 9.31623L16.2592 9.31684L14.4008 11.1906C14.3271 11.2649 14.2446 11.4048 14.1929 11.5871C14.1415 11.7681 14.1369 11.933 14.1602 12.0396L14.1606 12.041L14.6923 14.359C14.9128 15.3238 14.8397 16.2805 14.1593 16.7806C13.4765 17.2825 12.5435 17.06 11.6959 16.5552L9.45338 15.2168C9.35921 15.1605 9.19749 15.1149 9.00229 15.1149C8.80851 15.1149 8.64339 15.1599 8.5431 15.2182L8.54168 15.2191L6.30363 16.5549C5.457 17.0615 4.52512 17.28 3.8423 16.7777C3.16233 16.2774 3.08557 15.3225 3.3068 14.3585L3.83839 12.041L3.83871 12.0396C3.86202 11.933 3.85746 11.7681 3.80606 11.5871C3.75432 11.4048 3.6718 11.2649 3.59815 11.1906L1.73835 9.31548C1.12095 8.69297 0.77787 7.9278 1.01093 7.19194C1.24466 6.45393 1.96754 6.02985 2.83221 5.88455L5.22246 5.48414L5.22322 5.48401C5.31084 5.46881 5.44849 5.41092 5.59082 5.30451C5.73342 5.19791 5.82866 5.08152 5.86881 4.99887L5.87083 4.99475L7.19068 2.33323L7.1912 2.33218C7.59069 1.53081 8.21249 0.9375 8.99854 0.9375Z" fill="#FF8C3A"/>
<mask id="mask0_789_16578" style="mask-type:alpha" maskUnits="userSpaceOnUse" x="0" y="0" width="18" height="18">
<path d="M8.99854 0.9375C9.78549 0.9375 10.4054 1.5319 10.8011 2.33394L12.1226 4.99887C12.1627 5.08135 12.2577 5.19749 12.4005 5.30373C12.5432 5.40986 12.6829 5.46841 12.7748 5.48385L15.167 5.88459C16.0311 6.0298 16.7554 6.45337 16.9905 7.19093C17.2254 7.92787 16.8812 8.6937 16.2599 9.31623L16.2592 9.31684L14.4008 11.1906C14.3271 11.2649 14.2446 11.4048 14.1929 11.5871C14.1415 11.7681 14.1369 11.933 14.1602 12.0396L14.1606 12.041L14.6923 14.359C14.9128 15.3238 14.8397 16.2805 14.1593 16.7806C13.4765 17.2825 12.5435 17.06 11.6959 16.5552L9.45338 15.2168C9.35921 15.1605 9.19749 15.1149 9.00229 15.1149C8.80851 15.1149 8.64339 15.1599 8.5431 15.2182L8.54168 15.2191L6.30363 16.5549C5.457 17.0615 4.52512 17.28 3.8423 16.7777C3.16233 16.2774 3.08557 15.3225 3.3068 14.3585L3.83839 12.041L3.83871 12.0396C3.86202 11.933 3.85746 11.7681 3.80606 11.5871C3.75432 11.4048 3.6718 11.2649 3.59815 11.1906L1.73835 9.31548C1.12095 8.69297 0.77787 7.9278 1.01093 7.19194C1.24466 6.45393 1.96754 6.02985 2.83221 5.88455L5.22246 5.48414L5.22322 5.48401C5.31084 5.46881 5.44849 5.41092 5.59082 5.30451C5.73342 5.19791 5.82866 5.08152 5.86881 4.99887L5.87083 4.99475L7.19068 2.33323L7.1912 2.33218C7.59069 1.53081 8.21249 0.9375 8.99854 0.9375Z" fill="#FF8C3A"/>
</mask>
<g mask="url(#mask0_789_16578)">
<rect x="9" width="9" height="17" fill="#E0E0E0"/>
</g>
</g>
<defs>
<clipPath id="clip0_789_16578">
<rect width="18" height="18" fill="white"/>
</clipPath>
</defs>
</svg>
