<svg width="18" height="18" viewBox="0 0 18 18" fill="none" xmlns="http://www.w3.org/2000/svg">
<g clip-path="url(#clip0_854_13718)">
<path d="M1.49951 13.5C1.49951 12.3447 1.49951 11.767 1.75956 11.3426C1.90507 11.1052 2.10471 10.9056 2.34216 10.76C2.76652 10.5 3.34418 10.5 4.49951 10.5C5.65484 10.5 6.2325 10.5 6.65686 10.76C6.89431 10.9056 7.09396 11.1052 7.23947 11.3426C7.49951 11.767 7.49951 12.3447 7.49951 13.5C7.49951 14.6553 7.49951 15.233 7.23947 15.6574C7.09396 15.8948 6.89431 16.0944 6.65686 16.24C6.2325 16.5 5.65484 16.5 4.49951 16.5C3.34418 16.5 2.76652 16.5 2.34216 16.24C2.10471 16.0944 1.90507 15.8948 1.75956 15.6574C1.49951 15.233 1.49951 14.6553 1.49951 13.5Z" stroke="white" stroke-width="1.125"/>
<path d="M10.4995 13.5C10.4995 12.3447 10.4995 11.767 10.7596 11.3426C10.9051 11.1052 11.1047 10.9056 11.3422 10.76C11.7665 10.5 12.3442 10.5 13.4995 10.5C14.6548 10.5 15.2325 10.5 15.6569 10.76C15.8943 10.9056 16.094 11.1052 16.2395 11.3426C16.4995 11.767 16.4995 12.3447 16.4995 13.5C16.4995 14.6553 16.4995 15.233 16.2395 15.6574C16.094 15.8948 15.8943 16.0944 15.6569 16.24C15.2325 16.5 14.6548 16.5 13.4995 16.5C12.3442 16.5 11.7665 16.5 11.3422 16.24C11.1047 16.0944 10.9051 15.8948 10.7596 15.6574C10.4995 15.233 10.4995 14.6553 10.4995 13.5Z" stroke="white" stroke-width="1.125"/>
<path d="M1.5 4.5C1.5 3.34467 1.5 2.76701 1.76005 2.34265C1.90556 2.1052 2.1052 1.90556 2.34265 1.76005C2.76701 1.5 3.34467 1.5 4.5 1.5C5.65533 1.5 6.23299 1.5 6.65735 1.76005C6.8948 1.90556 7.09444 2.1052 7.23995 2.34265C7.5 2.76701 7.5 3.34467 7.5 4.5C7.5 5.65533 7.5 6.23299 7.23995 6.65735C7.09444 6.8948 6.8948 7.09444 6.65735 7.23995C6.23299 7.5 5.65533 7.5 4.5 7.5C3.34467 7.5 2.76701 7.5 2.34265 7.23995C2.1052 7.09444 1.90556 6.8948 1.76005 6.65735C1.5 6.23299 1.5 5.65533 1.5 4.5Z" stroke="white" stroke-width="1.125"/>
<path d="M10.4995 4.5C10.4995 3.34467 10.4995 2.76701 10.7596 2.34265C10.9051 2.1052 11.1047 1.90556 11.3422 1.76005C11.7665 1.5 12.3442 1.5 13.4995 1.5C14.6548 1.5 15.2325 1.5 15.6569 1.76005C15.8943 1.90556 16.094 2.1052 16.2395 2.34265C16.4995 2.76701 16.4995 3.34467 16.4995 4.5C16.4995 5.65533 16.4995 6.23299 16.2395 6.65735C16.094 6.8948 15.8943 7.09444 15.6569 7.23995C15.2325 7.5 14.6548 7.5 13.4995 7.5C12.3442 7.5 11.7665 7.5 11.3422 7.23995C11.1047 7.09444 10.9051 6.8948 10.7596 6.65735C10.4995 6.23299 10.4995 5.65533 10.4995 4.5Z" stroke="white" stroke-width="1.125"/>
</g>
<defs>
<clipPath id="clip0_854_13718">
<rect width="18" height="18" fill="white"/>
</clipPath>
</defs>
</svg>
