<svg width="18" height="18" viewBox="0 0 18 18" fill="none" xmlns="http://www.w3.org/2000/svg">
<path d="M4.9502 8.94224C8.75468 1.85152 13.4919 1.76976 15.385 2.61521C16.2305 4.50828 16.1487 9.24555 9.05799 13.05C8.98446 12.6273 8.57551 11.5199 7.5279 10.4723C6.48028 9.42471 5.37292 9.01576 4.9502 8.94224Z" stroke="black" stroke-width="1.25" stroke-linecap="round" stroke-linejoin="round"/>
<path d="M10.0127 12.7125C11.3916 13.3875 11.5388 14.5979 11.7298 15.75C11.7298 15.75 14.6178 13.6151 12.7705 10.6875" stroke="black" stroke-width="1.25" stroke-linecap="round" stroke-linejoin="round"/>
<path d="M5.28747 8.04533C4.61247 6.66645 3.40211 6.51923 2.25 6.32822C2.25 6.32822 4.38488 3.44024 7.31248 5.28757" stroke="black" stroke-width="1.25" stroke-linecap="round" stroke-linejoin="round"/>
<path d="M4.51356 11.1835C4.12969 11.5674 3.4771 12.6806 3.93775 14.0626C5.3197 14.5232 6.43294 13.8706 6.81682 13.4868" stroke="black" stroke-width="1.25" stroke-linecap="round" stroke-linejoin="round"/>
<path d="M12.9756 6.33765C12.9756 5.61277 12.388 5.02515 11.6631 5.02515C10.9382 5.02515 10.3506 5.61277 10.3506 6.33765C10.3506 7.06252 10.9382 7.65015 11.6631 7.65015C12.388 7.65015 12.9756 7.06252 12.9756 6.33765Z" stroke="black" stroke-width="1.25"/>
</svg>
