<svg width="18" height="18" viewBox="0 0 18 18" fill="none" xmlns="http://www.w3.org/2000/svg">
<path d="M3.88505 11.4723C2.94187 12.0251 0.46891 13.154 1.97511 14.5665C2.71087 15.2565 3.53033 15.75 4.56058 15.75H10.4394C11.4697 15.75 12.2891 15.2565 13.0249 14.5665C14.5311 13.154 12.0581 12.0251 11.115 11.4723C8.90321 10.1759 6.09679 10.1759 3.88505 11.4723Z" stroke="black" stroke-width="1.25" stroke-linecap="round" stroke-linejoin="round"/>
<path d="M10.5 5.25C10.5 6.90685 9.15685 8.25 7.5 8.25C5.84315 8.25 4.5 6.90685 4.5 5.25C4.5 3.59315 5.84315 2.25 7.5 2.25C9.15685 2.25 10.5 3.59315 10.5 5.25Z" stroke="black" stroke-width="1.25"/>
<path d="M12.75 4.28571C12.75 4.28571 13.5 4.6768 13.875 5.25C13.875 5.25 15 3 16.5 2.25" stroke="black" stroke-width="1.25" stroke-linecap="round" stroke-linejoin="round"/>
</svg>
