<svg width="16" height="16" viewBox="0 0 16 16" fill="none" xmlns="http://www.w3.org/2000/svg">
<g clip-path="url(#clip0_792_2940)">
<path d="M14.6693 2.33276L12.3956 3.82148C11.8541 4.17607 11.2026 4.33176 10.5557 4.26117L9.68695 4.16636C8.89749 4.08021 8.10842 4.33152 7.52067 4.85631L5.84251 6.3547C5.18869 6.93848 5.16441 7.94054 5.78922 8.55421C6.32417 9.07962 7.16746 9.14817 7.78307 8.71628L8.89293 7.93766C9.04848 7.82854 9.24308 7.78752 9.43053 7.82434L9.65284 7.86801C10.4246 8.0196 11.2255 7.84117 11.8551 7.37738L12.2488 7.08739" stroke="#949494" stroke-linecap="round"/>
<path d="M9.43053 7.82434C9.84344 8.66048 10.4026 10.5994 12.0026 11.6661C11.2248 12.555 9.06927 13.6661 6.66927 13.6661C3.66927 13.6661 1.33594 10.3328 1.33594 10.3328M8.0026 4.5113C7.47769 4.18888 6.01633 3.7212 4.02363 3.67059C3.79167 3.66469 3.5633 3.60554 3.36184 3.49042L1.33594 2.33276" stroke="#949494" stroke-linecap="round" stroke-linejoin="round"/>
<path d="M12 11.6661C12 11.6661 13.6667 11.3328 14.6667 10.3328" stroke="#949494" stroke-linecap="round" stroke-linejoin="round"/>
</g>
<defs>
<clipPath id="clip0_792_2940">
<rect width="16" height="16" fill="white"/>
</clipPath>
</defs>
</svg>
