<svg width="16" height="16" viewBox="0 0 16 16" fill="none" xmlns="http://www.w3.org/2000/svg">
<g clip-path="url(#clip0_798_2998)">
<path d="M8.35005 1.99939H7.68204C7.30679 2.00497 6.93315 2.01994 6.56606 2.0443C3.77176 2.22971 1.54597 4.48298 1.36282 7.31177C1.32698 7.86534 1.32698 8.43862 1.36282 8.9922C1.42952 10.0225 1.886 10.9764 2.4234 11.7819C2.73542 12.3458 2.5295 13.0496 2.20449 13.6644C1.97015 14.1077 1.85298 14.3293 1.94706 14.4894C2.04114 14.6495 2.25129 14.6546 2.67157 14.6648C3.50274 14.685 4.06321 14.4498 4.50811 14.1224C4.76043 13.9366 4.88659 13.8438 4.97355 13.8331C5.0605 13.8224 5.23162 13.8928 5.5738 14.0335C5.88135 14.1599 6.23844 14.2379 6.56606 14.2597C7.51742 14.3228 8.51273 14.3229 9.46603 14.2597C12.1472 14.0818 14.3372 12 14.6693 9.33273" stroke="#949494" stroke-linecap="round" stroke-linejoin="round"/>
<path d="M10.396 5.76489C9.97677 6.0106 8.87768 6.5123 9.5471 7.1401C9.8741 7.44677 10.2383 7.6661 10.6962 7.6661H13.309C13.7669 7.6661 14.1311 7.44677 14.4581 7.14009C15.1275 6.5123 14.0284 6.0106 13.6092 5.76489C12.6263 5.18872 11.379 5.18872 10.396 5.76489Z" stroke="#949494"/>
<path d="M13.3359 2.6661C13.3359 3.40248 12.739 3.99943 12.0026 3.99943C11.2662 3.99943 10.6693 3.40248 10.6693 2.6661C10.6693 1.92972 11.2662 1.33276 12.0026 1.33276C12.739 1.33276 13.3359 1.92972 13.3359 2.6661Z" stroke="#949494"/>
<path d="M7.99961 8.33276H8.00559M5.33594 8.33276H5.34192" stroke="#949494" stroke-width="1.33333" stroke-linecap="round" stroke-linejoin="round"/>
</g>
<defs>
<clipPath id="clip0_798_2998">
<rect width="16" height="16" fill="white"/>
</clipPath>
</defs>
</svg>
