<svg width="16" height="16" viewBox="0 0 16 16" fill="none" xmlns="http://www.w3.org/2000/svg">
<g clip-path="url(#clip0_792_2960)">
<path d="M1.33594 8C1.33594 5.54058 1.33594 4.31087 1.87848 3.43918C2.07921 3.11668 2.32854 2.83618 2.61521 2.61036C3.39004 2 4.48312 2 6.66927 2H9.33594C11.5221 2 12.6152 2 13.39 2.61036C13.6767 2.83618 13.926 3.11668 14.1267 3.43918C14.6693 4.31087 14.6693 5.54058 14.6693 8C14.6693 10.4594 14.6693 11.6891 14.1267 12.5608C13.926 12.8833 13.6767 13.1638 13.39 13.3896C12.6152 14 11.5221 14 9.33594 14H6.66927C4.48312 14 3.39004 14 2.61521 13.3896C2.32854 13.1638 2.07921 12.8833 1.87848 12.5608C1.33594 11.6891 1.33594 10.4594 1.33594 8Z" stroke="#949494"/>
<path d="M6.33594 2L6.33594 14" stroke="#949494" stroke-linejoin="round"/>
<path d="M3.33594 4.66663H4.0026M3.33594 6.66663H4.0026" stroke="#949494" stroke-linecap="round" stroke-linejoin="round"/>
</g>
<defs>
<clipPath id="clip0_792_2960">
<rect width="16" height="16" fill="white"/>
</clipPath>
</defs>
</svg>
