<svg width="16" height="16" viewBox="0 0 16 16" fill="none" xmlns="http://www.w3.org/2000/svg">
<path d="M7.9962 1.33276C5.99101 1.33276 4.69085 2.67876 3.1532 3.16937C2.52799 3.36885 2.21538 3.46859 2.08886 3.6092C1.96235 3.7498 1.9253 3.95526 1.85121 4.36619C1.05835 8.76343 2.79133 12.8287 6.92426 14.4111C7.36832 14.5811 7.59035 14.6661 7.99838 14.6661C8.40642 14.6661 8.62844 14.5811 9.07247 14.4111C13.2051 12.8287 14.9365 8.76341 14.1434 4.36618C14.0693 3.95519 14.0322 3.74969 13.9056 3.60909C13.7791 3.46848 13.4665 3.3688 12.8413 3.16942C11.3031 2.67886 10.0015 1.33276 7.9962 1.33276Z" stroke="#949494" stroke-linecap="round" stroke-linejoin="round"/>
<path d="M6 8.66606C6 8.66606 6.66667 8.66606 7.33333 9.99939C7.33333 9.99939 9.45098 6.66606 11.3333 5.99939" stroke="#949494" stroke-linecap="round" stroke-linejoin="round"/>
</svg>
