<svg width="16" height="16" viewBox="0 0 16 16" fill="none" xmlns="http://www.w3.org/2000/svg">
<g clip-path="url(#clip0_792_2920)">
<path d="M9.33594 12.0004C9.33594 12.0004 10.0026 12.0004 10.6693 13.3337C10.6693 13.3337 12.7869 10.0004 14.6693 9.33374" stroke="#949494" stroke-linecap="round" stroke-linejoin="round"/>
<path d="M8.66927 14.6671H4.39652C3.36626 14.6671 2.54681 14.1658 1.81105 13.4648C0.304847 12.0298 2.77781 10.8831 3.72099 10.3215C5.83988 9.05979 8.50456 9.00682 10.6693 10.1626" stroke="#949494" stroke-linecap="round" stroke-linejoin="round"/>
<path d="M11 4.33374C11 5.99059 9.65685 7.33374 8 7.33374C6.34315 7.33374 5 5.99059 5 4.33374C5 2.67689 6.34315 1.33374 8 1.33374C9.65685 1.33374 11 2.67689 11 4.33374Z" stroke="#949494"/>
</g>
<defs>
<clipPath id="clip0_792_2920">
<rect width="16" height="16" fill="white"/>
</clipPath>
</defs>
</svg>
