<svg width="183" height="80" viewBox="0 0 183 80" fill="none" xmlns="http://www.w3.org/2000/svg">
<g clip-path="url(#clip0_799_16174)">
<path d="M-49.5156 40.7013C5.66956 32.4237 38.7807 54.4972 88.4473 44.8401C132.595 36.5625 165.707 10.3502 259.521 5.38367" stroke="#E0E0E0" stroke-width="0.551855" stroke-linecap="round"/>
<path d="M-49.5156 58.6374C11.1881 53.9468 44.2992 31.0456 99.4844 31.8733C154.67 32.7011 193.299 53.9468 259.521 41.8064" stroke="#E0E0E0" stroke-width="0.551855" stroke-linecap="round"/>
<path d="M-49.5156 21.3869C0.151038 23.5942 55.3362 5.38358 110.521 14.213C165.707 23.0424 204.336 46.2196 259.521 31.8718" stroke="#D1D1D1" stroke-width="0.689818" stroke-linecap="round"/>
<path d="M-49.5156 53.9459C0.151039 47.8757 33.2621 23.043 85.6881 21.3875C138.114 19.456 171.225 -5.65257 259.521 -11.7228V79.3304H-49.5156V53.9459Z" fill="url(#paint0_linear_799_16174)"/>
<path d="M-49.5156 53.9459C0.151038 47.8757 33.2621 23.043 85.6881 21.3875C138.114 19.456 171.225 -5.65257 259.521 -11.7228" stroke="url(#paint1_linear_799_16174)" stroke-width="1.37964" stroke-linecap="round"/>
<path d="M85.6836 24.4228C87.3599 24.4228 88.7188 23.0639 88.7188 21.3876C88.7188 19.7113 87.3599 18.3524 85.6836 18.3524C84.0073 18.3524 82.6484 19.7113 82.6484 21.3876C82.6484 23.0639 84.0073 24.4228 85.6836 24.4228Z" fill="white" stroke="#FF8C3A" stroke-width="1.37964"/>
</g>
<defs>
<linearGradient id="paint0_linear_799_16174" x1="-49.5156" y1="-11.7228" x2="-49.5156" y2="79.3304" gradientUnits="userSpaceOnUse">
<stop stop-color="#FF7E38" stop-opacity="0.12"/>
<stop offset="1" stop-color="#FF7E38" stop-opacity="0"/>
</linearGradient>
<linearGradient id="paint1_linear_799_16174" x1="-10.886" y1="-20.0003" x2="231.929" y2="-20.0003" gradientUnits="userSpaceOnUse">
<stop stop-color="#FF7E38" stop-opacity="0.65"/>
<stop offset="0.55" stop-color="#FF7E38"/>
<stop offset="1" stop-color="#FF7E38"/>
</linearGradient>
<clipPath id="clip0_799_16174">
<rect width="298" height="99.3308" fill="white" transform="translate(-44 -20.0001)"/>
</clipPath>
</defs>
</svg>
