<svg preserveAspectRatio="none" width="100%" height="100%" overflow="visible" style="display: block;" viewBox="0 0 311.126 310.809" fill="none" xmlns="http://www.w3.org/2000/svg">
<g id="Group">
<line id="Line 106" x1="0.164736" y1="0.00286721" x2="0.164707" y2="310.802" stroke="var(--stroke-0, #BEBEBE)" stroke-width="0.329414"/>
<line id="Line 107" x1="1.82741" y1="0.00230725" x2="1.82738" y2="310.801" stroke="var(--stroke-0, #BEBEBE)" stroke-width="0.329414"/>
<line id="Line 108" x1="3.49008" y1="0.00174729" x2="3.49005" y2="310.801" stroke="var(--stroke-0, #BEBEBE)" stroke-width="0.329414"/>
<line id="Line 109" x1="5.14511" y1="0.00881682" x2="5.14509" y2="310.808" stroke="var(--stroke-0, #BEBEBE)" stroke-width="0.329414"/>
<line id="Line 110" x1="6.80778" y1="0.00825686" x2="6.80775" y2="310.807" stroke="var(--stroke-0, #BEBEBE)" stroke-width="0.329414"/>
<line id="Line 111" x1="8.46988" y1="0.00712847" x2="8.46986" y2="310.806" stroke="var(--stroke-0, #BEBEBE)" stroke-width="0.329414"/>
<line id="Line 112" x1="10.1331" y1="0.00713695" x2="10.1331" y2="310.806" stroke="var(--stroke-0, #BEBEBE)" stroke-width="0.329414"/>
<line id="Line 113" x1="11.7958" y1="0.00657699" x2="11.7958" y2="310.806" stroke="var(--stroke-0, #BEBEBE)" stroke-width="0.329414"/>
<line id="Line 114" x1="13.4579" y1="0.00544859" x2="13.4579" y2="310.804" stroke="var(--stroke-0, #BEBEBE)" stroke-width="0.329414"/>
<line id="Line 115" x1="15.1206" y1="0.00488863" x2="15.1205" y2="310.804" stroke="var(--stroke-0, #BEBEBE)" stroke-width="0.329414"/>
<line id="Line 116" x1="16.7832" y1="0.00432867" x2="16.7832" y2="310.803" stroke="var(--stroke-0, #BEBEBE)" stroke-width="0.329414"/>
<line id="Line 117" x1="18.4459" y1="0.00376871" x2="18.4459" y2="310.803" stroke="var(--stroke-0, #BEBEBE)" stroke-width="0.329414"/>
<line id="Line 118" x1="20.1086" y1="0.00320876" x2="20.1085" y2="310.802" stroke="var(--stroke-0, #BEBEBE)" stroke-width="0.329414"/>
<line id="Line 119" x1="21.7712" y1="0.0026488" x2="21.7712" y2="310.802" stroke="var(--stroke-0, #BEBEBE)" stroke-width="0.329414"/>
<line id="Line 120" x1="23.4263" y1="0.00971833" x2="23.4263" y2="310.809" stroke="var(--stroke-0, #BEBEBE)" stroke-width="0.329414"/>
<line id="Line 121" x1="25.0966" y1="0.00152888" x2="25.0966" y2="310.801" stroke="var(--stroke-0, #BEBEBE)" stroke-width="0.329414"/>
<line id="Line 122" x1="26.7511" y1="0.00802998" x2="26.751" y2="310.807" stroke="var(--stroke-0, #BEBEBE)" stroke-width="0.329414"/>
<line id="Line 123" x1="28.4143" y1="0.00803845" x2="28.4143" y2="310.807" stroke="var(--stroke-0, #BEBEBE)" stroke-width="0.329414"/>
<line id="Line 124" x1="30.077" y1="0.00747849" x2="30.0769" y2="310.806" stroke="var(--stroke-0, #BEBEBE)" stroke-width="0.329414"/>
<line id="Line 125" x1="31.7396" y1="0.00691853" x2="31.7396" y2="310.806" stroke="var(--stroke-0, #BEBEBE)" stroke-width="0.329414"/>
<line id="Line 126" x1="33.4023" y1="0.00635858" x2="33.4023" y2="310.805" stroke="var(--stroke-0, #BEBEBE)" stroke-width="0.329414"/>
<line id="Line 127" x1="35.0644" y1="0.00523018" x2="35.0644" y2="310.804" stroke="var(--stroke-0, #BEBEBE)" stroke-width="0.329414"/>
<line id="Line 128" x1="36.7271" y1="0.00467022" x2="36.727" y2="310.804" stroke="var(--stroke-0, #BEBEBE)" stroke-width="0.329414"/>
<line id="Line 129" x1="38.3897" y1="0.00411026" x2="38.3897" y2="310.803" stroke="var(--stroke-0, #BEBEBE)" stroke-width="0.329414"/>
<line id="Line 130" x1="40.0524" y1="0.0035503" x2="40.0524" y2="310.803" stroke="var(--stroke-0, #BEBEBE)" stroke-width="0.329414"/>
<line id="Line 131" x1="41.7151" y1="0.00299034" x2="41.715" y2="310.802" stroke="var(--stroke-0, #BEBEBE)" stroke-width="0.329414"/>
<line id="Line 132" x1="43.3783" y1="0.00299882" x2="43.3783" y2="310.802" stroke="var(--stroke-0, #BEBEBE)" stroke-width="0.329414"/>
<line id="Line 133" x1="45.0404" y1="0.00187043" x2="45.0404" y2="310.801" stroke="var(--stroke-0, #BEBEBE)" stroke-width="0.329414"/>
<line id="Line 134" x1="46.7031" y1="0.00131047" x2="46.7031" y2="310.8" stroke="var(--stroke-0, #BEBEBE)" stroke-width="0.329414"/>
<line id="Line 135" x1="48.3581" y1="0.00838" x2="48.3581" y2="310.807" stroke="var(--stroke-0, #BEBEBE)" stroke-width="0.329414"/>
<line id="Line 136" x1="50.0208" y1="0.00782004" x2="50.0208" y2="310.807" stroke="var(--stroke-0, #BEBEBE)" stroke-width="0.329414"/>
<line id="Line 137" x1="51.6835" y1="0.00726008" x2="51.6834" y2="310.806" stroke="var(--stroke-0, #BEBEBE)" stroke-width="0.329414"/>
<line id="Line 138" x1="53.3461" y1="0.00670012" x2="53.3461" y2="310.806" stroke="var(--stroke-0, #BEBEBE)" stroke-width="0.329414"/>
<line id="Line 139" x1="55.0088" y1="0.00614016" x2="55.0088" y2="310.805" stroke="var(--stroke-0, #BEBEBE)" stroke-width="0.329414"/>
<line id="Line 140" x1="56.6715" y1="0.00558021" x2="56.6714" y2="310.805" stroke="var(--stroke-0, #BEBEBE)" stroke-width="0.329414"/>
<line id="Line 141" x1="58.3336" y1="0.00445181" x2="58.3335" y2="310.803" stroke="var(--stroke-0, #BEBEBE)" stroke-width="0.329414"/>
<line id="Line 142" x1="59.9962" y1="0.00389185" x2="59.9962" y2="310.803" stroke="var(--stroke-0, #BEBEBE)" stroke-width="0.329414"/>
<line id="Line 143" x1="61.6595" y1="0.00390033" x2="61.6595" y2="310.803" stroke="var(--stroke-0, #BEBEBE)" stroke-width="0.329414"/>
<line id="Line 144" x1="63.3216" y1="0.00277193" x2="63.3216" y2="310.802" stroke="var(--stroke-0, #BEBEBE)" stroke-width="0.329414"/>
<line id="Line 145" x1="64.9843" y1="0.00221197" x2="64.9842" y2="310.801" stroke="var(--stroke-0, #BEBEBE)" stroke-width="0.329414"/>
<line id="Line 146" x1="66.6469" y1="0.00165202" x2="66.6469" y2="310.801" stroke="var(--stroke-0, #BEBEBE)" stroke-width="0.329414"/>
<line id="Line 147" x1="68.302" y1="0.00872155" x2="68.3019" y2="310.808" stroke="var(--stroke-0, #BEBEBE)" stroke-width="0.329414"/>
<line id="Line 148" x1="69.9646" y1="0.00816159" x2="69.9646" y2="310.807" stroke="var(--stroke-0, #BEBEBE)" stroke-width="0.329414"/>
<line id="Line 149" x1="71.6273" y1="0.00760163" x2="71.6273" y2="310.807" stroke="var(--stroke-0, #BEBEBE)" stroke-width="0.329414"/>
<line id="Line 150" x1="73.29" y1="0.00704167" x2="73.2899" y2="310.806" stroke="var(--stroke-0, #BEBEBE)" stroke-width="0.329414"/>
<line id="Line 151" x1="74.9526" y1="0.00648171" x2="74.9526" y2="310.805" stroke="var(--stroke-0, #BEBEBE)" stroke-width="0.329414"/>
<line id="Line 152" x1="76.6147" y1="0.00535332" x2="76.6147" y2="310.804" stroke="var(--stroke-0, #BEBEBE)" stroke-width="0.329414"/>
<line id="Line 153" x1="78.278" y1="0.00536179" x2="78.278" y2="310.804" stroke="var(--stroke-0, #BEBEBE)" stroke-width="0.329414"/>
<line id="Line 154" x1="79.9406" y1="0.00480184" x2="79.9406" y2="310.804" stroke="var(--stroke-0, #BEBEBE)" stroke-width="0.329414"/>
<line id="Line 155" x1="81.6033" y1="0.00424188" x2="81.6033" y2="310.803" stroke="var(--stroke-0, #BEBEBE)" stroke-width="0.329414"/>
<line id="Line 156" x1="83.266" y1="0.00368192" x2="83.266" y2="310.803" stroke="var(--stroke-0, #BEBEBE)" stroke-width="0.329414"/>
<line id="Line 157" x1="84.9281" y1="0.00255352" x2="84.9281" y2="310.802" stroke="var(--stroke-0, #BEBEBE)" stroke-width="0.329414"/>
<line id="Line 158" x1="86.5908" y1="0.00199356" x2="86.5907" y2="310.801" stroke="var(--stroke-0, #BEBEBE)" stroke-width="0.329414"/>
<line id="Line 159" x1="88.2534" y1="0.0014336" x2="88.2534" y2="310.8" stroke="var(--stroke-0, #BEBEBE)" stroke-width="0.329414"/>
<line id="Line 160" x1="89.9085" y1="0.00850314" x2="89.9084" y2="310.808" stroke="var(--stroke-0, #BEBEBE)" stroke-width="0.329414"/>
<line id="Line 161" x1="91.5711" y1="0.00794318" x2="91.5711" y2="310.807" stroke="var(--stroke-0, #BEBEBE)" stroke-width="0.329414"/>
<line id="Line 162" x1="93.2344" y1="0.00795166" x2="93.2344" y2="310.807" stroke="var(--stroke-0, #BEBEBE)" stroke-width="0.329414"/>
<line id="Line 163" x1="94.8965" y1="0.00682326" x2="94.8965" y2="310.806" stroke="var(--stroke-0, #BEBEBE)" stroke-width="0.329414"/>
<line id="Line 164" x1="96.5591" y1="0.0062633" x2="96.5591" y2="310.805" stroke="var(--stroke-0, #BEBEBE)" stroke-width="0.329414"/>
<line id="Line 165" x1="98.2218" y1="0.00570334" x2="98.2218" y2="310.805" stroke="var(--stroke-0, #BEBEBE)" stroke-width="0.329414"/>
<line id="Line 166" x1="99.8845" y1="0.00514338" x2="99.8845" y2="310.804" stroke="var(--stroke-0, #BEBEBE)" stroke-width="0.329414"/>
<line id="Line 167" x1="101.547" y1="0.00458342" x2="101.547" y2="310.804" stroke="var(--stroke-0, #BEBEBE)" stroke-width="0.329414"/>
<line id="Line 168" x1="103.209" y1="0.00345503" x2="103.209" y2="310.802" stroke="var(--stroke-0, #BEBEBE)" stroke-width="0.329414"/>
<line id="Line 169" x1="104.872" y1="0.00289507" x2="104.872" y2="310.802" stroke="var(--stroke-0, #BEBEBE)" stroke-width="0.329414"/>
<line id="Line 170" x1="106.535" y1="0.00233511" x2="106.535" y2="310.801" stroke="var(--stroke-0, #BEBEBE)" stroke-width="0.329414"/>
<line id="Line 171" x1="108.197" y1="0.00177515" x2="108.197" y2="310.801" stroke="var(--stroke-0, #BEBEBE)" stroke-width="0.329414"/>
<line id="Line 172" x1="109.86" y1="0.00121519" x2="109.86" y2="310.8" stroke="var(--stroke-0, #BEBEBE)" stroke-width="0.329414"/>
<line id="Line 173" x1="111.515" y1="0.00828473" x2="111.515" y2="310.807" stroke="var(--stroke-0, #BEBEBE)" stroke-width="0.329414"/>
<line id="Line 174" x1="113.178" y1="0.00772477" x2="113.178" y2="310.807" stroke="var(--stroke-0, #BEBEBE)" stroke-width="0.329414"/>
<line id="Line 175" x1="114.84" y1="0.00716481" x2="114.84" y2="310.806" stroke="var(--stroke-0, #BEBEBE)" stroke-width="0.329414"/>
<line id="Line 176" x1="116.503" y1="0.00660485" x2="116.503" y2="310.806" stroke="var(--stroke-0, #BEBEBE)" stroke-width="0.329414"/>
<line id="Line 177" x1="118.166" y1="0.00604489" x2="118.166" y2="310.805" stroke="var(--stroke-0, #BEBEBE)" stroke-width="0.329414"/>
<line id="Line 178" x1="119.828" y1="0.00491649" x2="119.828" y2="310.804" stroke="var(--stroke-0, #BEBEBE)" stroke-width="0.329414"/>
<line id="Line 179" x1="121.49" y1="0.00435654" x2="121.49" y2="310.803" stroke="var(--stroke-0, #BEBEBE)" stroke-width="0.329414"/>
<line id="Line 180" x1="123.154" y1="0.00436501" x2="123.154" y2="310.803" stroke="var(--stroke-0, #BEBEBE)" stroke-width="0.329414"/>
<line id="Line 181" x1="124.816" y1="0.00380505" x2="124.816" y2="310.803" stroke="var(--stroke-0, #BEBEBE)" stroke-width="0.329414"/>
<line id="Line 182" x1="126.478" y1="0.00267666" x2="126.478" y2="310.802" stroke="var(--stroke-0, #BEBEBE)" stroke-width="0.329414"/>
<line id="Line 183" x1="128.141" y1="0.0021167" x2="128.141" y2="310.801" stroke="var(--stroke-0, #BEBEBE)" stroke-width="0.329414"/>
<line id="Line 184" x1="129.804" y1="0.00155674" x2="129.804" y2="310.801" stroke="var(--stroke-0, #BEBEBE)" stroke-width="0.329414"/>
<line id="Line 185" x1="131.459" y1="0.00862627" x2="131.459" y2="310.808" stroke="var(--stroke-0, #BEBEBE)" stroke-width="0.329414"/>
<line id="Line 186" x1="133.121" y1="0.00806631" x2="133.121" y2="310.807" stroke="var(--stroke-0, #BEBEBE)" stroke-width="0.329414"/>
<line id="Line 187" x1="134.784" y1="0.00750636" x2="134.784" y2="310.807" stroke="var(--stroke-0, #BEBEBE)" stroke-width="0.329414"/>
<line id="Line 188" x1="136.447" y1="0.0069464" x2="136.447" y2="310.806" stroke="var(--stroke-0, #BEBEBE)" stroke-width="0.329414"/>
<line id="Line 189" x1="138.109" y1="0.00638644" x2="138.109" y2="310.805" stroke="var(--stroke-0, #BEBEBE)" stroke-width="0.329414"/>
<line id="Line 190" x1="139.772" y1="0.00525804" x2="139.772" y2="310.804" stroke="var(--stroke-0, #BEBEBE)" stroke-width="0.329414"/>
<line id="Line 191" x1="141.435" y1="0.00526652" x2="141.435" y2="310.804" stroke="var(--stroke-0, #BEBEBE)" stroke-width="0.329414"/>
<line id="Line 192" x1="143.097" y1="0.00470656" x2="143.097" y2="310.804" stroke="var(--stroke-0, #BEBEBE)" stroke-width="0.329414"/>
<line id="Line 193" x1="144.76" y1="0.0041466" x2="144.76" y2="310.803" stroke="var(--stroke-0, #BEBEBE)" stroke-width="0.329414"/>
<line id="Line 194" x1="146.423" y1="0.00358664" x2="146.423" y2="310.803" stroke="var(--stroke-0, #BEBEBE)" stroke-width="0.329414"/>
<line id="Line 195" x1="148.085" y1="0.00302668" x2="148.085" y2="310.802" stroke="var(--stroke-0, #BEBEBE)" stroke-width="0.329414"/>
<line id="Line 196" x1="149.748" y1="0.00246672" x2="149.748" y2="310.801" stroke="var(--stroke-0, #BEBEBE)" stroke-width="0.329414"/>
<line id="Line 197" x1="151.411" y1="0.00190677" x2="151.411" y2="310.801" stroke="var(--stroke-0, #BEBEBE)" stroke-width="0.329414"/>
<line id="Line 198" x1="153.073" y1="0.00077837" x2="153.073" y2="310.8" stroke="var(--stroke-0, #BEBEBE)" stroke-width="0.329414"/>
<line id="Line 199" x1="154.736" y1="0.000218411" x2="154.736" y2="310.799" stroke="var(--stroke-0, #BEBEBE)" stroke-width="0.329414"/>
<line id="Line 200" x1="156.391" y1="0.00785638" x2="156.391" y2="310.807" stroke="var(--stroke-0, #BEBEBE)" stroke-width="0.329414"/>
<line id="Line 201" x1="158.053" y1="0.00672799" x2="158.053" y2="310.806" stroke="var(--stroke-0, #BEBEBE)" stroke-width="0.329414"/>
<line id="Line 202" x1="159.716" y1="0.00616803" x2="159.716" y2="310.805" stroke="var(--stroke-0, #BEBEBE)" stroke-width="0.329414"/>
<line id="Line 203" x1="161.379" y1="0.00560807" x2="161.379" y2="310.805" stroke="var(--stroke-0, #BEBEBE)" stroke-width="0.329414"/>
<line id="Line 204" x1="163.041" y1="0.00504811" x2="163.041" y2="310.804" stroke="var(--stroke-0, #BEBEBE)" stroke-width="0.329414"/>
<line id="Line 205" x1="164.704" y1="0.00448815" x2="164.704" y2="310.803" stroke="var(--stroke-0, #BEBEBE)" stroke-width="0.329414"/>
<line id="Line 206" x1="166.367" y1="0.00392819" x2="166.367" y2="310.803" stroke="var(--stroke-0, #BEBEBE)" stroke-width="0.329414"/>
<line id="Line 207" x1="168.029" y1="0.00336823" x2="168.029" y2="310.802" stroke="var(--stroke-0, #BEBEBE)" stroke-width="0.329414"/>
<line id="Line 208" x1="169.692" y1="0.00280827" x2="169.692" y2="310.802" stroke="var(--stroke-0, #BEBEBE)" stroke-width="0.329414"/>
<line id="Line 209" x1="171.354" y1="0.00167988" x2="171.354" y2="310.801" stroke="var(--stroke-0, #BEBEBE)" stroke-width="0.329414"/>
<line id="Line 210" x1="173.017" y1="0.00111992" x2="173.017" y2="310.8" stroke="var(--stroke-0, #BEBEBE)" stroke-width="0.329414"/>
<line id="Line 211" x1="174.672" y1="0.00818945" x2="174.672" y2="310.807" stroke="var(--stroke-0, #BEBEBE)" stroke-width="0.329414"/>
<line id="Line 212" x1="176.342" x2="176.342" y2="310.799" stroke="var(--stroke-0, #BEBEBE)" stroke-width="0.329414"/>
<line id="Line 213" x1="177.997" y1="0.00706953" x2="177.997" y2="310.806" stroke="var(--stroke-0, #BEBEBE)" stroke-width="0.329414"/>
<line id="Line 214" x1="179.66" y1="0.00650957" x2="179.66" y2="310.806" stroke="var(--stroke-0, #BEBEBE)" stroke-width="0.329414"/>
<line id="Line 215" x1="181.322" y1="0.00594962" x2="181.322" y2="310.805" stroke="var(--stroke-0, #BEBEBE)" stroke-width="0.329414"/>
<line id="Line 216" x1="182.985" y1="0.00538966" x2="182.985" y2="310.804" stroke="var(--stroke-0, #BEBEBE)" stroke-width="0.329414"/>
<line id="Line 217" x1="184.648" y1="0.0048297" x2="184.648" y2="310.804" stroke="var(--stroke-0, #BEBEBE)" stroke-width="0.329414"/>
<line id="Line 218" x1="186.311" y1="0.00426974" x2="186.31" y2="310.803" stroke="var(--stroke-0, #BEBEBE)" stroke-width="0.329414"/>
<line id="Line 219" x1="187.973" y1="0.00314134" x2="187.973" y2="310.802" stroke="var(--stroke-0, #BEBEBE)" stroke-width="0.329414"/>
<line id="Line 220" x1="189.635" y1="0.00258138" x2="189.635" y2="310.802" stroke="var(--stroke-0, #BEBEBE)" stroke-width="0.329414"/>
<line id="Line 221" x1="191.299" y1="0.00258986" x2="191.298" y2="310.802" stroke="var(--stroke-0, #BEBEBE)" stroke-width="0.329414"/>
<line id="Line 222" x1="192.961" y1="0.00146147" x2="192.961" y2="310.8" stroke="var(--stroke-0, #BEBEBE)" stroke-width="0.329414"/>
<line id="Line 223" x1="194.624" y1="0.00146994" x2="194.624" y2="310.8" stroke="var(--stroke-0, #BEBEBE)" stroke-width="0.329414"/>
<line id="Line 224" x1="196.279" y1="0.00853948" x2="196.279" y2="310.808" stroke="var(--stroke-0, #BEBEBE)" stroke-width="0.329414"/>
<line id="Line 225" x1="197.949" y1="0.000350026" x2="197.949" y2="310.799" stroke="var(--stroke-0, #BEBEBE)" stroke-width="0.329414"/>
<line id="Line 226" x1="199.604" y1="0.00741956" x2="199.604" y2="310.806" stroke="var(--stroke-0, #BEBEBE)" stroke-width="0.329414"/>
<line id="Line 227" x1="201.267" y1="0.0068596" x2="201.267" y2="310.806" stroke="var(--stroke-0, #BEBEBE)" stroke-width="0.329414"/>
<line id="Line 228" x1="202.929" y1="0.0057312" x2="202.929" y2="310.805" stroke="var(--stroke-0, #BEBEBE)" stroke-width="0.329414"/>
<line id="Line 229" x1="204.592" y1="0.00517124" x2="204.592" y2="310.804" stroke="var(--stroke-0, #BEBEBE)" stroke-width="0.329414"/>
<line id="Line 230" x1="206.254" y1="0.00461129" x2="206.254" y2="310.804" stroke="var(--stroke-0, #BEBEBE)" stroke-width="0.329414"/>
<line id="Line 231" x1="207.917" y1="0.00405133" x2="207.917" y2="310.803" stroke="var(--stroke-0, #BEBEBE)" stroke-width="0.329414"/>
<line id="Line 232" x1="209.58" y1="0.00349137" x2="209.58" y2="310.802" stroke="var(--stroke-0, #BEBEBE)" stroke-width="0.329414"/>
<line id="Line 233" x1="211.242" y1="0.00293141" x2="211.242" y2="310.802" stroke="var(--stroke-0, #BEBEBE)" stroke-width="0.329414"/>
<line id="Line 234" x1="212.905" y1="0.00237145" x2="212.905" y2="310.801" stroke="var(--stroke-0, #BEBEBE)" stroke-width="0.329414"/>
<line id="Line 235" x1="214.568" y1="0.00181149" x2="214.568" y2="310.801" stroke="var(--stroke-0, #BEBEBE)" stroke-width="0.329414"/>
<line id="Line 236" x1="216.223" y1="0.00888102" x2="216.223" y2="310.808" stroke="var(--stroke-0, #BEBEBE)" stroke-width="0.329414"/>
<line id="Line 237" x1="217.885" y1="0.00832107" x2="217.885" y2="310.807" stroke="var(--stroke-0, #BEBEBE)" stroke-width="0.329414"/>
<line id="Line 238" x1="219.548" y1="0.00776111" x2="219.548" y2="310.807" stroke="var(--stroke-0, #BEBEBE)" stroke-width="0.329414"/>
<line id="Line 239" x1="221.21" y1="0.00663271" x2="221.21" y2="310.806" stroke="var(--stroke-0, #BEBEBE)" stroke-width="0.329414"/>
<line id="Line 240" x1="222.873" y1="0.00607275" x2="222.873" y2="310.805" stroke="var(--stroke-0, #BEBEBE)" stroke-width="0.329414"/>
<line id="Line 241" x1="224.536" y1="0.00551279" x2="224.535" y2="310.805" stroke="var(--stroke-0, #BEBEBE)" stroke-width="0.329414"/>
<line id="Line 242" x1="226.198" y1="0.00495283" x2="226.198" y2="310.804" stroke="var(--stroke-0, #BEBEBE)" stroke-width="0.329414"/>
<line id="Line 243" x1="227.861" y1="0.00439287" x2="227.861" y2="310.803" stroke="var(--stroke-0, #BEBEBE)" stroke-width="0.329414"/>
<line id="Line 244" x1="229.524" y1="0.00383292" x2="229.523" y2="310.803" stroke="var(--stroke-0, #BEBEBE)" stroke-width="0.329414"/>
<line id="Line 245" x1="231.186" y1="0.00327296" x2="231.186" y2="310.802" stroke="var(--stroke-0, #BEBEBE)" stroke-width="0.329414"/>
<line id="Line 246" x1="232.849" y1="0.002713" x2="232.849" y2="310.802" stroke="var(--stroke-0, #BEBEBE)" stroke-width="0.329414"/>
<line id="Line 247" x1="234.512" y1="0.00215304" x2="234.511" y2="310.801" stroke="var(--stroke-0, #BEBEBE)" stroke-width="0.329414"/>
<line id="Line 248" x1="236.174" y1="0.00102464" x2="236.174" y2="310.8" stroke="var(--stroke-0, #BEBEBE)" stroke-width="0.329414"/>
<line id="Line 249" x1="237.829" y1="0.00809418" x2="237.829" y2="310.807" stroke="var(--stroke-0, #BEBEBE)" stroke-width="0.329414"/>
<line id="Line 250" x1="239.491" y1="0.00753422" x2="239.491" y2="310.807" stroke="var(--stroke-0, #BEBEBE)" stroke-width="0.329414"/>
<line id="Line 251" x1="241.154" y1="0.00697426" x2="241.154" y2="310.806" stroke="var(--stroke-0, #BEBEBE)" stroke-width="0.329414"/>
<line id="Line 252" x1="242.817" y1="0.0064143" x2="242.817" y2="310.805" stroke="var(--stroke-0, #BEBEBE)" stroke-width="0.329414"/>
<line id="Line 253" x1="244.479" y1="0.00585434" x2="244.479" y2="310.805" stroke="var(--stroke-0, #BEBEBE)" stroke-width="0.329414"/>
<line id="Line 254" x1="246.142" y1="0.00529438" x2="246.142" y2="310.804" stroke="var(--stroke-0, #BEBEBE)" stroke-width="0.329414"/>
<line id="Line 255" x1="247.805" y1="0.00473442" x2="247.805" y2="310.804" stroke="var(--stroke-0, #BEBEBE)" stroke-width="0.329414"/>
<line id="Line 256" x1="249.468" y1="0.0047429" x2="249.468" y2="310.804" stroke="var(--stroke-0, #BEBEBE)" stroke-width="0.329414"/>
<line id="Line 257" x1="251.131" y1="0.00418294" x2="251.131" y2="310.803" stroke="var(--stroke-0, #BEBEBE)" stroke-width="0.329414"/>
<line id="Line 258" x1="252.792" y1="0.00248611" x2="252.792" y2="310.801" stroke="var(--stroke-0, #BEBEBE)" stroke-width="0.329414"/>
<line id="Line 259" x1="254.455" y1="0.00249459" x2="254.455" y2="310.802" stroke="var(--stroke-0, #BEBEBE)" stroke-width="0.329414"/>
<line id="Line 260" x1="256.117" y1="0.00136619" x2="256.117" y2="310.8" stroke="var(--stroke-0, #BEBEBE)" stroke-width="0.329414"/>
<line id="Line 261" x1="257.781" y1="0.00137467" x2="257.781" y2="310.8" stroke="var(--stroke-0, #BEBEBE)" stroke-width="0.329414"/>
<line id="Line 262" x1="259.436" y1="0.0084442" x2="259.436" y2="310.807" stroke="var(--stroke-0, #BEBEBE)" stroke-width="0.329414"/>
<line id="Line 263" x1="261.098" y1="0.00788424" x2="261.098" y2="310.807" stroke="var(--stroke-0, #BEBEBE)" stroke-width="0.329414"/>
<line id="Line 264" x1="262.761" y1="0.00732428" x2="262.761" y2="310.806" stroke="var(--stroke-0, #BEBEBE)" stroke-width="0.329414"/>
<line id="Line 265" x1="264.424" y1="0.00676432" x2="264.424" y2="310.806" stroke="var(--stroke-0, #BEBEBE)" stroke-width="0.329414"/>
<line id="Line 266" x1="266.086" y1="0.00563593" x2="266.086" y2="310.805" stroke="var(--stroke-0, #BEBEBE)" stroke-width="0.329414"/>
<line id="Line 267" x1="267.749" y1="0.00564441" x2="267.749" y2="310.805" stroke="var(--stroke-0, #BEBEBE)" stroke-width="0.329414"/>
<line id="Line 268" x1="269.411" y1="0.00451601" x2="269.411" y2="310.804" stroke="var(--stroke-0, #BEBEBE)" stroke-width="0.329414"/>
<line id="Line 269" x1="271.074" y1="0.00395605" x2="271.074" y2="310.803" stroke="var(--stroke-0, #BEBEBE)" stroke-width="0.329414"/>
<line id="Line 270" x1="272.737" y1="0.00339609" x2="272.736" y2="310.802" stroke="var(--stroke-0, #BEBEBE)" stroke-width="0.329414"/>
<line id="Line 271" x1="274.399" y1="0.00283613" x2="274.399" y2="310.802" stroke="var(--stroke-0, #BEBEBE)" stroke-width="0.329414"/>
<line id="Line 272" x1="276.062" y1="0.00227618" x2="276.062" y2="310.801" stroke="var(--stroke-0, #BEBEBE)" stroke-width="0.329414"/>
<line id="Line 273" x1="277.725" y1="0.00171622" x2="277.724" y2="310.801" stroke="var(--stroke-0, #BEBEBE)" stroke-width="0.329414"/>
<line id="Line 274" x1="279.38" y1="0.00878575" x2="279.38" y2="310.808" stroke="var(--stroke-0, #BEBEBE)" stroke-width="0.329414"/>
<line id="Line 275" x1="281.042" y1="0.00822579" x2="281.042" y2="310.807" stroke="var(--stroke-0, #BEBEBE)" stroke-width="0.329414"/>
<line id="Line 276" x1="282.704" y1="0.00709739" x2="282.704" y2="310.806" stroke="var(--stroke-0, #BEBEBE)" stroke-width="0.329414"/>
<line id="Line 277" x1="284.368" y1="0.00710587" x2="284.368" y2="310.806" stroke="var(--stroke-0, #BEBEBE)" stroke-width="0.329414"/>
<line id="Line 278" x1="286.03" y1="0.00597748" x2="286.03" y2="310.805" stroke="var(--stroke-0, #BEBEBE)" stroke-width="0.329414"/>
<line id="Line 279" x1="287.692" y1="0.00541752" x2="287.692" y2="310.804" stroke="var(--stroke-0, #BEBEBE)" stroke-width="0.329414"/>
<line id="Line 280" x1="289.355" y1="0.00485756" x2="289.355" y2="310.804" stroke="var(--stroke-0, #BEBEBE)" stroke-width="0.329414"/>
<line id="Line 281" x1="291.018" y1="0.0042976" x2="291.018" y2="310.803" stroke="var(--stroke-0, #BEBEBE)" stroke-width="0.329414"/>
<line id="Line 282" x1="292.68" y1="0.00373764" x2="292.68" y2="310.803" stroke="var(--stroke-0, #BEBEBE)" stroke-width="0.329414"/>
<line id="Line 283" x1="294.343" y1="0.00317768" x2="294.343" y2="310.802" stroke="var(--stroke-0, #BEBEBE)" stroke-width="0.329414"/>
<line id="Line 284" x1="296.005" y1="0.00204929" x2="296.005" y2="310.801" stroke="var(--stroke-0, #BEBEBE)" stroke-width="0.329414"/>
<line id="Line 285" x1="297.668" y1="0.00205776" x2="297.668" y2="310.801" stroke="var(--stroke-0, #BEBEBE)" stroke-width="0.329414"/>
<line id="Line 286" x1="299.331" y1="0.00149781" x2="299.331" y2="310.801" stroke="var(--stroke-0, #BEBEBE)" stroke-width="0.329414"/>
<line id="Line 287" x1="300.986" y1="0.00856734" x2="300.986" y2="310.808" stroke="var(--stroke-0, #BEBEBE)" stroke-width="0.329414"/>
<line id="Line 288" x1="302.648" y1="0.00743894" x2="302.648" y2="310.806" stroke="var(--stroke-0, #BEBEBE)" stroke-width="0.329414"/>
<line id="Line 289" x1="304.311" y1="0.00744742" x2="304.311" y2="310.806" stroke="var(--stroke-0, #BEBEBE)" stroke-width="0.329414"/>
<line id="Line 290" x1="305.974" y1="0.00631902" x2="305.973" y2="310.805" stroke="var(--stroke-0, #BEBEBE)" stroke-width="0.329414"/>
<line id="Line 291" x1="307.636" y1="0.00575907" x2="307.636" y2="310.805" stroke="var(--stroke-0, #BEBEBE)" stroke-width="0.329414"/>
<line id="Line 292" x1="309.299" y1="0.00576754" x2="309.299" y2="310.805" stroke="var(--stroke-0, #BEBEBE)" stroke-width="0.329414"/>
<line id="Line 293" x1="310.962" y1="0.00463915" x2="310.961" y2="310.804" stroke="var(--stroke-0, #BEBEBE)" stroke-width="0.329414"/>
</g>
</svg>
