<svg preserveAspectRatio="none" width="100%" height="100%" overflow="visible" style="display: block;" viewBox="0 0 144.901 102.377" fill="none" xmlns="http://www.w3.org/2000/svg">
<g id="Group 2141256134">
<line id="Line 4" x1="13.2005" y1="12.1875" x2="13.2005" y2="102.376" stroke="var(--stroke-0, #E0E0E0)" stroke-width="0.947932"/>
<line id="Line 5" x1="15.7787" y1="9.88574" x2="15.7787" y2="102.377" stroke="var(--stroke-0, #E0E0E0)" stroke-width="0.947932"/>
<line id="Line 6" x1="18.349" y1="4.19824" x2="18.349" y2="102.377" stroke="var(--stroke-0, #E0E0E0)" stroke-width="0.947932"/>
<line id="Line 7" x1="20.9193" y1="2.07177e-08" x2="20.9193" y2="102.377" stroke="var(--stroke-0, #E0E0E0)" stroke-width="0.947932"/>
<line id="Line 8" x1="23.4974" y1="7.58398" x2="23.4974" y2="102.377" stroke="var(--stroke-0, #E0E0E0)" stroke-width="0.947932"/>
<line id="Line 56" x1="0.473966" y1="12.1875" x2="0.47397" y2="102.376" stroke="var(--stroke-0, #E0E0E0)" stroke-width="0.947932"/>
<line id="Line 57" x1="3.04428" y1="9.88574" x2="3.04428" y2="102.377" stroke="var(--stroke-0, #E0E0E0)" stroke-width="0.947932"/>
<line id="Line 58" x1="5.6224" y1="4.19824" x2="5.62241" y2="102.377" stroke="var(--stroke-0, #E0E0E0)" stroke-width="0.947932"/>
<line id="Line 59" x1="8.19253" y1="3.9765e-05" x2="8.19253" y2="102.377" stroke="var(--stroke-0, #E0E0E0)" stroke-width="0.947932"/>
<line id="Line 60" x1="10.763" y1="7.58398" x2="10.763" y2="102.377" stroke="var(--stroke-0, #E0E0E0)" stroke-width="0.947932"/>
<line id="Line 9" x1="26.0676" y1="9.88559" x2="26.0676" y2="102.377" stroke="var(--stroke-0, #E0E0E0)" stroke-width="0.947932"/>
<line id="Line 10" x1="28.638" y1="7.58398" x2="28.638" y2="102.377" stroke="var(--stroke-0, #E0E0E0)" stroke-width="0.947932"/>
<line id="Line 11" x1="31.2162" y1="4.19727" x2="31.2162" y2="102.376" stroke="var(--stroke-0, #E0E0E0)" stroke-width="0.947932"/>
<line id="Line 12" x1="33.7865" y1="3.1145" x2="33.7865" y2="102.377" stroke="var(--stroke-0, #E0E0E0)" stroke-width="0.947932"/>
<line id="Line 13" x1="36.3568" y1="2.16699" x2="36.3568" y2="102.377" stroke="var(--stroke-0, #E0E0E0)" stroke-width="0.947932"/>
<line id="Line 14" x1="38.9349" y1="4.19727" x2="38.9349" y2="102.376" stroke="var(--stroke-0, #E0E0E0)" stroke-width="0.947932"/>
<line id="Line 15" x1="41.3724" y1="1.62436" x2="41.5078" y2="102.376" stroke="var(--stroke-0, #E0E0E0)" stroke-width="0.947932"/>
<line id="Line 16" x1="44.0755" y1="26.542" x2="44.0755" y2="102.377" stroke="var(--stroke-0, #E0E0E0)" stroke-width="0.947932"/>
<line id="Line 17" x1="46.6537" y1="21.5312" x2="46.6537" y2="102.376" stroke="var(--stroke-0, #E0E0E0)" stroke-width="0.947932"/>
<line id="Line 18" x1="49.2242" y1="3.9765e-05" x2="49.2242" y2="102.377" stroke="var(--stroke-0, #E0E0E0)" stroke-width="0.947932"/>
<line id="Line 19" x1="51.7943" y1="2.07177e-08" x2="51.7943" y2="102.377" stroke="var(--stroke-0, #E0E0E0)" stroke-width="0.947932"/>
<line id="Line 20" x1="54.3724" y1="41.0312" x2="54.3724" y2="102.376" stroke="var(--stroke-0, #E0E0E0)" stroke-width="0.947932"/>
<line id="Line 21" x1="56.9427" y1="47.9385" x2="56.9427" y2="102.377" stroke="var(--stroke-0, #E0E0E0)" stroke-width="0.947932"/>
<line id="Line 22" x1="59.513" y1="57.0117" x2="59.513" y2="102.377" stroke="var(--stroke-0, #E0E0E0)" stroke-width="0.947932"/>
<line id="Line 23" x1="62.0912" y1="38.7295" x2="62.0912" y2="102.376" stroke="var(--stroke-0, #E0E0E0)" stroke-width="0.947932"/>
<line id="Line 24" x1="64.6615" y1="35.4805" x2="64.6615" y2="102.377" stroke="var(--stroke-0, #E0E0E0)" stroke-width="0.947932"/>
<line id="Line 25" x1="67.2318" y1="29.3857" x2="67.2318" y2="102.377" stroke="var(--stroke-0, #E0E0E0)" stroke-width="0.947932"/>
<line id="Line 26" x1="69.8099" y1="23.834" x2="69.8099" y2="102.377" stroke="var(--stroke-0, #E0E0E0)" stroke-width="0.947932"/>
<line id="Line 27" x1="72.3802" y1="18.0107" x2="72.3802" y2="102.377" stroke="var(--stroke-0, #E0E0E0)" stroke-width="0.947932"/>
<line id="Line 28" x1="74.9583" y1="26.542" x2="74.9583" y2="102.377" stroke="var(--stroke-0, #E0E0E0)" stroke-width="0.947932"/>
<line id="Line 29" x1="77.5287" y1="15.167" x2="77.5287" y2="102.377" stroke="var(--stroke-0, #E0E0E0)" stroke-width="0.947932"/>
<line id="Line 30" x1="80.099" y1="18.0107" x2="80.099" y2="102.377" stroke="var(--stroke-0, #E0E0E0)" stroke-width="0.947932"/>
<line id="Line 31" x1="82.6771" y1="15.167" x2="82.6771" y2="102.377" stroke="var(--stroke-0, #E0E0E0)" stroke-width="0.947932"/>
<line id="Line 32" x1="85.2474" y1="35.4795" x2="85.2474" y2="102.376" stroke="var(--stroke-0, #E0E0E0)" stroke-width="0.947932"/>
<line id="Line 33" x1="87.8177" y1="29.3857" x2="87.8177" y2="102.377" stroke="var(--stroke-0, #E0E0E0)" stroke-width="0.947932"/>
<line id="Line 34" x1="90.3958" y1="21.5312" x2="90.3958" y2="102.376" stroke="var(--stroke-0, #E0E0E0)" stroke-width="0.947932"/>
<line id="Line 35" x1="92.9662" y1="12.1875" x2="92.9662" y2="102.376" stroke="var(--stroke-0, #E0E0E0)" stroke-width="0.947932"/>
<line id="Line 36" x1="95.5365" y1="9.88574" x2="95.5365" y2="102.377" stroke="var(--stroke-0, #E0E0E0)" stroke-width="0.947932"/>
<line id="Line 37" x1="98.1146" y1="4.19824" x2="98.1146" y2="102.377" stroke="var(--stroke-0, #E0E0E0)" stroke-width="0.947932"/>
<line id="Line 38" x1="100.685" y1="2.07177e-08" x2="100.685" y2="102.377" stroke="var(--stroke-0, #E0E0E0)" stroke-width="0.947932"/>
<line id="Line 39" x1="103.255" y1="7.58398" x2="103.255" y2="102.377" stroke="var(--stroke-0, #E0E0E0)" stroke-width="0.947932"/>
<line id="Line 40" x1="105.826" y1="9.88574" x2="105.826" y2="102.377" stroke="var(--stroke-0, #E0E0E0)" stroke-width="0.947932"/>
<line id="Line 41" x1="108.404" y1="7.58398" x2="108.404" y2="102.377" stroke="var(--stroke-0, #E0E0E0)" stroke-width="0.947932"/>
<line id="Line 42" x1="110.974" y1="4.19727" x2="110.974" y2="102.376" stroke="var(--stroke-0, #E0E0E0)" stroke-width="0.947932"/>
<line id="Line 43" x1="113.544" y1="3.11426" x2="113.544" y2="102.376" stroke="var(--stroke-0, #E0E0E0)" stroke-width="0.947932"/>
<line id="Line 44" x1="116.122" y1="2.16699" x2="116.122" y2="102.377" stroke="var(--stroke-0, #E0E0E0)" stroke-width="0.947932"/>
<line id="Line 45" x1="118.693" y1="4.19727" x2="118.693" y2="102.376" stroke="var(--stroke-0, #E0E0E0)" stroke-width="0.947932"/>
<line id="Line 46" x1="121.13" y1="1.62436" x2="121.266" y2="102.376" stroke="var(--stroke-0, #E0E0E0)" stroke-width="0.947932"/>
<line id="Line 47" x1="123.841" y1="26.542" x2="123.841" y2="102.377" stroke="var(--stroke-0, #E0E0E0)" stroke-width="0.947932"/>
<line id="Line 48" x1="126.411" y1="21.5312" x2="126.411" y2="102.376" stroke="var(--stroke-0, #E0E0E0)" stroke-width="0.947932"/>
<line id="Line 49" x1="128.99" y1="2.07177e-08" x2="128.99" y2="102.377" stroke="var(--stroke-0, #E0E0E0)" stroke-width="0.947932"/>
<line id="Line 50" x1="131.56" y1="2.07177e-08" x2="131.56" y2="102.377" stroke="var(--stroke-0, #E0E0E0)" stroke-width="0.947932"/>
<line id="Line 51" x1="134.13" y1="41.0312" x2="134.13" y2="102.376" stroke="var(--stroke-0, #E0E0E0)" stroke-width="0.947932"/>
<line id="Line 52" x1="136.708" y1="47.9385" x2="136.708" y2="102.377" stroke="var(--stroke-0, #E0E0E0)" stroke-width="0.947932"/>
<line id="Line 53" x1="139.279" y1="57.0117" x2="139.279" y2="102.377" stroke="var(--stroke-0, #E0E0E0)" stroke-width="0.947932"/>
<line id="Line 54" x1="141.849" y1="38.7295" x2="141.849" y2="102.376" stroke="var(--stroke-0, #E0E0E0)" stroke-width="0.947932"/>
<line id="Line 55" x1="144.427" y1="35.4795" x2="144.427" y2="102.376" stroke="var(--stroke-0, #E0E0E0)" stroke-width="0.947932"/>
</g>
</svg>
