<svg preserveAspectRatio="none" width="100%" height="100%" overflow="visible" style="display: block;" viewBox="0 0 146.636 65.969" fill="none" xmlns="http://www.w3.org/2000/svg">
<g id="Group 2147225474">
<path id="Rectangle 161128718" d="M35.6823 19.9265L39.8803 21.687L53.1513 32.3174L59.8546 25.3433L66.9641 29.2027L76.0371 17.6244L80.0997 14.9837L85.855 4.89504L94.9958 2.59292L100.683 5.77526L108.199 4.08252L111.246 3.9471V65.9689H35.6823V19.9265Z" fill="url(#paint0_linear_0_64)" fill-opacity="0.66"/>
<path id="Vector 6939" d="M146.501 21.9579L142.912 24.6662L138.308 19.8589L131.334 3.20234L125.629 4.62091L118.74 0.155415L110.75 4.08256H107.838L100.458 5.77529L94.815 2.54006L85.6974 4.82736L80.0899 14.6151L75.8118 17.5567L66.8742 29.0673L59.6293 25.411L52.9261 32.4528L39.7227 21.6193L33.8997 19.1818L30.5819 24.1246L26.5194 22.3641L21.6443 25.6142L12.5035 26.4583L5.07822 30.8822L0.135434 23.312" stroke="var(--stroke-0, #FF8C3A)" stroke-width="0.270838" stroke-linecap="round"/>
</g>
<defs>
<linearGradient id="paint0_linear_0_64" x1="73.4642" y1="2.59292" x2="73.4642" y2="65.9689" gradientUnits="userSpaceOnUse">
<stop stop-color="#FF7E38"/>
<stop offset="1" stop-color="#FF7E38" stop-opacity="0.24"/>
</linearGradient>
</defs>
</svg>
