<svg width="146" height="87" viewBox="0 0 146 87" fill="none" xmlns="http://www.w3.org/2000/svg">
<g clip-path="url(#clip0_937_2688)">
<line x1="14.1345" y1="12.1875" x2="14.1345" y2="102.376" stroke="#E0E0E0" stroke-width="0.947932"/>
<line x1="16.7126" y1="9.88574" x2="16.7126" y2="102.377" stroke="#E0E0E0" stroke-width="0.947932"/>
<line x1="19.2829" y1="4.19824" x2="19.2829" y2="102.377" stroke="#E0E0E0" stroke-width="0.947932"/>
<line x1="21.8532" y1="2.07177e-08" x2="21.8532" y2="102.377" stroke="#E0E0E0" stroke-width="0.947932"/>
<line x1="24.4314" y1="7.58398" x2="24.4314" y2="102.377" stroke="#E0E0E0" stroke-width="0.947932"/>
<line x1="1.40793" y1="12.1875" x2="1.40793" y2="102.376" stroke="#E0E0E0" stroke-width="0.947932"/>
<line x1="3.97824" y1="9.88574" x2="3.97824" y2="102.377" stroke="#E0E0E0" stroke-width="0.947932"/>
<line x1="6.55636" y1="4.19824" x2="6.55637" y2="102.377" stroke="#E0E0E0" stroke-width="0.947932"/>
<line x1="9.12655" y1="2.07177e-08" x2="9.12655" y2="102.377" stroke="#E0E0E0" stroke-width="0.947932"/>
<line x1="11.697" y1="7.58398" x2="11.697" y2="102.377" stroke="#E0E0E0" stroke-width="0.947932"/>
<line x1="27.0016" y1="9.88562" x2="27.0016" y2="102.377" stroke="#E0E0E0" stroke-width="0.947932"/>
<line x1="29.572" y1="7.58398" x2="29.572" y2="102.377" stroke="#E0E0E0" stroke-width="0.947932"/>
<line x1="32.1501" y1="4.19727" x2="32.1501" y2="102.376" stroke="#E0E0E0" stroke-width="0.947932"/>
<line x1="34.7204" y1="3.1145" x2="34.7204" y2="102.377" stroke="#E0E0E0" stroke-width="0.947932"/>
<line x1="37.2907" y1="2.16699" x2="37.2907" y2="102.377" stroke="#E0E0E0" stroke-width="0.947932"/>
<line x1="39.8689" y1="4.19727" x2="39.8689" y2="102.376" stroke="#E0E0E0" stroke-width="0.947932"/>
<line x1="42.3064" y1="1.62436" x2="42.4418" y2="102.376" stroke="#E0E0E0" stroke-width="0.947932"/>
<line x1="45.0095" y1="26.542" x2="45.0095" y2="102.377" stroke="#E0E0E0" stroke-width="0.947932"/>
<line x1="47.5876" y1="21.5312" x2="47.5876" y2="102.376" stroke="#E0E0E0" stroke-width="0.947932"/>
<line x1="50.1582" y1="2.07177e-08" x2="50.1582" y2="102.377" stroke="#E0E0E0" stroke-width="0.947932"/>
<line x1="52.7282" y1="2.07177e-08" x2="52.7282" y2="102.377" stroke="#E0E0E0" stroke-width="0.947932"/>
<line x1="55.3064" y1="41.0312" x2="55.3064" y2="102.376" stroke="#E0E0E0" stroke-width="0.947932"/>
<line x1="57.8767" y1="47.9385" x2="57.8767" y2="102.377" stroke="#E0E0E0" stroke-width="0.947932"/>
<line x1="60.447" y1="57.0117" x2="60.447" y2="102.377" stroke="#E0E0E0" stroke-width="0.947932"/>
<line x1="63.0251" y1="38.7295" x2="63.0251" y2="102.376" stroke="#E0E0E0" stroke-width="0.947932"/>
<line x1="65.5954" y1="35.4805" x2="65.5954" y2="102.377" stroke="#E0E0E0" stroke-width="0.947932"/>
<line x1="68.1657" y1="29.3857" x2="68.1657" y2="102.377" stroke="#E0E0E0" stroke-width="0.947932"/>
<line x1="70.7439" y1="23.834" x2="70.7439" y2="102.377" stroke="#E0E0E0" stroke-width="0.947932"/>
<line x1="73.3142" y1="18.0107" x2="73.3142" y2="102.377" stroke="#E0E0E0" stroke-width="0.947932"/>
<line x1="75.8923" y1="26.542" x2="75.8923" y2="102.377" stroke="#E0E0E0" stroke-width="0.947932"/>
<line x1="78.4626" y1="15.167" x2="78.4626" y2="102.377" stroke="#E0E0E0" stroke-width="0.947932"/>
<line x1="81.0329" y1="18.0107" x2="81.0329" y2="102.377" stroke="#E0E0E0" stroke-width="0.947932"/>
<line x1="83.6111" y1="15.167" x2="83.6111" y2="102.377" stroke="#E0E0E0" stroke-width="0.947932"/>
<line x1="86.1814" y1="35.4795" x2="86.1814" y2="102.376" stroke="#E0E0E0" stroke-width="0.947932"/>
<line x1="88.7517" y1="29.3857" x2="88.7517" y2="102.377" stroke="#E0E0E0" stroke-width="0.947932"/>
<line x1="91.3298" y1="21.5312" x2="91.3298" y2="102.376" stroke="#E0E0E0" stroke-width="0.947932"/>
<line x1="93.9001" y1="12.1875" x2="93.9001" y2="102.376" stroke="#E0E0E0" stroke-width="0.947932"/>
<line x1="96.4704" y1="9.88574" x2="96.4704" y2="102.377" stroke="#E0E0E0" stroke-width="0.947932"/>
<line x1="99.0486" y1="4.19824" x2="99.0486" y2="102.377" stroke="#E0E0E0" stroke-width="0.947932"/>
<line x1="101.619" y1="2.07177e-08" x2="101.619" y2="102.377" stroke="#E0E0E0" stroke-width="0.947932"/>
<line x1="104.189" y1="7.58398" x2="104.189" y2="102.377" stroke="#E0E0E0" stroke-width="0.947932"/>
<line x1="106.759" y1="9.88574" x2="106.759" y2="102.377" stroke="#E0E0E0" stroke-width="0.947932"/>
<line x1="109.338" y1="7.58398" x2="109.338" y2="102.377" stroke="#E0E0E0" stroke-width="0.947932"/>
<line x1="111.908" y1="4.19727" x2="111.908" y2="102.376" stroke="#E0E0E0" stroke-width="0.947932"/>
<line x1="114.478" y1="3.11426" x2="114.478" y2="102.376" stroke="#E0E0E0" stroke-width="0.947932"/>
<line x1="117.056" y1="2.16699" x2="117.056" y2="102.377" stroke="#E0E0E0" stroke-width="0.947932"/>
<line x1="119.627" y1="4.19727" x2="119.627" y2="102.376" stroke="#E0E0E0" stroke-width="0.947932"/>
<line x1="122.064" y1="1.62436" x2="122.2" y2="102.376" stroke="#E0E0E0" stroke-width="0.947932"/>
<line x1="124.775" y1="26.542" x2="124.775" y2="102.377" stroke="#E0E0E0" stroke-width="0.947932"/>
<line x1="127.345" y1="21.5312" x2="127.345" y2="102.376" stroke="#E0E0E0" stroke-width="0.947932"/>
<line x1="129.924" y1="2.07177e-08" x2="129.924" y2="102.377" stroke="#E0E0E0" stroke-width="0.947932"/>
<line x1="132.494" y1="2.07177e-08" x2="132.494" y2="102.377" stroke="#E0E0E0" stroke-width="0.947932"/>
<line x1="135.064" y1="41.0312" x2="135.064" y2="102.376" stroke="#E0E0E0" stroke-width="0.947932"/>
<line x1="137.642" y1="47.9385" x2="137.642" y2="102.377" stroke="#E0E0E0" stroke-width="0.947932"/>
<line x1="140.213" y1="57.0117" x2="140.213" y2="102.377" stroke="#E0E0E0" stroke-width="0.947932"/>
<line x1="142.783" y1="38.7295" x2="142.783" y2="102.376" stroke="#E0E0E0" stroke-width="0.947932"/>
</g>
<path d="M35.2734 34.9381L39.4714 36.6986L52.7425 47.3289L59.4457 40.3549L66.5552 44.2143L75.6283 32.636L79.6908 29.9953L85.4461 19.9066L94.5869 17.6045L100.274 20.7868L107.79 19.0941L110.837 18.9587V80.9805H35.2734V34.9381Z" fill="url(#paint0_linear_937_2688)" fill-opacity="0.66"/>
<path d="M146.092 36.9694L142.503 39.6778L137.899 34.8704L130.925 18.2139L125.22 19.6325L118.331 15.167L110.341 19.0941H107.43L100.049 20.7869L94.4061 17.5516L85.2886 19.8389L79.681 29.6267L75.403 32.5683L66.4653 44.0789L59.2204 40.4226L52.5172 47.4644L39.3138 36.6309L33.4908 34.1933L30.1731 39.1361L26.1105 37.3757L21.2354 40.6257L12.0946 41.4699L4.66935 45.8938L-0.273438 38.3236" stroke="#FF8C3A" stroke-width="0.270838" stroke-linecap="round"/>
<rect width="146.252" height="6.36469" transform="translate(0 80.9805)" fill="#F1F1F1"/>
<rect x="32.7714" y="81.6576" width="80.4388" height="5" rx="2.5" fill="#E0E0E0"/>
<circle cx="52.4748" cy="86.3973" r="0.947932" fill="#FF8C3A"/>
<circle cx="93.7775" cy="86.3973" r="0.947932" fill="#FF8C3A"/>
<defs>
<linearGradient id="paint0_linear_937_2688" x1="73.0553" y1="17.6045" x2="73.0553" y2="80.9805" gradientUnits="userSpaceOnUse">
<stop stop-color="#FF7E38"/>
<stop offset="1" stop-color="#FF7E38" stop-opacity="0.24"/>
</linearGradient>
<clipPath id="clip0_937_2688">
<rect width="143.95" height="80.9805" fill="white" transform="translate(0.93396)"/>
</clipPath>
</defs>
</svg>
