<svg preserveAspectRatio="none" width="100%" height="100%" overflow="visible" style="display: block;" viewBox="0 0 13.6652 14.3333" fill="none" xmlns="http://www.w3.org/2000/svg">
<g id="elements">
<path id="Vector" d="M6.83139 0.5C4.82621 0.5 3.52605 1.84599 1.9884 2.3366C1.36318 2.53609 1.05057 2.63583 0.924061 2.77643C0.797548 2.91704 0.760501 3.1225 0.686408 3.53342C-0.106451 7.93066 1.62653 11.996 5.75946 13.5783C6.20352 13.7483 6.42555 13.8333 6.83358 13.8333C7.24162 13.8333 7.46363 13.7483 7.90767 13.5783C12.0403 11.996 13.7717 7.93065 12.9786 3.53342C12.9044 3.12243 12.8674 2.91693 12.7408 2.77632C12.6143 2.63572 12.3017 2.53603 11.6765 2.33666C10.1383 1.8461 8.83665 0.5 6.83139 0.5Z" stroke="var(--stroke-0, white)" stroke-linecap="round" stroke-linejoin="round"/>
<path id="Vector_2" d="M5.21963 9.73802L5.0168 10.195H5.0168L5.21963 9.73802ZM4.58823 9.06153L4.12187 9.24182H4.12187L4.58823 9.06153ZM9.07728 9.06153L9.54364 9.24182V9.24182L9.07728 9.06153ZM8.44589 9.73802L8.64871 10.195H8.64871L8.44589 9.73802ZM8.44589 6.17832L8.64871 5.72131H8.64871L8.44589 6.17832ZM9.07728 6.85482L9.54364 6.67452V6.67452L9.07728 6.85482ZM5.21963 6.17832L5.0168 5.72131V5.72131L5.21963 6.17832ZM4.58823 6.85482L4.12187 6.67452L4.12187 6.67452L4.58823 6.85482ZM5.16609 6.08317C5.16609 6.35931 5.38995 6.58317 5.66609 6.58317C5.94223 6.58317 6.16609 6.35931 6.16609 6.08317H5.66609H5.16609ZM7.49942 6.08317C7.49942 6.35931 7.72328 6.58317 7.99942 6.58317C8.27556 6.58317 8.49942 6.35931 8.49942 6.08317H7.99942H7.49942ZM6.24942 6.08317V6.58317H7.41609V6.08317V5.58317H6.24942V6.08317ZM7.41609 9.83317V9.33317H6.24942V9.83317V10.3332H7.41609V9.83317ZM6.24942 9.83317V9.33317C5.9703 9.33317 5.78778 9.33286 5.64753 9.32261C5.5125 9.31274 5.4553 9.29558 5.42245 9.28101L5.21963 9.73802L5.0168 10.195C5.19835 10.2756 5.38425 10.306 5.57462 10.3199C5.75977 10.3335 5.98495 10.3332 6.24942 10.3332V9.83317ZM4.49942 7.95817H3.99942C3.99942 8.243 3.99919 8.47999 4.01153 8.67389C4.02413 8.87166 4.05127 9.0592 4.12187 9.24182L4.58823 9.06153L5.05459 8.88123C5.03638 8.83413 5.01912 8.76121 5.00951 8.61034C4.99966 8.4556 4.99942 8.25577 4.99942 7.95817H4.49942ZM5.21963 9.73802L5.42245 9.28101C5.26417 9.21076 5.12791 9.07088 5.05459 8.88123L4.58823 9.06153L4.12187 9.24182C4.28537 9.66474 4.60335 10.0115 5.0168 10.195L5.21963 9.73802ZM9.16609 7.95817H8.66609C8.66609 8.25577 8.66585 8.4556 8.656 8.61034C8.64639 8.76121 8.62913 8.83413 8.61092 8.88123L9.07728 9.06153L9.54364 9.24182C9.61424 9.0592 9.64138 8.87166 9.65398 8.67389C9.66633 8.47999 9.66609 8.243 9.66609 7.95817H9.16609ZM7.41609 9.83317V10.3332C7.68056 10.3332 7.90574 10.3335 8.09089 10.3199C8.28126 10.306 8.46716 10.2756 8.64871 10.195L8.44589 9.73802L8.24306 9.28101C8.21022 9.29558 8.15301 9.31274 8.01798 9.32261C7.87774 9.33286 7.69521 9.33317 7.41609 9.33317V9.83317ZM9.07728 9.06153L8.61092 8.88123C8.5376 9.07088 8.40135 9.21076 8.24306 9.28101L8.44589 9.73802L8.64871 10.195C9.06216 10.0115 9.38014 9.66474 9.54364 9.24182L9.07728 9.06153ZM7.41609 6.08317V6.58317C7.69521 6.58317 7.87774 6.58348 8.01798 6.59373C8.15301 6.60361 8.21022 6.62076 8.24306 6.63534L8.44589 6.17832L8.64871 5.72131C8.46716 5.64073 8.28126 5.61031 8.09089 5.5964C7.90574 5.58286 7.68056 5.58317 7.41609 5.58317V6.08317ZM9.16609 7.95817H9.66609C9.66609 7.67335 9.66633 7.43635 9.65398 7.24245C9.64138 7.04468 9.61424 6.85714 9.54364 6.67452L9.07728 6.85482L8.61092 7.03511C8.62913 7.08221 8.64639 7.15513 8.656 7.306C8.66585 7.46074 8.66609 7.66057 8.66609 7.95817H9.16609ZM8.44589 6.17832L8.24306 6.63534C8.40135 6.70558 8.5376 6.84546 8.61092 7.03511L9.07728 6.85482L9.54364 6.67452C9.38014 6.2516 9.06216 5.9048 8.64871 5.72131L8.44589 6.17832ZM6.24942 6.08317V5.58317C5.98495 5.58317 5.75977 5.58286 5.57462 5.5964C5.38425 5.61031 5.19835 5.64073 5.0168 5.72131L5.21963 6.17832L5.42245 6.63534C5.4553 6.62076 5.5125 6.60361 5.64753 6.59373C5.78778 6.58348 5.9703 6.58317 6.24942 6.58317V6.08317ZM4.49942 7.95817H4.99942C4.99942 7.66057 4.99966 7.46074 5.00951 7.306C5.01912 7.15513 5.03638 7.08221 5.05459 7.03511L4.58823 6.85482L4.12187 6.67452C4.05127 6.85714 4.02413 7.04468 4.01153 7.24245C3.99919 7.43635 3.99942 7.67335 3.99942 7.95817H4.49942ZM5.21963 6.17832L5.0168 5.72131C4.60335 5.9048 4.28537 6.2516 4.12187 6.67452L4.58823 6.85482L5.05459 7.03511C5.12791 6.84546 5.26417 6.70558 5.42245 6.63534L5.21963 6.17832ZM5.66609 6.08317H6.16609V4.95817H5.66609H5.16609V6.08317H5.66609ZM7.99942 4.95817H7.49942V6.08317H7.99942H8.49942V4.95817H7.99942ZM6.83276 3.83317V4.33317C7.21824 4.33317 7.49942 4.62998 7.49942 4.95817H7.99942H8.49942C8.49942 4.04372 7.73594 3.33317 6.83276 3.33317V3.83317ZM5.66609 4.95817H6.16609C6.16609 4.62998 6.44727 4.33317 6.83276 4.33317V3.83317V3.33317C5.92958 3.33317 5.16609 4.04372 5.16609 4.95817H5.66609Z" fill="var(--stroke-0, white)"/>
</g>
</svg>
