<svg width="198" height="81" viewBox="0 0 198 81" fill="none" xmlns="http://www.w3.org/2000/svg">
<path d="M4.0018 78.8554C1.61163 80.1861 0.130874 81 0.0336914 81H148.034V1L141.794 6.71428L138.04 14.7662L130.972 32.6364L122.636 37.9351L115.86 47.8052L107.524 58.2987L99.3828 60.1688L88.9994 65.7823L83.7834 63.4935L78.7135 66.4545L73.01 61.987L66.4289 55.2857L56.8743 56.4696L43.5172 53.1039L37.1997 56.4696L30.1824 64.5678L16.8031 65.7823C16.8031 65.7823 5.38257 78.0867 4.0018 78.8554Z" fill="url(#paint0_linear_893_16098)" fill-opacity="0.4" stroke="#FF8C3A" stroke-width="0.348052" stroke-linecap="round"/>
<path d="M291.066 78.8554C293.456 80.1861 294.937 81 295.034 81H147.034V1L153.273 6.71428L157.027 14.7662L164.096 32.6364L172.432 37.9351L179.208 47.8052L187.544 58.2987L195.685 60.1688L206.068 65.7823L211.284 63.4935L216.354 66.4545L222.057 61.987L228.638 55.2857L238.193 56.4696L251.55 53.1039L257.868 56.4696L264.885 64.5678L278.264 65.7823C278.264 65.7823 289.685 78.0867 291.066 78.8554Z" fill="url(#paint1_linear_893_16098)" fill-opacity="0.4" stroke="#FF8C3A" stroke-width="0.348052" stroke-linecap="round"/>
<path d="M147.51 89.9609L147.51 0.499512" stroke="url(#paint2_linear_893_16098)" stroke-opacity="0.04"/>
<circle cx="147.534" cy="1.5" r="1.5" fill="white"/>
<defs>
<linearGradient id="paint0_linear_893_16098" x1="74.0337" y1="1" x2="74.0337" y2="81" gradientUnits="userSpaceOnUse">
<stop stop-color="#FF7E38"/>
<stop offset="1" stop-color="#FF7E38" stop-opacity="0.4"/>
</linearGradient>
<linearGradient id="paint1_linear_893_16098" x1="147.034" y1="1.00001" x2="147.034" y2="81" gradientUnits="userSpaceOnUse">
<stop stop-color="#FF7E38"/>
<stop offset="1" stop-color="#FF7E38" stop-opacity="0.4"/>
</linearGradient>
<linearGradient id="paint2_linear_893_16098" x1="147.51" y1="0.499512" x2="147.034" y2="81" gradientUnits="userSpaceOnUse">
<stop stop-color="#FF8C3A"/>
<stop offset="1" stop-color="#FF8C3A" stop-opacity="0.2"/>
</linearGradient>
</defs>
</svg>
