<svg preserveAspectRatio="none" width="100%" height="100%" overflow="visible" style="display: block;" viewBox="0 0 14.3333 14.3332" fill="none" xmlns="http://www.w3.org/2000/svg">
<g id="elements">
<path id="Vector" d="M4.35488 10.574C3.62129 10.9952 1.69788 11.8552 2.86937 12.9315C3.44163 13.4572 4.07898 13.8332 4.88029 13.8332H9.45272C10.254 13.8332 10.8914 13.4572 11.4636 12.9315C12.6351 11.8552 10.7117 10.9952 9.97813 10.574C8.25789 9.58624 6.07512 9.58624 4.35488 10.574Z" stroke="var(--stroke-0, white)" stroke-linecap="round" stroke-linejoin="round"/>
<path id="Ellipse 1381" d="M9.49984 5.83317C9.49984 7.12183 8.45517 8.1665 7.1665 8.1665C5.87784 8.1665 4.83317 7.12183 4.83317 5.83317C4.83317 4.54451 5.87784 3.49984 7.1665 3.49984C8.45517 3.49984 9.49984 4.54451 9.49984 5.83317Z" stroke="var(--stroke-0, white)"/>
<path id="Vector_2" d="M1.06934 9.83333C0.703338 9.01091 0.5 8.10064 0.5 7.14304C0.5 3.47419 3.48477 0.5 7.16667 0.5C10.8486 0.5 13.8333 3.47419 13.8333 7.14304C13.8333 8.10064 13.63 9.01091 13.264 9.83333" stroke="var(--stroke-0, white)" stroke-linecap="round"/>
</g>
</svg>
