<svg width="193.702" height="193.702" viewBox="-5.351 0 193.702 193.702" fill="none" xmlns="http://www.w3.org/2000/svg">
<g filter="url(#filter0_f_799_15834)">
<g clip-path="url(#clip0_799_15834)">
<path d="M91.5027 188.207C141.956 188.207 182.857 147.306 182.857 96.8527C182.857 46.3991 141.956 5.49841 91.5027 5.49841C41.0492 5.49841 0.148438 46.3991 0.148438 96.8527C0.148438 147.306 41.0492 188.207 91.5027 188.207Z" stroke="white" stroke-width="0.380853" stroke-miterlimit="10"/>
<path d="M86.5372 183.241C134.248 183.241 172.926 144.563 172.926 96.852C172.926 49.1408 134.248 10.4633 86.5372 10.4633C38.826 10.4633 0.148438 49.1408 0.148438 96.852C0.148438 144.563 38.826 183.241 86.5372 183.241Z" stroke="white" stroke-width="0.380853" stroke-miterlimit="10"/>
<path d="M81.5717 178.277C126.541 178.277 162.995 141.822 162.995 96.8533C162.995 51.8845 126.541 15.4301 81.5717 15.4301C36.6029 15.4301 0.148438 51.8845 0.148438 96.8533C0.148438 141.822 36.6029 178.277 81.5717 178.277Z" stroke="white" stroke-width="0.380853" stroke-miterlimit="10"/>
<path d="M76.6091 173.313C118.837 173.313 153.07 139.081 153.07 96.8527C153.07 54.6246 118.837 20.392 76.6091 20.392C34.3811 20.392 0.148438 54.6246 0.148438 96.8527C0.148438 139.081 34.3811 173.313 76.6091 173.313Z" stroke="white" stroke-width="0.380853" stroke-miterlimit="10"/>
<path d="M71.6436 168.348C111.129 168.348 143.139 136.339 143.139 96.853C143.139 57.3673 111.129 25.3578 71.6436 25.3578C32.1579 25.3578 0.148438 57.3673 0.148438 96.853C0.148438 136.339 32.1579 168.348 71.6436 168.348Z" stroke="white" stroke-width="0.380853" stroke-miterlimit="10"/>
<path d="M66.6781 163.382C103.421 163.382 133.208 133.596 133.208 96.8523C133.208 60.109 103.421 30.3226 66.6781 30.3226C29.9348 30.3226 0.148438 60.109 0.148438 96.8523C0.148438 133.596 29.9348 163.382 66.6781 163.382Z" stroke="white" stroke-width="0.380853" stroke-miterlimit="10"/>
<path d="M61.7155 158.421C95.7181 158.421 123.283 130.856 123.283 96.8536C123.283 62.851 95.7181 35.2865 61.7155 35.2865C27.713 35.2865 0.148438 62.851 0.148438 96.8536C0.148438 130.856 27.713 158.421 61.7155 158.421Z" stroke="white" stroke-width="0.380853" stroke-miterlimit="10"/>
<path d="M56.75 153.454C88.0102 153.454 113.352 128.112 113.352 96.8519C113.352 65.5918 88.0102 40.2504 56.75 40.2504C25.4898 40.2504 0.148438 65.5918 0.148438 96.8519C0.148438 128.112 25.4898 153.454 56.75 153.454Z" stroke="white" stroke-width="0.380853" stroke-miterlimit="10"/>
<path d="M51.7874 148.491C80.3069 148.491 103.426 125.372 103.426 96.8523C103.426 68.3328 80.3069 45.2133 51.7874 45.2133C23.268 45.2133 0.148438 68.3328 0.148438 96.8523C0.148438 125.372 23.268 148.491 51.7874 148.491Z" stroke="white" stroke-width="0.380853" stroke-miterlimit="10"/>
<path d="M46.8219 143.526C72.599 143.526 93.4954 122.63 93.4954 96.8526C93.4954 71.0755 72.599 50.1791 46.8219 50.1791C21.0449 50.1791 0.148438 71.0755 0.148438 96.8526C0.148438 122.63 21.0449 143.526 46.8219 143.526Z" stroke="white" stroke-width="0.380853" stroke-miterlimit="10"/>
<circle cx="59.6064" cy="30.2972" r="2.8564" fill="#FF8C3A"/>
<circle cx="103.403" cy="43.056" r="2.8564" fill="#FF8C3A"/>
</g>
</g>
<defs>
<filter id="filter0_f_799_15834" x="-5.35099" y="-3.71933e-05" width="193.702" height="193.702" filterUnits="userSpaceOnUse" color-interpolation-filters="sRGB">
<feFlood flood-opacity="0" result="BackgroundImageFix"/>
<feBlend mode="normal" in="SourceGraphic" in2="BackgroundImageFix" result="shape"/>
<feGaussianBlur stdDeviation="2.67549" result="effect1_foregroundBlur_799_15834"/>
</filter>
<clipPath id="clip0_799_15834">
<rect width="183" height="183" fill="white" transform="translate(0 5.35095)"/>
</clipPath>
</defs>
</svg>
