<svg width="429" height="287" viewBox="0 0 429 287" fill="none" xmlns="http://www.w3.org/2000/svg">
<g clip-path="url(#clip0_812_15870)">
<rect width="429" height="287" rx="8" fill="#FF964F"/>
<path d="M20.056 38L23.85 28.102H25.936L29.716 38H27.826L27.168 36.166H22.604L21.932 38H20.056ZM23.164 34.584H26.594L24.886 29.866L23.164 34.584ZM30.6014 38V28.102H32.3514V36.404H37.5034V38H30.6014ZM38.5382 38V28.102H40.2882V36.404H45.4402V38H38.5382ZM52.2195 38V29.698L49.1255 29.698V28.102L57.0495 28.102V29.698H53.9555V38H52.2195ZM58.0146 38V28.102H59.7646V38H58.0146ZM61.6994 38V28.102H64.0934L66.8374 33.1L69.5534 28.102H71.8774V38H70.1274V30.314L67.1734 35.662H66.4314L63.4494 30.314V38H61.6994ZM73.8062 38V28.102L80.7922 28.102V29.698L75.5562 29.698V32.302H80.1062V33.87H75.5562V36.404L80.7922 36.404V38L73.8062 38ZM85.7969 38V28.102H89.7029C90.2069 28.102 90.6829 28.1533 91.1309 28.256C91.5789 28.3493 91.9756 28.5173 92.3209 28.76C92.6663 28.9933 92.9369 29.3153 93.1329 29.726C93.3289 30.1367 93.4269 30.6453 93.4269 31.252C93.4269 31.756 93.3383 32.1993 93.1609 32.582C92.9836 32.9647 92.7363 33.2867 92.4189 33.548C92.1109 33.8093 91.7423 34.01 91.3129 34.15L93.4829 38H91.5229L89.5769 34.43H87.5469V38H85.7969ZM87.5469 32.876H89.4649C89.7823 32.876 90.0716 32.8527 90.3329 32.806C90.6036 32.75 90.8369 32.6613 91.0329 32.54C91.2383 32.4187 91.3923 32.2553 91.4949 32.05C91.6069 31.8353 91.6676 31.5647 91.6769 31.238C91.6769 30.846 91.5929 30.538 91.4249 30.314C91.2663 30.09 91.0329 29.9313 90.7249 29.838C90.4263 29.7447 90.0669 29.698 89.6469 29.698H87.5469V32.876ZM95.0189 38V28.102H102.005V29.698H96.7689V32.302H101.319V33.87H96.7689V36.404H102.005V38H95.0189ZM105.521 38V29.698H102.427V28.102H110.351V29.698H107.257V38H105.521ZM115.348 38.112C114.406 38.112 113.631 37.93 113.024 37.566C112.418 37.1927 111.97 36.67 111.68 35.998C111.391 35.326 111.246 34.5327 111.246 33.618V28.102H112.996V33.66C112.996 34.164 113.066 34.6353 113.206 35.074C113.356 35.5033 113.603 35.8487 113.948 36.11C114.303 36.3713 114.779 36.502 115.376 36.502C115.983 36.502 116.45 36.3713 116.776 36.11C117.112 35.8393 117.346 35.4893 117.476 35.06C117.616 34.6307 117.686 34.164 117.686 33.66V28.102H119.45V33.618C119.45 34.5233 119.306 35.312 119.016 35.984C118.727 36.656 118.284 37.1787 117.686 37.552C117.089 37.9253 116.31 38.112 115.348 38.112ZM121.318 38V28.102L125.224 28.102C125.728 28.102 126.204 28.1533 126.652 28.256C127.1 28.3493 127.496 28.5173 127.842 28.76C128.187 28.9933 128.458 29.3153 128.654 29.726C128.85 30.1367 128.948 30.6453 128.948 31.252C128.948 31.756 128.859 32.1993 128.682 32.582C128.504 32.9647 128.257 33.2867 127.94 33.548C127.632 33.8093 127.263 34.01 126.834 34.15L129.004 38H127.044L125.098 34.43H123.068V38H121.318ZM123.068 32.876H124.986C125.303 32.876 125.592 32.8527 125.854 32.806C126.124 32.75 126.358 32.6613 126.554 32.54C126.759 32.4187 126.913 32.2553 127.016 32.05C127.128 31.8353 127.188 31.5647 127.198 31.238C127.198 30.846 127.114 30.538 126.946 30.314C126.787 30.09 126.554 29.9313 126.246 29.838C125.947 29.7447 125.588 29.698 125.168 29.698H123.068V32.876ZM130.54 38V28.102H132.416L137.19 35.312V28.102L138.94 28.102V38H137.106L132.29 30.832V38H130.54Z" fill="white"/>
<g clip-path="url(#clip1_812_15870)">
<g clip-path="url(#clip2_812_15870)">
<line x1="20" y1="171.65" x2="686" y2="171.65" stroke="white" stroke-opacity="0.3" stroke-width="0.7" stroke-dasharray="1.4 1.4"/>
<line x1="20" y1="187.65" x2="686" y2="187.65" stroke="white" stroke-opacity="0.3" stroke-width="0.7" stroke-dasharray="1.4 1.4"/>
<line x1="20" y1="142.65" x2="686" y2="142.65" stroke="white" stroke-opacity="0.3" stroke-width="0.7" stroke-dasharray="1.4 1.4"/>
<line x1="20" y1="201.65" x2="686" y2="201.65" stroke="white" stroke-opacity="0.3" stroke-width="0.7" stroke-dasharray="1.4 1.4"/>
<line x1="20" y1="157.65" x2="686" y2="157.65" stroke="white" stroke-opacity="0.3" stroke-width="0.7" stroke-dasharray="1.4 1.4"/>
<line x1="50" y1="157.65" x2="366" y2="157.65" stroke="#E0E0E0" stroke-width="0.7" stroke-dasharray="1.4 1.4"/>
<line x1="234" y1="171.65" x2="338" y2="171.65" stroke="#E0E0E0" stroke-width="0.7" stroke-dasharray="1.4 1.4"/>
<line x1="114" y1="171.65" x2="150" y2="171.65" stroke="#E0E0E0" stroke-width="0.7" stroke-dasharray="1.4 1.4"/>
<line x1="59" y1="171.65" x2="77" y2="171.65" stroke="#E0E0E0" stroke-width="0.7" stroke-dasharray="1.4 1.4"/>
<line x1="20" y1="142.65" x2="425" y2="142.65" stroke="#E0E0E0" stroke-width="0.7" stroke-dasharray="1.4 1.4"/>
<path d="M17.2139 164.016L18.5034 162.625C19.2004 161.873 20.3432 161.745 21.1891 162.324C21.9598 162.852 22.9888 162.798 23.6997 162.192L27.8999 158.61C30.0375 156.788 33.0575 156.419 35.5704 157.675L38.4226 159.1C40.0449 159.911 41.9184 160.06 43.6485 159.516L44.4613 159.261C45.7796 158.847 46.8991 157.962 47.6063 156.775L48.1954 155.786C49.4564 153.669 52.1933 152.973 54.3127 154.23L54.4568 154.315C55.7932 155.108 57.4586 155.096 58.7834 154.284C60.843 153.022 63.5404 153.758 64.6733 155.892L71.7906 169.296C73.2682 172.079 76.4231 173.531 79.4983 172.845L94.6423 169.464C95.7449 169.218 96.8908 169.242 97.9819 169.535L121.088 175.736C123.008 176.251 125.056 175.925 126.722 174.84L152.299 158.181C154.69 156.623 157.786 156.673 160.126 158.306L168.757 164.33L173.485 163.651C175.406 163.376 177.356 163.91 178.868 165.127L202.485 184.134C204.558 185.802 207.396 186.151 209.811 185.035L220.943 179.888C221.864 179.463 222.866 179.242 223.88 179.242H236.165C236.997 179.242 237.823 179.094 238.603 178.804L249.875 174.616C250.951 174.216 251.912 173.558 252.674 172.699L261.603 162.629C262.278 161.868 263.11 161.263 264.043 160.857L283.628 152.317C284.179 152.077 284.696 151.767 285.168 151.395L310.727 131.216C313.147 129.306 316.531 129.203 319.061 130.963L334.098 141.419C334.763 141.881 335.503 142.225 336.286 142.434L347.567 145.451L356.299 153.224L367.685 162.327C368.516 162.991 369 163.997 369 165.061V231H9V169.038C9 166.592 11.2232 164.748 13.6273 165.2C14.9468 165.448 16.3013 165.001 17.2139 164.016Z" fill="url(#paint0_linear_812_15870)"/>
<path d="M369 163.464L356.299 153.286L347.567 145.493L336.287 142.47C335.504 142.259 334.762 141.915 334.097 141.451L319.068 130.975C316.535 129.209 313.143 129.312 310.721 131.228L285.168 151.451C284.696 151.825 284.179 152.135 283.627 152.376L264.043 160.936C263.11 161.344 262.278 161.95 261.604 162.713L252.673 172.808C251.912 173.668 250.95 174.328 249.874 174.729L238.605 178.926C237.824 179.217 236.996 179.367 236.162 179.367H223.884C222.867 179.367 221.863 179.588 220.941 180.015L209.819 185.169C207.4 186.29 204.555 185.94 202.48 184.266L178.871 165.219C177.357 163.998 175.404 163.462 173.479 163.739L168.757 164.418L160.132 158.384C157.79 156.745 154.686 156.695 152.292 158.258L126.727 174.951C125.058 176.04 123.005 176.367 121.081 175.85L97.9857 169.637C96.8921 169.342 95.7435 169.318 94.6384 169.565L79.5059 172.952C76.4272 173.641 73.2681 172.185 71.7913 169.397L64.6705 155.954C63.5399 153.82 60.8418 153.083 58.7839 154.348C57.4592 155.161 55.7925 155.174 54.4562 154.379L54.3122 154.293C52.1944 153.034 49.4569 153.731 48.1983 155.849L47.605 156.847C46.8987 158.036 45.7792 158.922 44.4604 159.337L43.6544 159.591C41.9208 160.137 40.0429 159.987 38.4178 159.173L35.5781 157.751C33.0615 156.49 30.0348 156.86 27.8952 158.689L23.6994 162.275C22.989 162.882 21.9594 162.937 21.1891 162.408C20.3437 161.827 19.2003 161.955 18.5041 162.708L17.296 164.015C16.3326 165.057 14.9006 165.53 13.5058 165.267L9 164.418" stroke="white" stroke-width="0.7"/>
</g>
<path d="M281 105.5C281 99.1487 286.149 94 292.5 94H337.5C343.851 94 349 99.1487 349 105.5C349 111.851 343.851 117 337.5 117H292.5C286.149 117 281 111.851 281 105.5Z" fill="white"/>
<path d="M290.131 109.5V102.888H288.427V101.988C288.747 101.964 289.035 101.928 289.291 101.88C289.547 101.824 289.775 101.732 289.975 101.604C290.175 101.468 290.351 101.272 290.503 101.016H291.403V109.5H290.131ZM293.468 109.5L296.84 102.18H292.496V101.016H298.256V102.012L294.872 109.5H293.468ZM299.673 109.5L303.045 102.18H298.701V101.016H304.461V102.012L301.077 109.5H299.673ZM304.929 109.62C304.689 109.62 304.489 109.544 304.329 109.392C304.177 109.24 304.101 109.04 304.101 108.792C304.101 108.544 304.181 108.344 304.341 108.192C304.501 108.032 304.697 107.952 304.929 107.952C305.161 107.952 305.353 108.032 305.505 108.192C305.665 108.344 305.745 108.544 305.745 108.792C305.745 109.04 305.665 109.24 305.505 109.392C305.353 109.544 305.161 109.62 304.929 109.62ZM307.015 109.5V108.444L309.403 106.404C309.603 106.236 309.823 106.048 310.063 105.84C310.311 105.632 310.547 105.408 310.771 105.168C311.003 104.928 311.191 104.672 311.335 104.4C311.487 104.128 311.563 103.844 311.563 103.548C311.563 103.092 311.423 102.736 311.143 102.48C310.871 102.224 310.499 102.096 310.027 102.096C309.627 102.096 309.287 102.18 309.007 102.348C308.735 102.516 308.555 102.752 308.467 103.056H307.171C307.243 102.568 307.423 102.168 307.711 101.856C307.999 101.544 308.351 101.312 308.767 101.16C309.183 101 309.619 100.92 310.075 100.92C310.603 100.92 311.075 101.016 311.491 101.208C311.907 101.4 312.235 101.684 312.475 102.06C312.715 102.428 312.835 102.88 312.835 103.416C312.835 103.92 312.739 104.368 312.547 104.76C312.355 105.152 312.099 105.508 311.779 105.828C311.467 106.148 311.127 106.46 310.759 106.764L308.875 108.336H312.895V109.5H307.015ZM316.957 109.596C316.565 109.596 316.185 109.552 315.817 109.464C315.449 109.376 315.117 109.236 314.821 109.044C314.533 108.844 314.301 108.584 314.125 108.264C313.949 107.944 313.861 107.552 313.861 107.088C313.861 106.768 313.913 106.48 314.017 106.224C314.121 105.96 314.273 105.732 314.473 105.54C314.681 105.348 314.921 105.196 315.193 105.084C314.913 104.932 314.693 104.752 314.533 104.544C314.373 104.328 314.265 104.1 314.209 103.86C314.153 103.62 314.125 103.392 314.125 103.176C314.125 102.768 314.205 102.424 314.365 102.144C314.525 101.856 314.741 101.624 315.013 101.448C315.285 101.264 315.589 101.132 315.925 101.052C316.261 100.964 316.609 100.92 316.969 100.92C317.321 100.92 317.665 100.964 318.001 101.052C318.337 101.132 318.641 101.264 318.913 101.448C319.185 101.632 319.401 101.868 319.561 102.156C319.721 102.444 319.801 102.792 319.801 103.2C319.801 103.408 319.769 103.628 319.705 103.86C319.649 104.092 319.541 104.312 319.381 104.52C319.221 104.728 318.997 104.904 318.709 105.048C318.997 105.16 319.241 105.316 319.441 105.516C319.649 105.716 319.805 105.948 319.909 106.212C320.013 106.476 320.065 106.772 320.065 107.1C320.065 107.556 319.977 107.944 319.801 108.264C319.625 108.584 319.385 108.844 319.081 109.044C318.785 109.236 318.453 109.376 318.085 109.464C317.725 109.552 317.349 109.596 316.957 109.596ZM316.957 108.444C317.149 108.444 317.349 108.424 317.557 108.384C317.765 108.344 317.961 108.276 318.145 108.18C318.329 108.076 318.477 107.936 318.589 107.76C318.709 107.576 318.769 107.348 318.769 107.076C318.769 106.74 318.685 106.476 318.517 106.284C318.349 106.084 318.125 105.94 317.845 105.852C317.573 105.756 317.277 105.708 316.957 105.708C316.645 105.708 316.349 105.756 316.069 105.852C315.797 105.94 315.573 106.084 315.397 106.284C315.229 106.476 315.145 106.74 315.145 107.076C315.145 107.348 315.201 107.576 315.313 107.76C315.433 107.936 315.585 108.076 315.769 108.18C315.961 108.276 316.161 108.344 316.369 108.384C316.577 108.424 316.773 108.444 316.957 108.444ZM316.969 104.652C317.257 104.652 317.513 104.604 317.737 104.508C317.969 104.412 318.157 104.272 318.301 104.088C318.445 103.896 318.517 103.664 318.517 103.392C318.525 103.072 318.457 102.816 318.313 102.624C318.169 102.424 317.977 102.28 317.737 102.192C317.505 102.096 317.245 102.048 316.957 102.048C316.661 102.048 316.393 102.096 316.153 102.192C315.921 102.28 315.737 102.42 315.601 102.612C315.473 102.804 315.409 103.048 315.409 103.344C315.409 103.64 315.481 103.888 315.625 104.088C315.769 104.28 315.957 104.424 316.189 104.52C316.429 104.608 316.689 104.652 316.969 104.652ZM322.129 109.5L327.457 101.016H328.729L323.425 109.5H322.129ZM327.949 109.572C327.557 109.572 327.221 109.488 326.941 109.32C326.669 109.152 326.457 108.924 326.305 108.636C326.161 108.34 326.089 108.004 326.089 107.628C326.089 107.236 326.161 106.896 326.305 106.608C326.457 106.32 326.673 106.096 326.953 105.936C327.233 105.768 327.565 105.684 327.949 105.684C328.333 105.684 328.661 105.764 328.933 105.924C329.205 106.084 329.413 106.312 329.557 106.608C329.701 106.896 329.773 107.232 329.773 107.616C329.773 107.992 329.697 108.328 329.545 108.624C329.401 108.92 329.193 109.152 328.921 109.32C328.649 109.488 328.325 109.572 327.949 109.572ZM327.937 108.588C328.137 108.588 328.297 108.544 328.417 108.456C328.537 108.368 328.621 108.248 328.669 108.096C328.725 107.944 328.753 107.788 328.753 107.628C328.753 107.468 328.725 107.316 328.669 107.172C328.621 107.02 328.537 106.9 328.417 106.812C328.297 106.724 328.137 106.68 327.937 106.68C327.633 106.68 327.417 106.78 327.289 106.98C327.161 107.172 327.097 107.388 327.097 107.628C327.097 107.884 327.161 108.108 327.289 108.3C327.425 108.492 327.641 108.588 327.937 108.588ZM322.969 104.808C322.577 104.808 322.241 104.724 321.961 104.556C321.689 104.388 321.481 104.16 321.337 103.872C321.193 103.576 321.121 103.24 321.121 102.864C321.121 102.472 321.193 102.132 321.337 101.844C321.481 101.556 321.693 101.332 321.973 101.172C322.253 101.004 322.589 100.92 322.981 100.92C323.365 100.92 323.693 101 323.965 101.16C324.237 101.32 324.445 101.548 324.589 101.844C324.733 102.132 324.805 102.468 324.805 102.852C324.805 103.228 324.733 103.564 324.589 103.86C324.445 104.156 324.233 104.388 323.953 104.556C323.681 104.724 323.353 104.808 322.969 104.808ZM322.969 103.824C323.169 103.824 323.325 103.78 323.437 103.692C323.557 103.596 323.645 103.476 323.701 103.332C323.757 103.18 323.785 103.024 323.785 102.864C323.785 102.696 323.757 102.54 323.701 102.396C323.645 102.252 323.557 102.136 323.437 102.048C323.325 101.952 323.169 101.904 322.969 101.904C322.665 101.904 322.445 102.004 322.309 102.204C322.181 102.396 322.117 102.616 322.117 102.864C322.117 103.12 322.181 103.344 322.309 103.536C322.445 103.728 322.665 103.824 322.969 103.824ZM336.991 109.5V103.572L334.747 106.344L333.907 105.624L337.531 101.4L341.167 105.624L340.327 106.344L338.071 103.572V109.5H336.991Z" fill="#5FC472"/>
<path d="M315 114.333C313.527 114.333 312.333 115.527 312.333 117C312.333 118.473 313.527 119.667 315 119.667C316.473 119.667 317.667 118.473 317.667 117C317.667 115.527 316.473 114.333 315 114.333ZM314.5 231.004C314.5 231.281 314.724 231.504 315 231.504C315.276 231.504 315.5 231.281 315.5 231.004H315H314.5ZM314.5 117.983C314.5 118.259 314.724 118.483 315 118.483C315.276 118.483 315.5 118.259 315.5 117.983H315H314.5ZM315.5 119.948C315.5 119.672 315.276 119.448 315 119.448C314.724 119.448 314.5 119.672 314.5 119.948H315H315.5ZM314.5 121.914C314.5 122.19 314.724 122.414 315 122.414C315.276 122.414 315.5 122.19 315.5 121.914H315H314.5ZM315.5 123.88C315.5 123.603 315.276 123.38 315 123.38C314.724 123.38 314.5 123.603 314.5 123.88H315H315.5ZM314.5 125.845C314.5 126.121 314.724 126.345 315 126.345C315.276 126.345 315.5 126.121 315.5 125.845H315H314.5ZM315.5 127.811C315.5 127.535 315.276 127.311 315 127.311C314.724 127.311 314.5 127.535 314.5 127.811H315H315.5ZM314.5 129.776C314.5 130.052 314.724 130.276 315 130.276C315.276 130.276 315.5 130.052 315.5 129.776H315H314.5ZM315.5 131.742C315.5 131.466 315.276 131.242 315 131.242C314.724 131.242 314.5 131.466 314.5 131.742H315H315.5ZM314.5 133.708C314.5 133.984 314.724 134.208 315 134.208C315.276 134.208 315.5 133.984 315.5 133.708H315H314.5ZM315.5 135.673C315.5 135.397 315.276 135.173 315 135.173C314.724 135.173 314.5 135.397 314.5 135.673H315H315.5ZM314.5 137.639C314.5 137.915 314.724 138.139 315 138.139C315.276 138.139 315.5 137.915 315.5 137.639H315H314.5ZM315.5 139.604C315.5 139.328 315.276 139.104 315 139.104C314.724 139.104 314.5 139.328 314.5 139.604H315H315.5ZM314.5 141.57C314.5 141.846 314.724 142.07 315 142.07C315.276 142.07 315.5 141.846 315.5 141.57H315H314.5ZM315.5 143.536C315.5 143.259 315.276 143.036 315 143.036C314.724 143.036 314.5 143.259 314.5 143.536H315H315.5ZM314.5 145.501C314.5 145.777 314.724 146.001 315 146.001C315.276 146.001 315.5 145.777 315.5 145.501H315H314.5ZM315.5 147.467C315.5 147.191 315.276 146.967 315 146.967C314.724 146.967 314.5 147.191 314.5 147.467H315H315.5ZM314.5 149.432C314.5 149.708 314.724 149.932 315 149.932C315.276 149.932 315.5 149.708 315.5 149.432H315H314.5ZM315.5 151.398C315.5 151.122 315.276 150.898 315 150.898C314.724 150.898 314.5 151.122 314.5 151.398H315H315.5ZM314.5 153.363C314.5 153.64 314.724 153.863 315 153.863C315.276 153.863 315.5 153.64 315.5 153.363H315H314.5ZM315.5 155.329C315.5 155.053 315.276 154.829 315 154.829C314.724 154.829 314.5 155.053 314.5 155.329H315H315.5ZM314.5 157.295C314.5 157.571 314.724 157.795 315 157.795C315.276 157.795 315.5 157.571 315.5 157.295H315H314.5ZM315.5 159.26C315.5 158.984 315.276 158.76 315 158.76C314.724 158.76 314.5 158.984 314.5 159.26H315H315.5ZM314.5 161.226C314.5 161.502 314.724 161.726 315 161.726C315.276 161.726 315.5 161.502 315.5 161.226H315H314.5ZM315.5 163.191C315.5 162.915 315.276 162.691 315 162.691C314.724 162.691 314.5 162.915 314.5 163.191H315H315.5ZM314.5 165.157C314.5 165.433 314.724 165.657 315 165.657C315.276 165.657 315.5 165.433 315.5 165.157H315H314.5ZM315.5 167.123C315.5 166.846 315.276 166.623 315 166.623C314.724 166.623 314.5 166.846 314.5 167.123H315H315.5ZM314.5 169.088C314.5 169.364 314.724 169.588 315 169.588C315.276 169.588 315.5 169.364 315.5 169.088H315H314.5ZM315.5 171.054C315.5 170.778 315.276 170.554 315 170.554C314.724 170.554 314.5 170.778 314.5 171.054H315H315.5ZM314.5 173.019C314.5 173.296 314.724 173.519 315 173.519C315.276 173.519 315.5 173.296 315.5 173.019H315H314.5ZM315.5 174.985C315.5 174.709 315.276 174.485 315 174.485C314.724 174.485 314.5 174.709 314.5 174.985H315H315.5ZM314.5 176.951C314.5 177.227 314.724 177.451 315 177.451C315.276 177.451 315.5 177.227 315.5 176.951H315H314.5ZM315.5 178.916C315.5 178.64 315.276 178.416 315 178.416C314.724 178.416 314.5 178.64 314.5 178.916H315H315.5ZM314.5 180.882C314.5 181.158 314.724 181.382 315 181.382C315.276 181.382 315.5 181.158 315.5 180.882H315H314.5ZM315.5 182.847C315.5 182.571 315.276 182.347 315 182.347C314.724 182.347 314.5 182.571 314.5 182.847H315H315.5ZM314.5 184.813C314.5 185.089 314.724 185.313 315 185.313C315.276 185.313 315.5 185.089 315.5 184.813H315H314.5ZM315.5 186.779C315.5 186.502 315.276 186.279 315 186.279C314.724 186.279 314.5 186.502 314.5 186.779H315H315.5ZM314.5 188.744C314.5 189.02 314.724 189.244 315 189.244C315.276 189.244 315.5 189.02 315.5 188.744H315H314.5ZM315.5 190.71C315.5 190.434 315.276 190.21 315 190.21C314.724 190.21 314.5 190.434 314.5 190.71H315H315.5ZM314.5 192.675C314.5 192.951 314.724 193.175 315 193.175C315.276 193.175 315.5 192.951 315.5 192.675H315H314.5ZM315.5 194.641C315.5 194.365 315.276 194.141 315 194.141C314.724 194.141 314.5 194.365 314.5 194.641H315H315.5ZM314.5 196.606C314.5 196.883 314.724 197.106 315 197.106C315.276 197.106 315.5 196.883 315.5 196.606H315H314.5ZM315.5 198.572C315.5 198.296 315.276 198.072 315 198.072C314.724 198.072 314.5 198.296 314.5 198.572H315H315.5ZM314.5 200.538C314.5 200.814 314.724 201.038 315 201.038C315.276 201.038 315.5 200.814 315.5 200.538H315H314.5ZM315.5 202.503C315.5 202.227 315.276 202.003 315 202.003C314.724 202.003 314.5 202.227 314.5 202.503H315H315.5ZM314.5 204.469C314.5 204.745 314.724 204.969 315 204.969C315.276 204.969 315.5 204.745 315.5 204.469H315H314.5ZM315.5 206.434C315.5 206.158 315.276 205.934 315 205.934C314.724 205.934 314.5 206.158 314.5 206.434H315H315.5ZM314.5 208.4C314.5 208.676 314.724 208.9 315 208.9C315.276 208.9 315.5 208.676 315.5 208.4H315H314.5ZM315.5 210.366C315.5 210.089 315.276 209.866 315 209.866C314.724 209.866 314.5 210.089 314.5 210.366H315H315.5ZM314.5 212.331C314.5 212.607 314.724 212.831 315 212.831C315.276 212.831 315.5 212.607 315.5 212.331H315H314.5ZM315.5 214.297C315.5 214.021 315.276 213.797 315 213.797C314.724 213.797 314.5 214.021 314.5 214.297H315H315.5ZM314.5 216.262C314.5 216.539 314.724 216.762 315 216.762C315.276 216.762 315.5 216.539 315.5 216.262H315H314.5ZM315.5 218.228C315.5 217.952 315.276 217.728 315 217.728C314.724 217.728 314.5 217.952 314.5 218.228H315H315.5ZM314.5 220.194C314.5 220.47 314.724 220.694 315 220.694C315.276 220.694 315.5 220.47 315.5 220.194H315H314.5ZM315.5 222.159C315.5 221.883 315.276 221.659 315 221.659C314.724 221.659 314.5 221.883 314.5 222.159H315H315.5ZM314.5 224.125C314.5 224.401 314.724 224.625 315 224.625C315.276 224.625 315.5 224.401 315.5 224.125H315H314.5ZM315.5 226.09C315.5 225.814 315.276 225.59 315 225.59C314.724 225.59 314.5 225.814 314.5 226.09H315H315.5ZM314.5 228.056C314.5 228.332 314.724 228.556 315 228.556C315.276 228.556 315.5 228.332 315.5 228.056H315H314.5ZM315.5 230.022C315.5 229.745 315.276 229.522 315 229.522C314.724 229.522 314.5 229.745 314.5 230.022H315H315.5ZM315 117H314.5V117.983H315H315.5V117H315ZM315 119.948H314.5V121.914H315H315.5V119.948H315ZM315 123.88H314.5V125.845H315H315.5V123.88H315ZM315 127.811H314.5V129.776H315H315.5V127.811H315ZM315 131.742H314.5V133.708H315H315.5V131.742H315ZM315 135.673H314.5V137.639H315H315.5V135.673H315ZM315 139.604H314.5V141.57H315H315.5V139.604H315ZM315 143.536H314.5V145.501H315H315.5V143.536H315ZM315 147.467H314.5V149.432H315H315.5V147.467H315ZM315 151.398H314.5V153.363H315H315.5V151.398H315ZM315 155.329H314.5V157.295H315H315.5V155.329H315ZM315 159.26H314.5V161.226H315H315.5V159.26H315ZM315 163.191H314.5V165.157H315H315.5V163.191H315ZM315 167.123H314.5V169.088H315H315.5V167.123H315ZM315 171.054H314.5V173.019H315H315.5V171.054H315ZM315 174.985H314.5V176.951H315H315.5V174.985H315ZM315 178.916H314.5V180.882H315H315.5V178.916H315ZM315 182.847H314.5V184.813H315H315.5V182.847H315ZM315 186.779H314.5V188.744H315H315.5V186.779H315ZM315 190.71H314.5V192.675H315H315.5V190.71H315ZM315 194.641H314.5V196.606H315H315.5V194.641H315ZM315 198.572H314.5V200.538H315H315.5V198.572H315ZM315 202.503H314.5V204.469H315H315.5V202.503H315ZM315 206.434H314.5V208.4H315H315.5V206.434H315ZM315 210.366H314.5V212.331H315H315.5V210.366H315ZM315 214.297H314.5V216.262H315H315.5V214.297H315ZM315 218.228H314.5V220.194H315H315.5V218.228H315ZM315 222.159H314.5V224.125H315H315.5V222.159H315ZM315 226.09H314.5V228.056H315H315.5V226.09H315ZM315 230.022H314.5V231.004H315H315.5V230.022H315Z" fill="white"/>
<circle cx="315" cy="117" r="2" fill="#FF9B3C"/>
</g>
<path d="M377.36 106V105.124L379.76 103.048C379.976 102.864 380.212 102.664 380.468 102.448C380.732 102.224 380.98 101.984 381.212 101.728C381.452 101.472 381.648 101.2 381.8 100.912C381.96 100.616 382.04 100.304 382.04 99.976C382.04 99.464 381.888 99.072 381.584 98.8C381.28 98.52 380.872 98.38 380.36 98.38C379.952 98.38 379.596 98.464 379.292 98.632C378.988 98.8 378.788 99.044 378.692 99.364H377.576C377.656 98.924 377.836 98.564 378.116 98.284C378.404 97.996 378.748 97.78 379.148 97.636C379.556 97.492 379.976 97.42 380.408 97.42C380.936 97.42 381.4 97.516 381.8 97.708C382.208 97.9 382.524 98.18 382.748 98.548C382.98 98.908 383.096 99.352 383.096 99.88C383.096 100.4 382.996 100.856 382.796 101.248C382.604 101.64 382.348 101.996 382.028 102.316C381.716 102.628 381.38 102.936 381.02 103.24L378.872 105.052H383.192V106H377.36ZM387.553 106.096C386.961 106.096 386.453 105.988 386.029 105.772C385.613 105.548 385.273 105.24 385.009 104.848C384.745 104.448 384.549 103.988 384.421 103.468C384.301 102.94 384.241 102.372 384.241 101.764C384.241 101.156 384.301 100.592 384.421 100.072C384.541 99.544 384.733 99.084 384.997 98.692C385.261 98.292 385.601 97.98 386.017 97.756C386.441 97.532 386.953 97.42 387.553 97.42C388.185 97.42 388.713 97.544 389.137 97.792C389.569 98.032 389.909 98.36 390.157 98.776C390.413 99.192 390.593 99.66 390.697 100.18C390.809 100.692 390.865 101.22 390.865 101.764C390.865 102.308 390.809 102.84 390.697 103.36C390.593 103.872 390.413 104.336 390.157 104.752C389.909 105.16 389.569 105.488 389.137 105.736C388.713 105.976 388.185 106.096 387.553 106.096ZM387.553 105.148C388.025 105.148 388.405 105.048 388.693 104.848C388.989 104.64 389.217 104.368 389.377 104.032C389.537 103.696 389.645 103.332 389.701 102.94C389.757 102.54 389.785 102.148 389.785 101.764C389.785 101.388 389.757 101.004 389.701 100.612C389.645 100.212 389.537 99.844 389.377 99.508C389.217 99.164 388.989 98.888 388.693 98.68C388.405 98.472 388.025 98.368 387.553 98.368C387.073 98.368 386.685 98.472 386.389 98.68C386.093 98.888 385.865 99.164 385.705 99.508C385.553 99.844 385.449 100.212 385.393 100.612C385.337 101.004 385.309 101.388 385.309 101.764C385.309 102.148 385.337 102.54 385.393 102.94C385.449 103.332 385.553 103.696 385.705 104.032C385.865 104.368 386.093 104.64 386.389 104.848C386.685 105.048 387.073 105.148 387.553 105.148ZM395.293 106.096C394.701 106.096 394.193 105.988 393.769 105.772C393.353 105.548 393.013 105.24 392.749 104.848C392.485 104.448 392.289 103.988 392.161 103.468C392.041 102.94 391.981 102.372 391.981 101.764C391.981 101.156 392.041 100.592 392.161 100.072C392.281 99.544 392.473 99.084 392.737 98.692C393.001 98.292 393.341 97.98 393.757 97.756C394.181 97.532 394.693 97.42 395.293 97.42C395.925 97.42 396.453 97.544 396.877 97.792C397.309 98.032 397.649 98.36 397.897 98.776C398.153 99.192 398.333 99.66 398.437 100.18C398.549 100.692 398.605 101.22 398.605 101.764C398.605 102.308 398.549 102.84 398.437 103.36C398.333 103.872 398.153 104.336 397.897 104.752C397.649 105.16 397.309 105.488 396.877 105.736C396.453 105.976 395.925 106.096 395.293 106.096ZM395.293 105.148C395.765 105.148 396.145 105.048 396.433 104.848C396.729 104.64 396.957 104.368 397.117 104.032C397.277 103.696 397.385 103.332 397.441 102.94C397.497 102.54 397.525 102.148 397.525 101.764C397.525 101.388 397.497 101.004 397.441 100.612C397.385 100.212 397.277 99.844 397.117 99.508C396.957 99.164 396.729 98.888 396.433 98.68C396.145 98.472 395.765 98.368 395.293 98.368C394.813 98.368 394.425 98.472 394.129 98.68C393.833 98.888 393.605 99.164 393.445 99.508C393.293 99.844 393.189 100.212 393.133 100.612C393.077 101.004 393.049 101.388 393.049 101.764C393.049 102.148 393.077 102.54 393.133 102.94C393.189 103.332 393.293 103.696 393.445 104.032C393.605 104.368 393.833 104.64 394.129 104.848C394.425 105.048 394.813 105.148 395.293 105.148ZM400.706 106L405.926 97.516H406.982L401.774 106H400.706ZM406.25 106.072C405.866 106.072 405.542 105.988 405.278 105.82C405.022 105.652 404.826 105.428 404.69 105.148C404.554 104.86 404.486 104.54 404.486 104.188C404.486 103.82 404.554 103.496 404.69 103.216C404.826 102.936 405.026 102.716 405.29 102.556C405.554 102.396 405.874 102.316 406.25 102.316C406.618 102.316 406.93 102.396 407.186 102.556C407.442 102.716 407.638 102.936 407.774 103.216C407.91 103.496 407.978 103.82 407.978 104.188C407.978 104.54 407.91 104.86 407.774 105.148C407.638 105.428 407.442 105.652 407.186 105.82C406.93 105.988 406.618 106.072 406.25 106.072ZM406.238 105.22C406.446 105.22 406.61 105.172 406.73 105.076C406.858 104.98 406.946 104.852 406.994 104.692C407.05 104.532 407.078 104.364 407.078 104.188C407.078 104.012 407.05 103.848 406.994 103.696C406.946 103.536 406.858 103.408 406.73 103.312C406.61 103.216 406.446 103.168 406.238 103.168C405.918 103.168 405.69 103.272 405.554 103.48C405.426 103.688 405.362 103.924 405.362 104.188C405.362 104.468 405.43 104.712 405.566 104.92C405.702 105.12 405.926 105.22 406.238 105.22ZM401.498 101.176C401.114 101.176 400.79 101.092 400.526 100.924C400.27 100.756 400.074 100.532 399.938 100.252C399.81 99.964 399.746 99.644 399.746 99.292C399.746 98.924 399.81 98.6 399.938 98.32C400.074 98.04 400.274 97.82 400.538 97.66C400.802 97.5 401.122 97.42 401.498 97.42C401.874 97.42 402.19 97.5 402.446 97.66C402.702 97.82 402.894 98.04 403.022 98.32C403.158 98.6 403.226 98.924 403.226 99.292C403.226 99.644 403.158 99.964 403.022 100.252C402.894 100.532 402.702 100.756 402.446 100.924C402.19 101.092 401.874 101.176 401.498 101.176ZM401.498 100.324C401.706 100.324 401.87 100.276 401.99 100.18C402.11 100.084 402.198 99.956 402.254 99.796C402.31 99.636 402.338 99.468 402.338 99.292C402.338 99.116 402.31 98.952 402.254 98.8C402.198 98.64 402.11 98.512 401.99 98.416C401.87 98.32 401.706 98.272 401.498 98.272C401.178 98.272 400.95 98.376 400.814 98.584C400.678 98.792 400.61 99.028 400.61 99.292C400.61 99.572 400.678 99.816 400.814 100.024C400.95 100.224 401.178 100.324 401.498 100.324Z" fill="white"/>
<path d="M379.028 146.333V139.529H377.3V138.821C377.62 138.797 377.904 138.761 378.152 138.713C378.4 138.657 378.62 138.565 378.812 138.437C379.012 138.301 379.188 138.105 379.34 137.849H380.072V146.333H379.028ZM385.115 146.429C384.523 146.429 384.015 146.321 383.591 146.105C383.175 145.881 382.835 145.573 382.571 145.181C382.307 144.781 382.111 144.321 381.983 143.801C381.863 143.273 381.803 142.705 381.803 142.097C381.803 141.489 381.863 140.925 381.983 140.405C382.103 139.877 382.295 139.417 382.559 139.025C382.823 138.625 383.163 138.313 383.579 138.089C384.003 137.865 384.515 137.753 385.115 137.753C385.747 137.753 386.275 137.877 386.699 138.125C387.131 138.365 387.471 138.693 387.719 139.109C387.975 139.525 388.155 139.993 388.259 140.513C388.371 141.025 388.427 141.553 388.427 142.097C388.427 142.641 388.371 143.173 388.259 143.693C388.155 144.205 387.975 144.669 387.719 145.085C387.471 145.493 387.131 145.821 386.699 146.069C386.275 146.309 385.747 146.429 385.115 146.429ZM385.115 145.481C385.587 145.481 385.967 145.381 386.255 145.181C386.551 144.973 386.779 144.701 386.939 144.365C387.099 144.029 387.207 143.665 387.263 143.273C387.319 142.873 387.347 142.481 387.347 142.097C387.347 141.721 387.319 141.337 387.263 140.945C387.207 140.545 387.099 140.177 386.939 139.841C386.779 139.497 386.551 139.221 386.255 139.013C385.967 138.805 385.587 138.701 385.115 138.701C384.635 138.701 384.247 138.805 383.951 139.013C383.655 139.221 383.427 139.497 383.267 139.841C383.115 140.177 383.011 140.545 382.955 140.945C382.899 141.337 382.871 141.721 382.871 142.097C382.871 142.481 382.899 142.873 382.955 143.273C383.011 143.665 383.115 144.029 383.267 144.365C383.427 144.701 383.655 144.973 383.951 145.181C384.247 145.381 384.635 145.481 385.115 145.481ZM392.856 146.429C392.264 146.429 391.756 146.321 391.332 146.105C390.916 145.881 390.576 145.573 390.312 145.181C390.048 144.781 389.852 144.321 389.724 143.801C389.604 143.273 389.544 142.705 389.544 142.097C389.544 141.489 389.604 140.925 389.724 140.405C389.844 139.877 390.036 139.417 390.3 139.025C390.564 138.625 390.904 138.313 391.32 138.089C391.744 137.865 392.256 137.753 392.856 137.753C393.488 137.753 394.016 137.877 394.44 138.125C394.872 138.365 395.212 138.693 395.46 139.109C395.716 139.525 395.896 139.993 396 140.513C396.112 141.025 396.168 141.553 396.168 142.097C396.168 142.641 396.112 143.173 396 143.693C395.896 144.205 395.716 144.669 395.46 145.085C395.212 145.493 394.872 145.821 394.44 146.069C394.016 146.309 393.488 146.429 392.856 146.429ZM392.856 145.481C393.328 145.481 393.708 145.381 393.996 145.181C394.292 144.973 394.52 144.701 394.68 144.365C394.84 144.029 394.948 143.665 395.004 143.273C395.06 142.873 395.088 142.481 395.088 142.097C395.088 141.721 395.06 141.337 395.004 140.945C394.948 140.545 394.84 140.177 394.68 139.841C394.52 139.497 394.292 139.221 393.996 139.013C393.708 138.805 393.328 138.701 392.856 138.701C392.376 138.701 391.988 138.805 391.692 139.013C391.396 139.221 391.168 139.497 391.008 139.841C390.856 140.177 390.752 140.545 390.696 140.945C390.64 141.337 390.612 141.721 390.612 142.097C390.612 142.481 390.64 142.873 390.696 143.273C390.752 143.665 390.856 144.029 391.008 144.365C391.168 144.701 391.396 144.973 391.692 145.181C391.988 145.381 392.376 145.481 392.856 145.481ZM398.268 146.333L403.488 137.849H404.544L399.336 146.333H398.268ZM403.812 146.405C403.428 146.405 403.104 146.321 402.84 146.153C402.584 145.985 402.388 145.761 402.252 145.481C402.116 145.193 402.048 144.873 402.048 144.521C402.048 144.153 402.116 143.829 402.252 143.549C402.388 143.269 402.588 143.049 402.852 142.889C403.116 142.729 403.436 142.649 403.812 142.649C404.18 142.649 404.492 142.729 404.748 142.889C405.004 143.049 405.2 143.269 405.336 143.549C405.472 143.829 405.54 144.153 405.54 144.521C405.54 144.873 405.472 145.193 405.336 145.481C405.2 145.761 405.004 145.985 404.748 146.153C404.492 146.321 404.18 146.405 403.812 146.405ZM403.8 145.553C404.008 145.553 404.172 145.505 404.292 145.409C404.42 145.313 404.508 145.185 404.556 145.025C404.612 144.865 404.64 144.697 404.64 144.521C404.64 144.345 404.612 144.181 404.556 144.029C404.508 143.869 404.42 143.741 404.292 143.645C404.172 143.549 404.008 143.501 403.8 143.501C403.48 143.501 403.252 143.605 403.116 143.813C402.988 144.021 402.924 144.257 402.924 144.521C402.924 144.801 402.992 145.045 403.128 145.253C403.264 145.453 403.488 145.553 403.8 145.553ZM399.06 141.509C398.676 141.509 398.352 141.425 398.088 141.257C397.832 141.089 397.636 140.865 397.5 140.585C397.372 140.297 397.308 139.977 397.308 139.625C397.308 139.257 397.372 138.933 397.5 138.653C397.636 138.373 397.836 138.153 398.1 137.993C398.364 137.833 398.684 137.753 399.06 137.753C399.436 137.753 399.752 137.833 400.008 137.993C400.264 138.153 400.456 138.373 400.584 138.653C400.72 138.933 400.788 139.257 400.788 139.625C400.788 139.977 400.72 140.297 400.584 140.585C400.456 140.865 400.264 141.089 400.008 141.257C399.752 141.425 399.436 141.509 399.06 141.509ZM399.06 140.657C399.268 140.657 399.432 140.609 399.552 140.513C399.672 140.417 399.76 140.289 399.816 140.129C399.872 139.969 399.9 139.801 399.9 139.625C399.9 139.449 399.872 139.285 399.816 139.133C399.76 138.973 399.672 138.845 399.552 138.749C399.432 138.653 399.268 138.605 399.06 138.605C398.74 138.605 398.512 138.709 398.376 138.917C398.24 139.125 398.172 139.361 398.172 139.625C398.172 139.905 398.24 140.149 398.376 140.357C398.512 140.557 398.74 140.657 399.06 140.657Z" fill="white"/>
<path d="M380.696 186.775C380.344 186.775 380.004 186.735 379.676 186.655C379.356 186.575 379.064 186.455 378.8 186.295C378.536 186.127 378.312 185.915 378.128 185.659C377.944 185.403 377.816 185.099 377.744 184.747H378.8C378.888 184.971 379.028 185.163 379.22 185.323C379.412 185.483 379.628 185.607 379.868 185.695C380.116 185.775 380.36 185.815 380.6 185.815C380.992 185.815 381.34 185.751 381.644 185.623C381.956 185.495 382.204 185.299 382.388 185.035C382.572 184.763 382.664 184.415 382.664 183.991C382.664 183.407 382.488 182.959 382.136 182.647C381.784 182.335 381.328 182.179 380.768 182.179C380.432 182.179 380.12 182.239 379.832 182.359C379.552 182.479 379.296 182.643 379.064 182.851H377.984L378.368 178.183H383.444V179.143H379.304L379.064 181.807C379.28 181.631 379.544 181.491 379.856 181.387C380.168 181.275 380.552 181.219 381.008 181.219C381.552 181.219 382.028 181.331 382.436 181.555C382.852 181.779 383.172 182.095 383.396 182.503C383.628 182.903 383.744 183.379 383.744 183.931C383.744 184.523 383.608 185.031 383.336 185.455C383.072 185.879 382.708 186.207 382.244 186.439C381.788 186.663 381.272 186.775 380.696 186.775ZM388.151 186.763C387.559 186.763 387.051 186.655 386.627 186.439C386.211 186.215 385.871 185.907 385.607 185.515C385.343 185.115 385.147 184.655 385.019 184.135C384.899 183.607 384.839 183.039 384.839 182.431C384.839 181.823 384.899 181.259 385.019 180.739C385.139 180.211 385.331 179.751 385.595 179.359C385.859 178.959 386.199 178.647 386.615 178.423C387.039 178.199 387.551 178.087 388.151 178.087C388.783 178.087 389.311 178.211 389.735 178.459C390.167 178.699 390.507 179.027 390.755 179.443C391.011 179.859 391.191 180.327 391.295 180.847C391.407 181.359 391.463 181.887 391.463 182.431C391.463 182.975 391.407 183.507 391.295 184.027C391.191 184.539 391.011 185.003 390.755 185.419C390.507 185.827 390.167 186.155 389.735 186.403C389.311 186.643 388.783 186.763 388.151 186.763ZM388.151 185.815C388.623 185.815 389.003 185.715 389.291 185.515C389.587 185.307 389.815 185.035 389.975 184.699C390.135 184.363 390.243 183.999 390.299 183.607C390.355 183.207 390.383 182.815 390.383 182.431C390.383 182.055 390.355 181.671 390.299 181.279C390.243 180.879 390.135 180.511 389.975 180.175C389.815 179.831 389.587 179.555 389.291 179.347C389.003 179.139 388.623 179.035 388.151 179.035C387.671 179.035 387.283 179.139 386.987 179.347C386.691 179.555 386.463 179.831 386.303 180.175C386.151 180.511 386.047 180.879 385.991 181.279C385.935 181.671 385.907 182.055 385.907 182.431C385.907 182.815 385.935 183.207 385.991 183.607C386.047 183.999 386.151 184.363 386.303 184.699C386.463 185.035 386.691 185.307 386.987 185.515C387.283 185.715 387.671 185.815 388.151 185.815ZM393.563 186.667L398.783 178.183H399.839L394.631 186.667H393.563ZM399.107 186.739C398.723 186.739 398.399 186.655 398.135 186.487C397.879 186.319 397.683 186.095 397.547 185.815C397.411 185.527 397.343 185.207 397.343 184.855C397.343 184.487 397.411 184.163 397.547 183.883C397.683 183.603 397.883 183.383 398.147 183.223C398.411 183.063 398.731 182.983 399.107 182.983C399.475 182.983 399.787 183.063 400.043 183.223C400.299 183.383 400.495 183.603 400.631 183.883C400.767 184.163 400.835 184.487 400.835 184.855C400.835 185.207 400.767 185.527 400.631 185.815C400.495 186.095 400.299 186.319 400.043 186.487C399.787 186.655 399.475 186.739 399.107 186.739ZM399.095 185.887C399.303 185.887 399.467 185.839 399.587 185.743C399.715 185.647 399.803 185.519 399.851 185.359C399.907 185.199 399.935 185.031 399.935 184.855C399.935 184.679 399.907 184.515 399.851 184.363C399.803 184.203 399.715 184.075 399.587 183.979C399.467 183.883 399.303 183.835 399.095 183.835C398.775 183.835 398.547 183.939 398.411 184.147C398.283 184.355 398.219 184.591 398.219 184.855C398.219 185.135 398.287 185.379 398.423 185.587C398.559 185.787 398.783 185.887 399.095 185.887ZM394.355 181.843C393.971 181.843 393.647 181.759 393.383 181.591C393.127 181.423 392.931 181.199 392.795 180.919C392.667 180.631 392.603 180.311 392.603 179.959C392.603 179.591 392.667 179.267 392.795 178.987C392.931 178.707 393.131 178.487 393.395 178.327C393.659 178.167 393.979 178.087 394.355 178.087C394.731 178.087 395.047 178.167 395.303 178.327C395.559 178.487 395.751 178.707 395.879 178.987C396.015 179.267 396.083 179.591 396.083 179.959C396.083 180.311 396.015 180.631 395.879 180.919C395.751 181.199 395.559 181.423 395.303 181.591C395.047 181.759 394.731 181.843 394.355 181.843ZM394.355 180.991C394.563 180.991 394.727 180.943 394.847 180.847C394.967 180.751 395.055 180.623 395.111 180.463C395.167 180.303 395.195 180.135 395.195 179.959C395.195 179.783 395.167 179.619 395.111 179.467C395.055 179.307 394.967 179.179 394.847 179.083C394.727 178.987 394.563 178.939 394.355 178.939C394.035 178.939 393.807 179.043 393.671 179.251C393.535 179.459 393.467 179.695 393.467 179.959C393.467 180.239 393.535 180.483 393.671 180.691C393.807 180.891 394.035 180.991 394.355 180.991Z" fill="white"/>
<path d="M380.996 227.096C380.404 227.096 379.896 226.988 379.472 226.772C379.056 226.548 378.716 226.24 378.452 225.848C378.188 225.448 377.992 224.988 377.864 224.468C377.744 223.94 377.684 223.372 377.684 222.764C377.684 222.156 377.744 221.592 377.864 221.072C377.984 220.544 378.176 220.084 378.44 219.692C378.704 219.292 379.044 218.98 379.46 218.756C379.884 218.532 380.396 218.42 380.996 218.42C381.628 218.42 382.156 218.544 382.58 218.792C383.012 219.032 383.352 219.36 383.6 219.776C383.856 220.192 384.036 220.66 384.14 221.18C384.252 221.692 384.308 222.22 384.308 222.764C384.308 223.308 384.252 223.84 384.14 224.36C384.036 224.872 383.856 225.336 383.6 225.752C383.352 226.16 383.012 226.488 382.58 226.736C382.156 226.976 381.628 227.096 380.996 227.096ZM380.996 226.148C381.468 226.148 381.848 226.048 382.136 225.848C382.432 225.64 382.66 225.368 382.82 225.032C382.98 224.696 383.088 224.332 383.144 223.94C383.2 223.54 383.228 223.148 383.228 222.764C383.228 222.388 383.2 222.004 383.144 221.612C383.088 221.212 382.98 220.844 382.82 220.508C382.66 220.164 382.432 219.888 382.136 219.68C381.848 219.472 381.468 219.368 380.996 219.368C380.516 219.368 380.128 219.472 379.832 219.68C379.536 219.888 379.308 220.164 379.148 220.508C378.996 220.844 378.892 221.212 378.836 221.612C378.78 222.004 378.752 222.388 378.752 222.764C378.752 223.148 378.78 223.54 378.836 223.94C378.892 224.332 378.996 224.696 379.148 225.032C379.308 225.368 379.536 225.64 379.832 225.848C380.128 226.048 380.516 226.148 380.996 226.148ZM386.408 227L391.628 218.516H392.684L387.476 227H386.408ZM391.952 227.072C391.568 227.072 391.244 226.988 390.98 226.82C390.724 226.652 390.528 226.428 390.392 226.148C390.256 225.86 390.188 225.54 390.188 225.188C390.188 224.82 390.256 224.496 390.392 224.216C390.528 223.936 390.728 223.716 390.992 223.556C391.256 223.396 391.576 223.316 391.952 223.316C392.32 223.316 392.632 223.396 392.888 223.556C393.144 223.716 393.34 223.936 393.476 224.216C393.612 224.496 393.68 224.82 393.68 225.188C393.68 225.54 393.612 225.86 393.476 226.148C393.34 226.428 393.144 226.652 392.888 226.82C392.632 226.988 392.32 227.072 391.952 227.072ZM391.94 226.22C392.148 226.22 392.312 226.172 392.432 226.076C392.56 225.98 392.648 225.852 392.696 225.692C392.752 225.532 392.78 225.364 392.78 225.188C392.78 225.012 392.752 224.848 392.696 224.696C392.648 224.536 392.56 224.408 392.432 224.312C392.312 224.216 392.148 224.168 391.94 224.168C391.62 224.168 391.392 224.272 391.256 224.48C391.128 224.688 391.064 224.924 391.064 225.188C391.064 225.468 391.132 225.712 391.268 225.92C391.404 226.12 391.628 226.22 391.94 226.22ZM387.2 222.176C386.816 222.176 386.492 222.092 386.228 221.924C385.972 221.756 385.776 221.532 385.64 221.252C385.512 220.964 385.448 220.644 385.448 220.292C385.448 219.924 385.512 219.6 385.64 219.32C385.776 219.04 385.976 218.82 386.24 218.66C386.504 218.5 386.824 218.42 387.2 218.42C387.576 218.42 387.892 218.5 388.148 218.66C388.404 218.82 388.596 219.04 388.724 219.32C388.86 219.6 388.928 219.924 388.928 220.292C388.928 220.644 388.86 220.964 388.724 221.252C388.596 221.532 388.404 221.756 388.148 221.924C387.892 222.092 387.576 222.176 387.2 222.176ZM387.2 221.324C387.408 221.324 387.572 221.276 387.692 221.18C387.812 221.084 387.9 220.956 387.956 220.796C388.012 220.636 388.04 220.468 388.04 220.292C388.04 220.116 388.012 219.952 387.956 219.8C387.9 219.64 387.812 219.512 387.692 219.416C387.572 219.32 387.408 219.272 387.2 219.272C386.88 219.272 386.652 219.376 386.516 219.584C386.38 219.792 386.312 220.028 386.312 220.292C386.312 220.572 386.38 220.816 386.516 221.024C386.652 221.224 386.88 221.324 387.2 221.324Z" fill="white"/>
<path d="M27.192 259.096C26.776 259.096 26.404 259.048 26.076 258.952C25.756 258.856 25.484 258.708 25.26 258.508C25.036 258.308 24.86 258.056 24.732 257.752C24.604 257.44 24.528 257.076 24.504 256.66H25.56C25.592 256.964 25.668 257.228 25.788 257.452C25.916 257.676 26.092 257.848 26.316 257.968C26.548 258.088 26.84 258.148 27.192 258.148C27.568 258.148 27.86 258.068 28.068 257.908C28.284 257.748 28.436 257.528 28.524 257.248C28.62 256.968 28.668 256.648 28.668 256.288V250.516H29.712V256.072C29.712 256.512 29.668 256.92 29.58 257.296C29.492 257.664 29.348 257.984 29.148 258.256C28.956 258.52 28.696 258.728 28.368 258.88C28.048 259.024 27.656 259.096 27.192 259.096ZM33.2834 259.072C32.9954 259.072 32.7154 259.036 32.4434 258.964C32.1794 258.884 31.9394 258.768 31.7234 258.616C31.5154 258.456 31.3474 258.26 31.2194 258.028C31.0994 257.788 31.0394 257.512 31.0394 257.2C31.0394 256.84 31.1034 256.536 31.2314 256.288C31.3674 256.04 31.5474 255.844 31.7714 255.7C31.9954 255.556 32.2554 255.452 32.5514 255.388C32.8474 255.324 33.1554 255.292 33.4754 255.292H35.3354C35.3354 254.932 35.2834 254.62 35.1794 254.356C35.0834 254.092 34.9234 253.888 34.6994 253.744C34.4754 253.592 34.1794 253.516 33.8114 253.516C33.5874 253.516 33.3794 253.54 33.1874 253.588C32.9954 253.636 32.8314 253.712 32.6954 253.816C32.5594 253.92 32.4594 254.06 32.3954 254.236H31.3034C31.3594 253.948 31.4674 253.704 31.6274 253.504C31.7954 253.296 31.9954 253.128 32.2274 253C32.4674 252.864 32.7234 252.764 32.9954 252.7C33.2674 252.636 33.5394 252.604 33.8114 252.604C34.7234 252.604 35.3714 252.872 35.7554 253.408C36.1394 253.944 36.3314 254.668 36.3314 255.58V259H35.4794L35.4194 258.196C35.2434 258.436 35.0314 258.62 34.7834 258.748C34.5354 258.876 34.2794 258.96 34.0154 259C33.7594 259.048 33.5154 259.072 33.2834 259.072ZM33.3794 258.172C33.7794 258.172 34.1234 258.108 34.4114 257.98C34.7074 257.844 34.9354 257.648 35.0954 257.392C35.2554 257.136 35.3354 256.824 35.3354 256.456V256.144H34.2194C33.9554 256.144 33.6954 256.148 33.4394 256.156C33.1834 256.164 32.9514 256.196 32.7434 256.252C32.5354 256.308 32.3674 256.404 32.2394 256.54C32.1194 256.676 32.0594 256.872 32.0594 257.128C32.0594 257.368 32.1194 257.564 32.2394 257.716C32.3674 257.868 32.5314 257.984 32.7314 258.064C32.9394 258.136 33.1554 258.172 33.3794 258.172ZM37.6717 259V252.676H38.6557L38.7037 253.636C38.8477 253.404 39.0317 253.212 39.2557 253.06C39.4797 252.908 39.7237 252.796 39.9877 252.724C40.2597 252.644 40.5237 252.604 40.7797 252.604C41.3957 252.604 41.8757 252.732 42.2197 252.988C42.5717 253.244 42.8197 253.592 42.9637 254.032C43.1157 254.464 43.1917 254.956 43.1917 255.508V259H42.1717V255.784C42.1717 255.488 42.1517 255.204 42.1117 254.932C42.0797 254.66 42.0077 254.416 41.8957 254.2C41.7917 253.984 41.6397 253.816 41.4397 253.696C41.2397 253.568 40.9717 253.504 40.6357 253.504C40.2197 253.504 39.8637 253.62 39.5677 253.852C39.2797 254.084 39.0597 254.396 38.9077 254.788C38.7637 255.18 38.6917 255.62 38.6917 256.108V259H37.6717ZM44.8095 253.024L44.5215 252.628C44.6335 252.548 44.7375 252.452 44.8335 252.34C44.9295 252.228 45.0135 252.108 45.0855 251.98C45.1655 251.852 45.2215 251.724 45.2535 251.596C45.0455 251.58 44.8775 251.512 44.7495 251.392C44.6215 251.272 44.5575 251.112 44.5575 250.912C44.5575 250.688 44.6255 250.516 44.7615 250.396C44.9055 250.276 45.0855 250.216 45.3015 250.216C45.5735 250.216 45.7615 250.316 45.8655 250.516C45.9775 250.716 46.0335 250.932 46.0335 251.164C46.0335 251.428 45.9735 251.688 45.8535 251.944C45.7415 252.2 45.5935 252.424 45.4095 252.616C45.2255 252.808 45.0255 252.944 44.8095 253.024ZM46.9664 259V258.124L49.3664 256.048C49.5824 255.864 49.8184 255.664 50.0744 255.448C50.3384 255.224 50.5864 254.984 50.8184 254.728C51.0584 254.472 51.2544 254.2 51.4064 253.912C51.5664 253.616 51.6464 253.304 51.6464 252.976C51.6464 252.464 51.4944 252.072 51.1904 251.8C50.8864 251.52 50.4784 251.38 49.9664 251.38C49.5584 251.38 49.2024 251.464 48.8984 251.632C48.5944 251.8 48.3944 252.044 48.2984 252.364H47.1824C47.2624 251.924 47.4424 251.564 47.7224 251.284C48.0104 250.996 48.3544 250.78 48.7544 250.636C49.1624 250.492 49.5824 250.42 50.0144 250.42C50.5424 250.42 51.0064 250.516 51.4064 250.708C51.8144 250.9 52.1304 251.18 52.3544 251.548C52.5864 251.908 52.7024 252.352 52.7024 252.88C52.7024 253.4 52.6024 253.856 52.4024 254.248C52.2104 254.64 51.9544 254.996 51.6344 255.316C51.3224 255.628 50.9864 255.936 50.6264 256.24L48.4784 258.052H52.7984V259H46.9664ZM56.6553 259.096C56.3193 259.096 55.9793 259.064 55.6353 259C55.2993 258.928 54.9833 258.816 54.6873 258.664C54.3993 258.512 54.1513 258.308 53.9433 258.052C53.7433 257.796 53.6153 257.48 53.5593 257.104H54.6393C54.7353 257.376 54.8953 257.588 55.1193 257.74C55.3433 257.892 55.5913 258 55.8633 258.064C56.1433 258.12 56.4113 258.148 56.6673 258.148C56.8513 258.148 57.0513 258.132 57.2673 258.1C57.4833 258.068 57.6913 258 57.8913 257.896C58.0993 257.792 58.2673 257.64 58.3953 257.44C58.5233 257.232 58.5873 256.96 58.5873 256.624C58.5873 256.304 58.5273 256.048 58.4073 255.856C58.2873 255.656 58.1273 255.508 57.9273 255.412C57.7273 255.308 57.5033 255.24 57.2553 255.208C57.0153 255.176 56.7713 255.16 56.5233 255.16H55.7073V254.224H56.1993C56.4793 254.224 56.7433 254.2 56.9913 254.152C57.2393 254.096 57.4593 254.012 57.6513 253.9C57.8433 253.788 57.9913 253.64 58.0953 253.456C58.2073 253.272 58.2633 253.044 58.2633 252.772C58.2633 252.38 58.1793 252.084 58.0113 251.884C57.8513 251.684 57.6433 251.548 57.3873 251.476C57.1313 251.404 56.8633 251.368 56.5833 251.368C56.3593 251.368 56.1273 251.404 55.8873 251.476C55.6553 251.54 55.4473 251.648 55.2633 251.8C55.0793 251.944 54.9553 252.14 54.8913 252.388H53.8473C53.8953 252.036 54.0073 251.736 54.1833 251.488C54.3593 251.24 54.5753 251.036 54.8313 250.876C55.0953 250.716 55.3833 250.6 55.6953 250.528C56.0153 250.456 56.3393 250.42 56.6673 250.42C57.0273 250.42 57.3633 250.46 57.6753 250.54C57.9953 250.612 58.2753 250.736 58.5153 250.912C58.7553 251.08 58.9433 251.304 59.0793 251.584C59.2233 251.864 59.2953 252.204 59.2953 252.604C59.2953 252.9 59.2473 253.172 59.1513 253.42C59.0553 253.668 58.9113 253.884 58.7193 254.068C58.5353 254.252 58.3033 254.404 58.0233 254.524C58.3833 254.588 58.6833 254.716 58.9233 254.908C59.1713 255.1 59.3553 255.336 59.4753 255.616C59.6033 255.888 59.6673 256.196 59.6673 256.54C59.6673 257.076 59.5713 257.512 59.3793 257.848C59.1873 258.184 58.9393 258.444 58.6353 258.628C58.3313 258.804 58.0033 258.928 57.6513 259C57.2993 259.064 56.9673 259.096 56.6553 259.096Z" fill="white"/>
<path d="M73.3775 259V250.516H79.0775V251.464H74.4215V254.644H78.4895V255.604H74.4215V259H73.3775ZM82.5124 259.072C81.8404 259.072 81.2844 258.936 80.8444 258.664C80.4044 258.384 80.0764 258 79.8604 257.512C79.6444 257.024 79.5364 256.468 79.5364 255.844C79.5364 255.212 79.6484 254.656 79.8724 254.176C80.1044 253.688 80.4404 253.304 80.8804 253.024C81.3204 252.744 81.8604 252.604 82.5004 252.604C82.9964 252.604 83.4204 252.7 83.7724 252.892C84.1324 253.076 84.4284 253.324 84.6604 253.636C84.8924 253.948 85.0604 254.292 85.1644 254.668C85.2684 255.036 85.3124 255.408 85.2964 255.784C85.2884 255.856 85.2804 255.928 85.2724 256C85.2724 256.072 85.2684 256.144 85.2604 256.216H80.5684C80.6004 256.584 80.6924 256.916 80.8444 257.212C80.9964 257.508 81.2124 257.744 81.4924 257.92C81.7724 258.088 82.1204 258.172 82.5364 258.172C82.7444 258.172 82.9524 258.148 83.1604 258.1C83.3764 258.044 83.5684 257.952 83.7364 257.824C83.9124 257.696 84.0364 257.524 84.1084 257.308H85.1524C85.0564 257.716 84.8764 258.052 84.6124 258.316C84.3484 258.572 84.0324 258.764 83.6644 258.892C83.2964 259.012 82.9124 259.072 82.5124 259.072ZM80.5924 255.328H84.2524C84.2444 254.968 84.1644 254.652 84.0124 254.38C83.8604 254.108 83.6524 253.896 83.3884 253.744C83.1324 253.592 82.8244 253.516 82.4644 253.516C82.0724 253.516 81.7404 253.6 81.4684 253.768C81.2044 253.936 81.0004 254.156 80.8564 254.428C80.7124 254.7 80.6244 255 80.5924 255.328ZM89.4033 259.072C89.1153 259.072 88.8473 259.04 88.5993 258.976C88.3593 258.904 88.1393 258.804 87.9393 258.676C87.7473 258.548 87.5793 258.4 87.4353 258.232L87.3873 259H86.4153V250.516H87.4353V253.588C87.6433 253.268 87.9393 253.024 88.3233 252.856C88.7153 252.688 89.1153 252.604 89.5233 252.604C90.1633 252.604 90.6873 252.748 91.0953 253.036C91.5033 253.316 91.8033 253.7 91.9953 254.188C92.1953 254.668 92.2953 255.212 92.2953 255.82C92.2953 256.42 92.1913 256.968 91.9833 257.464C91.7753 257.952 91.4593 258.344 91.0353 258.64C90.6113 258.928 90.0673 259.072 89.4033 259.072ZM89.3913 258.172C89.8553 258.172 90.2233 258.068 90.4953 257.86C90.7673 257.644 90.9633 257.36 91.0833 257.008C91.2113 256.656 91.2753 256.268 91.2753 255.844C91.2753 255.412 91.2113 255.02 91.0833 254.668C90.9633 254.316 90.7633 254.036 90.4833 253.828C90.2033 253.62 89.8313 253.516 89.3673 253.516C88.9513 253.516 88.5953 253.632 88.2993 253.864C88.0113 254.096 87.7913 254.392 87.6393 254.752C87.4873 255.112 87.4113 255.48 87.4113 255.856C87.4113 256.264 87.4753 256.644 87.6033 256.996C87.7393 257.348 87.9513 257.632 88.2393 257.848C88.5353 258.064 88.9193 258.172 89.3913 258.172ZM93.7055 253.024L93.4175 252.628C93.5295 252.548 93.6335 252.452 93.7295 252.34C93.8255 252.228 93.9095 252.108 93.9815 251.98C94.0615 251.852 94.1175 251.724 94.1495 251.596C93.9415 251.58 93.7735 251.512 93.6455 251.392C93.5175 251.272 93.4535 251.112 93.4535 250.912C93.4535 250.688 93.5215 250.516 93.6575 250.396C93.8015 250.276 93.9815 250.216 94.1975 250.216C94.4695 250.216 94.6575 250.316 94.7615 250.516C94.8735 250.716 94.9295 250.932 94.9295 251.164C94.9295 251.428 94.8695 251.688 94.7495 251.944C94.6375 252.2 94.4895 252.424 94.3055 252.616C94.1215 252.808 93.9215 252.944 93.7055 253.024ZM95.8624 259V258.124L98.2624 256.048C98.4784 255.864 98.7144 255.664 98.9704 255.448C99.2344 255.224 99.4824 254.984 99.7144 254.728C99.9544 254.472 100.15 254.2 100.302 253.912C100.462 253.616 100.542 253.304 100.542 252.976C100.542 252.464 100.39 252.072 100.086 251.8C99.7824 251.52 99.3744 251.38 98.8624 251.38C98.4544 251.38 98.0984 251.464 97.7944 251.632C97.4904 251.8 97.2904 252.044 97.1944 252.364H96.0784C96.1584 251.924 96.3384 251.564 96.6184 251.284C96.9064 250.996 97.2504 250.78 97.6504 250.636C98.0584 250.492 98.4784 250.42 98.9104 250.42C99.4384 250.42 99.9024 250.516 100.302 250.708C100.71 250.9 101.026 251.18 101.25 251.548C101.482 251.908 101.598 252.352 101.598 252.88C101.598 253.4 101.498 253.856 101.298 254.248C101.106 254.64 100.85 254.996 100.53 255.316C100.218 255.628 99.8824 255.936 99.5224 256.24L97.3744 258.052H101.694V259H95.8624ZM105.551 259.096C105.215 259.096 104.875 259.064 104.531 259C104.195 258.928 103.879 258.816 103.583 258.664C103.295 258.512 103.047 258.308 102.839 258.052C102.639 257.796 102.511 257.48 102.455 257.104H103.535C103.631 257.376 103.791 257.588 104.015 257.74C104.239 257.892 104.487 258 104.759 258.064C105.039 258.12 105.307 258.148 105.563 258.148C105.747 258.148 105.947 258.132 106.163 258.1C106.379 258.068 106.587 258 106.787 257.896C106.995 257.792 107.163 257.64 107.291 257.44C107.419 257.232 107.483 256.96 107.483 256.624C107.483 256.304 107.423 256.048 107.303 255.856C107.183 255.656 107.023 255.508 106.823 255.412C106.623 255.308 106.399 255.24 106.151 255.208C105.911 255.176 105.667 255.16 105.419 255.16H104.603V254.224H105.095C105.375 254.224 105.639 254.2 105.887 254.152C106.135 254.096 106.355 254.012 106.547 253.9C106.739 253.788 106.887 253.64 106.991 253.456C107.103 253.272 107.159 253.044 107.159 252.772C107.159 252.38 107.075 252.084 106.907 251.884C106.747 251.684 106.539 251.548 106.283 251.476C106.027 251.404 105.759 251.368 105.479 251.368C105.255 251.368 105.023 251.404 104.783 251.476C104.551 251.54 104.343 251.648 104.159 251.8C103.975 251.944 103.851 252.14 103.787 252.388H102.743C102.791 252.036 102.903 251.736 103.079 251.488C103.255 251.24 103.471 251.036 103.727 250.876C103.991 250.716 104.279 250.6 104.591 250.528C104.911 250.456 105.235 250.42 105.563 250.42C105.923 250.42 106.259 250.46 106.571 250.54C106.891 250.612 107.171 250.736 107.411 250.912C107.651 251.08 107.839 251.304 107.975 251.584C108.119 251.864 108.191 252.204 108.191 252.604C108.191 252.9 108.143 253.172 108.047 253.42C107.951 253.668 107.807 253.884 107.615 254.068C107.431 254.252 107.199 254.404 106.919 254.524C107.279 254.588 107.579 254.716 107.819 254.908C108.067 255.1 108.251 255.336 108.371 255.616C108.499 255.888 108.563 256.196 108.563 256.54C108.563 257.076 108.467 257.512 108.275 257.848C108.083 258.184 107.835 258.444 107.531 258.628C107.227 258.804 106.899 258.928 106.547 259C106.195 259.064 105.863 259.096 105.551 259.096Z" fill="white"/>
<path d="M121.711 259V250.516H123.295L125.839 255.184L128.347 250.516H129.895V259H128.851V251.62L126.055 256.78H125.575L122.755 251.62V259H121.711ZM133.536 259.072C133.248 259.072 132.968 259.036 132.696 258.964C132.432 258.884 132.192 258.768 131.976 258.616C131.768 258.456 131.6 258.26 131.472 258.028C131.352 257.788 131.292 257.512 131.292 257.2C131.292 256.84 131.356 256.536 131.484 256.288C131.62 256.04 131.8 255.844 132.024 255.7C132.248 255.556 132.508 255.452 132.804 255.388C133.1 255.324 133.408 255.292 133.728 255.292H135.588C135.588 254.932 135.536 254.62 135.432 254.356C135.336 254.092 135.176 253.888 134.952 253.744C134.728 253.592 134.432 253.516 134.064 253.516C133.84 253.516 133.632 253.54 133.44 253.588C133.248 253.636 133.084 253.712 132.948 253.816C132.812 253.92 132.712 254.06 132.648 254.236H131.556C131.612 253.948 131.72 253.704 131.88 253.504C132.048 253.296 132.248 253.128 132.48 253C132.72 252.864 132.976 252.764 133.248 252.7C133.52 252.636 133.792 252.604 134.064 252.604C134.976 252.604 135.624 252.872 136.008 253.408C136.392 253.944 136.584 254.668 136.584 255.58V259H135.732L135.672 258.196C135.496 258.436 135.284 258.62 135.036 258.748C134.788 258.876 134.532 258.96 134.268 259C134.012 259.048 133.768 259.072 133.536 259.072ZM133.632 258.172C134.032 258.172 134.376 258.108 134.664 257.98C134.96 257.844 135.188 257.648 135.348 257.392C135.508 257.136 135.588 256.824 135.588 256.456V256.144H134.472C134.208 256.144 133.948 256.148 133.692 256.156C133.436 256.164 133.204 256.196 132.996 256.252C132.788 256.308 132.62 256.404 132.492 256.54C132.372 256.676 132.312 256.872 132.312 257.128C132.312 257.368 132.372 257.564 132.492 257.716C132.62 257.868 132.784 257.984 132.984 258.064C133.192 258.136 133.408 258.172 133.632 258.172ZM137.924 259V252.676H138.908L138.956 253.66C139.116 253.412 139.3 253.212 139.508 253.06C139.724 252.908 139.96 252.796 140.216 252.724C140.48 252.644 140.764 252.604 141.068 252.604C141.124 252.604 141.176 252.604 141.224 252.604C141.28 252.604 141.336 252.604 141.392 252.604V253.564H141.02C140.524 253.564 140.12 253.672 139.808 253.888C139.504 254.096 139.284 254.38 139.148 254.74C139.012 255.092 138.944 255.484 138.944 255.916V259H137.924ZM144.743 259.072C144.079 259.072 143.527 258.936 143.087 258.664C142.655 258.384 142.331 258 142.115 257.512C141.907 257.024 141.803 256.472 141.803 255.856C141.803 255.256 141.911 254.712 142.127 254.224C142.351 253.728 142.687 253.336 143.135 253.048C143.591 252.752 144.167 252.604 144.863 252.604C145.295 252.604 145.679 252.676 146.015 252.82C146.359 252.964 146.643 253.176 146.867 253.456C147.091 253.728 147.247 254.072 147.335 254.488H146.291C146.171 254.136 145.979 253.888 145.715 253.744C145.459 253.592 145.155 253.516 144.803 253.516C144.323 253.516 143.939 253.628 143.651 253.852C143.363 254.076 143.151 254.368 143.015 254.728C142.887 255.08 142.823 255.456 142.823 255.856C142.823 256.272 142.891 256.656 143.027 257.008C143.163 257.36 143.375 257.644 143.663 257.86C143.951 258.068 144.323 258.172 144.779 258.172C145.115 258.172 145.431 258.1 145.727 257.956C146.031 257.812 146.231 257.556 146.327 257.188H147.383C147.303 257.62 147.131 257.976 146.867 258.256C146.611 258.536 146.295 258.744 145.919 258.88C145.551 259.008 145.159 259.072 144.743 259.072ZM148.436 259V250.516H149.456V253.648C149.608 253.424 149.792 253.236 150.008 253.084C150.232 252.924 150.476 252.804 150.74 252.724C151.004 252.644 151.276 252.604 151.556 252.604C152.172 252.604 152.652 252.732 152.996 252.988C153.348 253.244 153.596 253.592 153.74 254.032C153.884 254.464 153.956 254.96 153.956 255.52V259H152.936V255.832C152.936 255.552 152.916 255.276 152.876 255.004C152.844 254.724 152.776 254.472 152.672 254.248C152.568 254.024 152.408 253.844 152.192 253.708C151.984 253.572 151.7 253.504 151.34 253.504C150.996 253.504 150.7 253.58 150.452 253.732C150.212 253.884 150.02 254.088 149.876 254.344C149.732 254.592 149.624 254.868 149.552 255.172C149.488 255.468 149.456 255.76 149.456 256.048V259H148.436ZM155.574 253.024L155.286 252.628C155.398 252.548 155.502 252.452 155.598 252.34C155.694 252.228 155.778 252.108 155.85 251.98C155.93 251.852 155.986 251.724 156.018 251.596C155.81 251.58 155.642 251.512 155.514 251.392C155.386 251.272 155.322 251.112 155.322 250.912C155.322 250.688 155.39 250.516 155.526 250.396C155.67 250.276 155.85 250.216 156.066 250.216C156.338 250.216 156.526 250.316 156.63 250.516C156.742 250.716 156.798 250.932 156.798 251.164C156.798 251.428 156.738 251.688 156.618 251.944C156.506 252.2 156.358 252.424 156.174 252.616C155.99 252.808 155.79 252.944 155.574 253.024ZM157.731 259V258.124L160.131 256.048C160.347 255.864 160.583 255.664 160.839 255.448C161.103 255.224 161.351 254.984 161.583 254.728C161.823 254.472 162.019 254.2 162.171 253.912C162.331 253.616 162.411 253.304 162.411 252.976C162.411 252.464 162.259 252.072 161.955 251.8C161.651 251.52 161.243 251.38 160.731 251.38C160.323 251.38 159.967 251.464 159.663 251.632C159.359 251.8 159.159 252.044 159.063 252.364H157.947C158.027 251.924 158.207 251.564 158.487 251.284C158.775 250.996 159.119 250.78 159.519 250.636C159.927 250.492 160.347 250.42 160.779 250.42C161.307 250.42 161.771 250.516 162.171 250.708C162.579 250.9 162.895 251.18 163.119 251.548C163.351 251.908 163.467 252.352 163.467 252.88C163.467 253.4 163.367 253.856 163.167 254.248C162.975 254.64 162.719 254.996 162.399 255.316C162.087 255.628 161.751 255.936 161.391 256.24L159.243 258.052H163.563V259H157.731ZM167.42 259.096C167.084 259.096 166.744 259.064 166.4 259C166.064 258.928 165.748 258.816 165.452 258.664C165.164 258.512 164.916 258.308 164.708 258.052C164.508 257.796 164.38 257.48 164.324 257.104H165.404C165.5 257.376 165.66 257.588 165.884 257.74C166.108 257.892 166.356 258 166.628 258.064C166.908 258.12 167.176 258.148 167.432 258.148C167.616 258.148 167.816 258.132 168.032 258.1C168.248 258.068 168.456 258 168.656 257.896C168.864 257.792 169.032 257.64 169.16 257.44C169.288 257.232 169.352 256.96 169.352 256.624C169.352 256.304 169.292 256.048 169.172 255.856C169.052 255.656 168.892 255.508 168.692 255.412C168.492 255.308 168.268 255.24 168.02 255.208C167.78 255.176 167.536 255.16 167.288 255.16H166.472V254.224H166.964C167.244 254.224 167.508 254.2 167.756 254.152C168.004 254.096 168.224 254.012 168.416 253.9C168.608 253.788 168.756 253.64 168.86 253.456C168.972 253.272 169.028 253.044 169.028 252.772C169.028 252.38 168.944 252.084 168.776 251.884C168.616 251.684 168.408 251.548 168.152 251.476C167.896 251.404 167.628 251.368 167.348 251.368C167.124 251.368 166.892 251.404 166.652 251.476C166.42 251.54 166.212 251.648 166.028 251.8C165.844 251.944 165.72 252.14 165.656 252.388H164.612C164.66 252.036 164.772 251.736 164.948 251.488C165.124 251.24 165.34 251.036 165.596 250.876C165.86 250.716 166.148 250.6 166.46 250.528C166.78 250.456 167.104 250.42 167.432 250.42C167.792 250.42 168.128 250.46 168.44 250.54C168.76 250.612 169.04 250.736 169.28 250.912C169.52 251.08 169.708 251.304 169.844 251.584C169.988 251.864 170.06 252.204 170.06 252.604C170.06 252.9 170.012 253.172 169.916 253.42C169.82 253.668 169.676 253.884 169.484 254.068C169.3 254.252 169.068 254.404 168.788 254.524C169.148 254.588 169.448 254.716 169.688 254.908C169.936 255.1 170.12 255.336 170.24 255.616C170.368 255.888 170.432 256.196 170.432 256.54C170.432 257.076 170.336 257.512 170.144 257.848C169.952 258.184 169.704 258.444 169.4 258.628C169.096 258.804 168.768 258.928 168.416 259C168.064 259.064 167.732 259.096 167.42 259.096Z" fill="white"/>
<path d="M183.12 259L186.276 250.516H187.776L190.92 259H189.792L189.12 257.176H184.92L184.248 259H183.12ZM185.268 256.228H188.772L187.02 251.428L185.268 256.228ZM191.603 261.28V252.676H192.575L192.623 253.624C192.839 253.296 193.131 253.044 193.499 252.868C193.875 252.692 194.279 252.604 194.711 252.604C195.351 252.604 195.875 252.748 196.283 253.036C196.691 253.316 196.991 253.7 197.183 254.188C197.383 254.676 197.483 255.228 197.483 255.844C197.483 256.46 197.383 257.012 197.183 257.5C196.983 257.988 196.675 258.372 196.259 258.652C195.843 258.932 195.311 259.072 194.663 259.072C194.343 259.072 194.055 259.04 193.799 258.976C193.543 258.904 193.319 258.804 193.127 258.676C192.935 258.54 192.767 258.384 192.623 258.208V261.28H191.603ZM194.579 258.172C195.043 258.172 195.411 258.068 195.683 257.86C195.955 257.644 196.151 257.36 196.271 257.008C196.399 256.656 196.463 256.268 196.463 255.844C196.463 255.412 196.399 255.02 196.271 254.668C196.151 254.316 195.951 254.036 195.671 253.828C195.391 253.62 195.019 253.516 194.555 253.516C194.139 253.516 193.783 253.624 193.487 253.84C193.199 254.048 192.979 254.332 192.827 254.692C192.675 255.044 192.599 255.432 192.599 255.856C192.599 256.296 192.671 256.692 192.815 257.044C192.959 257.396 193.179 257.672 193.475 257.872C193.771 258.072 194.139 258.172 194.579 258.172ZM198.605 259V252.676H199.589L199.637 253.66C199.797 253.412 199.981 253.212 200.189 253.06C200.405 252.908 200.641 252.796 200.897 252.724C201.161 252.644 201.445 252.604 201.749 252.604C201.805 252.604 201.857 252.604 201.905 252.604C201.961 252.604 202.017 252.604 202.073 252.604V253.564H201.701C201.205 253.564 200.801 253.672 200.489 253.888C200.185 254.096 199.965 254.38 199.829 254.74C199.693 255.092 199.625 255.484 199.625 255.916V259H198.605ZM203.61 253.024L203.322 252.628C203.434 252.548 203.538 252.452 203.634 252.34C203.73 252.228 203.814 252.108 203.886 251.98C203.966 251.852 204.022 251.724 204.054 251.596C203.846 251.58 203.678 251.512 203.55 251.392C203.422 251.272 203.358 251.112 203.358 250.912C203.358 250.688 203.426 250.516 203.562 250.396C203.706 250.276 203.886 250.216 204.102 250.216C204.374 250.216 204.562 250.316 204.666 250.516C204.778 250.716 204.834 250.932 204.834 251.164C204.834 251.428 204.774 251.688 204.654 251.944C204.542 252.2 204.394 252.424 204.21 252.616C204.026 252.808 203.826 252.944 203.61 253.024ZM205.767 259V258.124L208.167 256.048C208.383 255.864 208.619 255.664 208.875 255.448C209.139 255.224 209.387 254.984 209.619 254.728C209.859 254.472 210.055 254.2 210.207 253.912C210.367 253.616 210.447 253.304 210.447 252.976C210.447 252.464 210.295 252.072 209.991 251.8C209.687 251.52 209.279 251.38 208.767 251.38C208.359 251.38 208.003 251.464 207.699 251.632C207.395 251.8 207.195 252.044 207.099 252.364H205.983C206.063 251.924 206.243 251.564 206.523 251.284C206.811 250.996 207.155 250.78 207.555 250.636C207.963 250.492 208.383 250.42 208.815 250.42C209.343 250.42 209.807 250.516 210.207 250.708C210.615 250.9 210.931 251.18 211.155 251.548C211.387 251.908 211.503 252.352 211.503 252.88C211.503 253.4 211.403 253.856 211.203 254.248C211.011 254.64 210.755 254.996 210.435 255.316C210.123 255.628 209.787 255.936 209.427 256.24L207.279 258.052H211.599V259H205.767ZM215.456 259.096C215.12 259.096 214.78 259.064 214.436 259C214.1 258.928 213.784 258.816 213.488 258.664C213.2 258.512 212.952 258.308 212.744 258.052C212.544 257.796 212.416 257.48 212.36 257.104H213.44C213.536 257.376 213.696 257.588 213.92 257.74C214.144 257.892 214.392 258 214.664 258.064C214.944 258.12 215.212 258.148 215.468 258.148C215.652 258.148 215.852 258.132 216.068 258.1C216.284 258.068 216.492 258 216.692 257.896C216.9 257.792 217.068 257.64 217.196 257.44C217.324 257.232 217.388 256.96 217.388 256.624C217.388 256.304 217.328 256.048 217.208 255.856C217.088 255.656 216.928 255.508 216.728 255.412C216.528 255.308 216.304 255.24 216.056 255.208C215.816 255.176 215.572 255.16 215.324 255.16H214.508V254.224H215C215.28 254.224 215.544 254.2 215.792 254.152C216.04 254.096 216.26 254.012 216.452 253.9C216.644 253.788 216.792 253.64 216.896 253.456C217.008 253.272 217.064 253.044 217.064 252.772C217.064 252.38 216.98 252.084 216.812 251.884C216.652 251.684 216.444 251.548 216.188 251.476C215.932 251.404 215.664 251.368 215.384 251.368C215.16 251.368 214.928 251.404 214.688 251.476C214.456 251.54 214.248 251.648 214.064 251.8C213.88 251.944 213.756 252.14 213.692 252.388H212.648C212.696 252.036 212.808 251.736 212.984 251.488C213.16 251.24 213.376 251.036 213.632 250.876C213.896 250.716 214.184 250.6 214.496 250.528C214.816 250.456 215.14 250.42 215.468 250.42C215.828 250.42 216.164 250.46 216.476 250.54C216.796 250.612 217.076 250.736 217.316 250.912C217.556 251.08 217.744 251.304 217.88 251.584C218.024 251.864 218.096 252.204 218.096 252.604C218.096 252.9 218.048 253.172 217.952 253.42C217.856 253.668 217.712 253.884 217.52 254.068C217.336 254.252 217.104 254.404 216.824 254.524C217.184 254.588 217.484 254.716 217.724 254.908C217.972 255.1 218.156 255.336 218.276 255.616C218.404 255.888 218.468 256.196 218.468 256.54C218.468 257.076 218.372 257.512 218.18 257.848C217.988 258.184 217.74 258.444 217.436 258.628C217.132 258.804 216.804 258.928 216.452 259C216.1 259.064 215.768 259.096 215.456 259.096Z" fill="white"/>
<path d="M232.377 259V250.516H233.961L236.505 255.184L239.013 250.516H240.561V259H239.517V251.62L236.721 256.78H236.241L233.421 251.62V259H232.377ZM244.203 259.072C243.915 259.072 243.635 259.036 243.363 258.964C243.099 258.884 242.859 258.768 242.643 258.616C242.435 258.456 242.267 258.26 242.139 258.028C242.019 257.788 241.959 257.512 241.959 257.2C241.959 256.84 242.023 256.536 242.151 256.288C242.287 256.04 242.467 255.844 242.691 255.7C242.915 255.556 243.175 255.452 243.471 255.388C243.767 255.324 244.075 255.292 244.395 255.292H246.255C246.255 254.932 246.203 254.62 246.099 254.356C246.003 254.092 245.843 253.888 245.619 253.744C245.395 253.592 245.099 253.516 244.731 253.516C244.507 253.516 244.299 253.54 244.107 253.588C243.915 253.636 243.751 253.712 243.615 253.816C243.479 253.92 243.379 254.06 243.315 254.236H242.223C242.279 253.948 242.387 253.704 242.547 253.504C242.715 253.296 242.915 253.128 243.147 253C243.387 252.864 243.643 252.764 243.915 252.7C244.187 252.636 244.459 252.604 244.731 252.604C245.643 252.604 246.291 252.872 246.675 253.408C247.059 253.944 247.251 254.668 247.251 255.58V259H246.399L246.339 258.196C246.163 258.436 245.951 258.62 245.703 258.748C245.455 258.876 245.199 258.96 244.935 259C244.679 259.048 244.435 259.072 244.203 259.072ZM244.299 258.172C244.699 258.172 245.043 258.108 245.331 257.98C245.627 257.844 245.855 257.648 246.015 257.392C246.175 257.136 246.255 256.824 246.255 256.456V256.144H245.139C244.875 256.144 244.615 256.148 244.359 256.156C244.103 256.164 243.871 256.196 243.663 256.252C243.455 256.308 243.287 256.404 243.159 256.54C243.039 256.676 242.979 256.872 242.979 257.128C242.979 257.368 243.039 257.564 243.159 257.716C243.287 257.868 243.451 257.984 243.651 258.064C243.859 258.136 244.075 258.172 244.299 258.172ZM251.375 261.832C250.887 261.832 250.415 261.764 249.959 261.628C249.511 261.492 249.107 261.256 248.747 260.92L249.191 260.116C249.503 260.364 249.835 260.56 250.187 260.704C250.547 260.848 250.923 260.92 251.315 260.92C251.971 260.92 252.439 260.728 252.719 260.344C253.007 259.968 253.151 259.488 253.151 258.904V258.148C253.007 258.364 252.823 258.544 252.599 258.688C252.383 258.824 252.143 258.928 251.879 259C251.615 259.064 251.343 259.096 251.063 259.096C250.439 259.096 249.947 258.972 249.587 258.724C249.227 258.476 248.971 258.132 248.819 257.692C248.667 257.252 248.591 256.744 248.591 256.168V252.676H249.611V255.88C249.611 256.168 249.627 256.452 249.659 256.732C249.699 257.004 249.775 257.252 249.887 257.476C249.999 257.692 250.163 257.868 250.379 258.004C250.595 258.132 250.883 258.196 251.243 258.196C251.699 258.196 252.063 258.084 252.335 257.86C252.615 257.636 252.815 257.336 252.935 256.96C253.063 256.584 253.127 256.168 253.127 255.712V252.676H254.147V259C254.147 259.456 254.087 259.86 253.967 260.212C253.847 260.564 253.667 260.86 253.427 261.1C253.187 261.34 252.895 261.52 252.551 261.64C252.215 261.768 251.823 261.832 251.375 261.832ZM255.799 253.024L255.511 252.628C255.623 252.548 255.727 252.452 255.823 252.34C255.919 252.228 256.003 252.108 256.075 251.98C256.155 251.852 256.211 251.724 256.243 251.596C256.035 251.58 255.867 251.512 255.739 251.392C255.611 251.272 255.547 251.112 255.547 250.912C255.547 250.688 255.615 250.516 255.751 250.396C255.895 250.276 256.075 250.216 256.291 250.216C256.563 250.216 256.751 250.316 256.855 250.516C256.967 250.716 257.023 250.932 257.023 251.164C257.023 251.428 256.963 251.688 256.843 251.944C256.731 252.2 256.583 252.424 256.399 252.616C256.215 252.808 256.015 252.944 255.799 253.024ZM257.956 259V258.124L260.356 256.048C260.572 255.864 260.808 255.664 261.064 255.448C261.328 255.224 261.576 254.984 261.808 254.728C262.048 254.472 262.244 254.2 262.396 253.912C262.556 253.616 262.636 253.304 262.636 252.976C262.636 252.464 262.484 252.072 262.18 251.8C261.876 251.52 261.468 251.38 260.956 251.38C260.548 251.38 260.192 251.464 259.888 251.632C259.584 251.8 259.384 252.044 259.288 252.364H258.172C258.252 251.924 258.432 251.564 258.712 251.284C259 250.996 259.344 250.78 259.744 250.636C260.152 250.492 260.572 250.42 261.004 250.42C261.532 250.42 261.996 250.516 262.396 250.708C262.804 250.9 263.12 251.18 263.344 251.548C263.576 251.908 263.692 252.352 263.692 252.88C263.692 253.4 263.592 253.856 263.392 254.248C263.2 254.64 262.944 254.996 262.624 255.316C262.312 255.628 261.976 255.936 261.616 256.24L259.468 258.052H263.788V259H257.956ZM267.645 259.096C267.309 259.096 266.969 259.064 266.625 259C266.289 258.928 265.973 258.816 265.677 258.664C265.389 258.512 265.141 258.308 264.933 258.052C264.733 257.796 264.605 257.48 264.549 257.104H265.629C265.725 257.376 265.885 257.588 266.109 257.74C266.333 257.892 266.581 258 266.853 258.064C267.133 258.12 267.401 258.148 267.657 258.148C267.841 258.148 268.041 258.132 268.257 258.1C268.473 258.068 268.681 258 268.881 257.896C269.089 257.792 269.257 257.64 269.385 257.44C269.513 257.232 269.577 256.96 269.577 256.624C269.577 256.304 269.517 256.048 269.397 255.856C269.277 255.656 269.117 255.508 268.917 255.412C268.717 255.308 268.493 255.24 268.245 255.208C268.005 255.176 267.761 255.16 267.513 255.16H266.697V254.224H267.189C267.469 254.224 267.733 254.2 267.981 254.152C268.229 254.096 268.449 254.012 268.641 253.9C268.833 253.788 268.981 253.64 269.085 253.456C269.197 253.272 269.253 253.044 269.253 252.772C269.253 252.38 269.169 252.084 269.001 251.884C268.841 251.684 268.633 251.548 268.377 251.476C268.121 251.404 267.853 251.368 267.573 251.368C267.349 251.368 267.117 251.404 266.877 251.476C266.645 251.54 266.437 251.648 266.253 251.8C266.069 251.944 265.945 252.14 265.881 252.388H264.837C264.885 252.036 264.997 251.736 265.173 251.488C265.349 251.24 265.565 251.036 265.821 250.876C266.085 250.716 266.373 250.6 266.685 250.528C267.005 250.456 267.329 250.42 267.657 250.42C268.017 250.42 268.353 250.46 268.665 250.54C268.985 250.612 269.265 250.736 269.505 250.912C269.745 251.08 269.933 251.304 270.069 251.584C270.213 251.864 270.285 252.204 270.285 252.604C270.285 252.9 270.237 253.172 270.141 253.42C270.045 253.668 269.901 253.884 269.709 254.068C269.525 254.252 269.293 254.404 269.013 254.524C269.373 254.588 269.673 254.716 269.913 254.908C270.161 255.1 270.345 255.336 270.465 255.616C270.593 255.888 270.657 256.196 270.657 256.54C270.657 257.076 270.561 257.512 270.369 257.848C270.177 258.184 269.929 258.444 269.625 258.628C269.321 258.804 268.993 258.928 268.641 259C268.289 259.064 267.957 259.096 267.645 259.096Z" fill="white"/>
<path d="M286.859 259.096C286.443 259.096 286.071 259.048 285.743 258.952C285.423 258.856 285.151 258.708 284.927 258.508C284.703 258.308 284.527 258.056 284.399 257.752C284.271 257.44 284.195 257.076 284.171 256.66H285.227C285.259 256.964 285.335 257.228 285.455 257.452C285.583 257.676 285.759 257.848 285.983 257.968C286.215 258.088 286.507 258.148 286.859 258.148C287.235 258.148 287.527 258.068 287.735 257.908C287.951 257.748 288.103 257.528 288.191 257.248C288.287 256.968 288.335 256.648 288.335 256.288V250.516H289.379V256.072C289.379 256.512 289.335 256.92 289.247 257.296C289.159 257.664 289.015 257.984 288.815 258.256C288.623 258.52 288.363 258.728 288.035 258.88C287.715 259.024 287.323 259.096 286.859 259.096ZM293.562 259.072C292.69 259.072 292.026 258.84 291.57 258.376C291.122 257.912 290.898 257.2 290.898 256.24V252.676H291.918V256.192C291.918 256.608 291.978 256.964 292.098 257.26C292.218 257.556 292.398 257.784 292.638 257.944C292.886 258.096 293.194 258.172 293.562 258.172C293.946 258.172 294.262 258.096 294.51 257.944C294.758 257.784 294.938 257.556 295.05 257.26C295.17 256.964 295.23 256.608 295.23 256.192V252.676H296.25V256.24C296.25 257.2 296.018 257.912 295.554 258.376C295.098 258.84 294.434 259.072 293.562 259.072ZM297.596 259V252.676H298.58L298.628 253.636C298.772 253.404 298.956 253.212 299.18 253.06C299.404 252.908 299.648 252.796 299.912 252.724C300.184 252.644 300.448 252.604 300.704 252.604C301.32 252.604 301.8 252.732 302.144 252.988C302.496 253.244 302.744 253.592 302.888 254.032C303.04 254.464 303.116 254.956 303.116 255.508V259H302.096V255.784C302.096 255.488 302.076 255.204 302.036 254.932C302.004 254.66 301.932 254.416 301.82 254.2C301.716 253.984 301.564 253.816 301.364 253.696C301.164 253.568 300.896 253.504 300.56 253.504C300.144 253.504 299.788 253.62 299.492 253.852C299.204 254.084 298.984 254.396 298.832 254.788C298.688 255.18 298.616 255.62 298.616 256.108V259H297.596ZM304.734 253.024L304.446 252.628C304.558 252.548 304.662 252.452 304.758 252.34C304.854 252.228 304.938 252.108 305.01 251.98C305.09 251.852 305.146 251.724 305.178 251.596C304.97 251.58 304.802 251.512 304.674 251.392C304.546 251.272 304.482 251.112 304.482 250.912C304.482 250.688 304.55 250.516 304.686 250.396C304.83 250.276 305.01 250.216 305.226 250.216C305.498 250.216 305.686 250.316 305.79 250.516C305.902 250.716 305.958 250.932 305.958 251.164C305.958 251.428 305.898 251.688 305.778 251.944C305.666 252.2 305.518 252.424 305.334 252.616C305.15 252.808 304.95 252.944 304.734 253.024ZM306.891 259V258.124L309.291 256.048C309.507 255.864 309.743 255.664 309.999 255.448C310.263 255.224 310.511 254.984 310.743 254.728C310.983 254.472 311.179 254.2 311.331 253.912C311.491 253.616 311.571 253.304 311.571 252.976C311.571 252.464 311.419 252.072 311.115 251.8C310.811 251.52 310.403 251.38 309.891 251.38C309.483 251.38 309.127 251.464 308.823 251.632C308.519 251.8 308.319 252.044 308.223 252.364H307.107C307.187 251.924 307.367 251.564 307.647 251.284C307.935 250.996 308.279 250.78 308.679 250.636C309.087 250.492 309.507 250.42 309.939 250.42C310.467 250.42 310.931 250.516 311.331 250.708C311.739 250.9 312.055 251.18 312.279 251.548C312.511 251.908 312.627 252.352 312.627 252.88C312.627 253.4 312.527 253.856 312.327 254.248C312.135 254.64 311.879 254.996 311.559 255.316C311.247 255.628 310.911 255.936 310.551 256.24L308.403 258.052H312.723V259H306.891ZM316.58 259.096C316.244 259.096 315.904 259.064 315.56 259C315.224 258.928 314.908 258.816 314.612 258.664C314.324 258.512 314.076 258.308 313.868 258.052C313.668 257.796 313.54 257.48 313.484 257.104H314.564C314.66 257.376 314.82 257.588 315.044 257.74C315.268 257.892 315.516 258 315.788 258.064C316.068 258.12 316.336 258.148 316.592 258.148C316.776 258.148 316.976 258.132 317.192 258.1C317.408 258.068 317.616 258 317.816 257.896C318.024 257.792 318.192 257.64 318.32 257.44C318.448 257.232 318.512 256.96 318.512 256.624C318.512 256.304 318.452 256.048 318.332 255.856C318.212 255.656 318.052 255.508 317.852 255.412C317.652 255.308 317.428 255.24 317.18 255.208C316.94 255.176 316.696 255.16 316.448 255.16H315.632V254.224H316.124C316.404 254.224 316.668 254.2 316.916 254.152C317.164 254.096 317.384 254.012 317.576 253.9C317.768 253.788 317.916 253.64 318.02 253.456C318.132 253.272 318.188 253.044 318.188 252.772C318.188 252.38 318.104 252.084 317.936 251.884C317.776 251.684 317.568 251.548 317.312 251.476C317.056 251.404 316.788 251.368 316.508 251.368C316.284 251.368 316.052 251.404 315.812 251.476C315.58 251.54 315.372 251.648 315.188 251.8C315.004 251.944 314.88 252.14 314.816 252.388H313.772C313.82 252.036 313.932 251.736 314.108 251.488C314.284 251.24 314.5 251.036 314.756 250.876C315.02 250.716 315.308 250.6 315.62 250.528C315.94 250.456 316.264 250.42 316.592 250.42C316.952 250.42 317.288 250.46 317.6 250.54C317.92 250.612 318.2 250.736 318.44 250.912C318.68 251.08 318.868 251.304 319.004 251.584C319.148 251.864 319.22 252.204 319.22 252.604C319.22 252.9 319.172 253.172 319.076 253.42C318.98 253.668 318.836 253.884 318.644 254.068C318.46 254.252 318.228 254.404 317.948 254.524C318.308 254.588 318.608 254.716 318.848 254.908C319.096 255.1 319.28 255.336 319.4 255.616C319.528 255.888 319.592 256.196 319.592 256.54C319.592 257.076 319.496 257.512 319.304 257.848C319.112 258.184 318.864 258.444 318.56 258.628C318.256 258.804 317.928 258.928 317.576 259C317.224 259.064 316.892 259.096 316.58 259.096Z" fill="white"/>
<path d="M335.192 259.096C334.776 259.096 334.404 259.048 334.076 258.952C333.756 258.856 333.484 258.708 333.26 258.508C333.036 258.308 332.86 258.056 332.732 257.752C332.604 257.44 332.528 257.076 332.504 256.66H333.56C333.592 256.964 333.668 257.228 333.788 257.452C333.916 257.676 334.092 257.848 334.316 257.968C334.548 258.088 334.84 258.148 335.192 258.148C335.568 258.148 335.86 258.068 336.068 257.908C336.284 257.748 336.436 257.528 336.524 257.248C336.62 256.968 336.668 256.648 336.668 256.288V250.516H337.712V256.072C337.712 256.512 337.668 256.92 337.58 257.296C337.492 257.664 337.348 257.984 337.148 258.256C336.956 258.52 336.696 258.728 336.368 258.88C336.048 259.024 335.656 259.096 335.192 259.096ZM341.895 259.072C341.023 259.072 340.359 258.84 339.903 258.376C339.455 257.912 339.231 257.2 339.231 256.24V252.676H340.251V256.192C340.251 256.608 340.311 256.964 340.431 257.26C340.551 257.556 340.731 257.784 340.971 257.944C341.219 258.096 341.527 258.172 341.895 258.172C342.279 258.172 342.595 258.096 342.843 257.944C343.091 257.784 343.271 257.556 343.383 257.26C343.503 256.964 343.563 256.608 343.563 256.192V252.676H344.583V256.24C344.583 257.2 344.351 257.912 343.887 258.376C343.431 258.84 342.767 259.072 341.895 259.072ZM345.929 259V250.516H346.949V259H345.929ZM348.837 253.024L348.549 252.628C348.661 252.548 348.765 252.452 348.861 252.34C348.957 252.228 349.041 252.108 349.113 251.98C349.193 251.852 349.249 251.724 349.281 251.596C349.073 251.58 348.905 251.512 348.777 251.392C348.649 251.272 348.585 251.112 348.585 250.912C348.585 250.688 348.653 250.516 348.789 250.396C348.933 250.276 349.113 250.216 349.329 250.216C349.601 250.216 349.789 250.316 349.893 250.516C350.005 250.716 350.061 250.932 350.061 251.164C350.061 251.428 350.001 251.688 349.881 251.944C349.769 252.2 349.621 252.424 349.437 252.616C349.253 252.808 349.053 252.944 348.837 253.024ZM350.994 259V258.124L353.394 256.048C353.61 255.864 353.846 255.664 354.102 255.448C354.366 255.224 354.614 254.984 354.846 254.728C355.086 254.472 355.282 254.2 355.434 253.912C355.594 253.616 355.674 253.304 355.674 252.976C355.674 252.464 355.522 252.072 355.218 251.8C354.914 251.52 354.506 251.38 353.994 251.38C353.586 251.38 353.23 251.464 352.926 251.632C352.622 251.8 352.422 252.044 352.326 252.364H351.21C351.29 251.924 351.47 251.564 351.75 251.284C352.038 250.996 352.382 250.78 352.782 250.636C353.19 250.492 353.61 250.42 354.042 250.42C354.57 250.42 355.034 250.516 355.434 250.708C355.842 250.9 356.158 251.18 356.382 251.548C356.614 251.908 356.73 252.352 356.73 252.88C356.73 253.4 356.63 253.856 356.43 254.248C356.238 254.64 355.982 254.996 355.662 255.316C355.35 255.628 355.014 255.936 354.654 256.24L352.506 258.052H356.826V259H350.994ZM360.683 259.096C360.347 259.096 360.007 259.064 359.663 259C359.327 258.928 359.011 258.816 358.715 258.664C358.427 258.512 358.179 258.308 357.971 258.052C357.771 257.796 357.643 257.48 357.587 257.104H358.667C358.763 257.376 358.923 257.588 359.147 257.74C359.371 257.892 359.619 258 359.891 258.064C360.171 258.12 360.439 258.148 360.695 258.148C360.879 258.148 361.079 258.132 361.295 258.1C361.511 258.068 361.719 258 361.919 257.896C362.127 257.792 362.295 257.64 362.423 257.44C362.551 257.232 362.615 256.96 362.615 256.624C362.615 256.304 362.555 256.048 362.435 255.856C362.315 255.656 362.155 255.508 361.955 255.412C361.755 255.308 361.531 255.24 361.283 255.208C361.043 255.176 360.799 255.16 360.551 255.16H359.735V254.224H360.227C360.507 254.224 360.771 254.2 361.019 254.152C361.267 254.096 361.487 254.012 361.679 253.9C361.871 253.788 362.019 253.64 362.123 253.456C362.235 253.272 362.291 253.044 362.291 252.772C362.291 252.38 362.207 252.084 362.039 251.884C361.879 251.684 361.671 251.548 361.415 251.476C361.159 251.404 360.891 251.368 360.611 251.368C360.387 251.368 360.155 251.404 359.915 251.476C359.683 251.54 359.475 251.648 359.291 251.8C359.107 251.944 358.983 252.14 358.919 252.388H357.875C357.923 252.036 358.035 251.736 358.211 251.488C358.387 251.24 358.603 251.036 358.859 250.876C359.123 250.716 359.411 250.6 359.723 250.528C360.043 250.456 360.367 250.42 360.695 250.42C361.055 250.42 361.391 250.46 361.703 250.54C362.023 250.612 362.303 250.736 362.543 250.912C362.783 251.08 362.971 251.304 363.107 251.584C363.251 251.864 363.323 252.204 363.323 252.604C363.323 252.9 363.275 253.172 363.179 253.42C363.083 253.668 362.939 253.884 362.747 254.068C362.563 254.252 362.331 254.404 362.051 254.524C362.411 254.588 362.711 254.716 362.951 254.908C363.199 255.1 363.383 255.336 363.503 255.616C363.631 255.888 363.695 256.196 363.695 256.54C363.695 257.076 363.599 257.512 363.407 257.848C363.215 258.184 362.967 258.444 362.663 258.628C362.359 258.804 362.031 258.928 361.679 259C361.327 259.064 360.995 259.096 360.683 259.096Z" fill="white"/>
<g clip-path="url(#clip3_812_15870)">
<path opacity="0.4" d="M49.7739 -17.1661C49.7739 -17.1661 83.6064 -90.1325 209.69 -75.7489C335.789 -61.3606 394.063 64.9458 542.549 89.4164C691.019 113.882 838.169 60.509 831.751 2.72044" stroke="white" stroke-miterlimit="10"/>
<path opacity="0.4" d="M31.4004 -51.4356C31.4004 -51.4356 73.5129 -121.246 202.208 -100.615C308.364 -83.5951 354.801 4.55537 459.114 52.48C491.115 67.1755 521.639 75.2997 552.853 76.3887C601.36 78.078 640.04 63.3414 673.702 51.1556C739.472 27.3438 800.947 -17.1213 831.383 -32.3707" stroke="white" stroke-miterlimit="10"/>
<path opacity="0.4" d="M13.0329 -85.7065C13.0329 -85.7065 63.5033 -151.995 194.733 -125.482C309.162 -102.357 345.109 -5.1999 463.418 44.7745C501.552 60.8852 533.961 66.4198 563.154 63.3338C610.755 58.2848 638.474 29.9189 662.299 11.6498C706.717 -22.4053 765.863 -75.504 831.031 -67.4946" stroke="white" stroke-miterlimit="10"/>
<path opacity="0.4" d="M-5.34163 -119.977C-5.34163 -119.977 53.489 -182.47 187.247 -150.338C309.946 -120.87 335.499 -15.0752 467.723 37.0954C512.009 54.5693 546.203 57.3817 573.473 50.3103C620.055 38.2148 637.314 -3.04572 650.915 -27.8245C674.762 -71.2905 730.794 -133.845 830.678 -102.582" stroke="white" stroke-miterlimit="10"/>
<path opacity="0.4" d="M-23.6887 -154.252C-23.6887 -154.252 43.4351 -212.73 179.776 -175.214C310.682 -139.195 325.929 -25.0541 472.031 29.3807C522.48 48.176 558.299 48.1714 583.779 37.2462C629.042 17.8414 636.854 -35.9 639.502 -67.3442C643.951 -119.987 695.715 -192.237 830.311 -137.709" stroke="white" stroke-miterlimit="10"/>
<path opacity="0.4" d="M-42.062 -188.522C-42.062 -188.522 33.2565 -242.834 172.295 -200.081C311.333 -157.327 316.355 -35.1009 476.341 21.6913C636.312 78.4786 641.596 -48.1513 628.122 -106.829C613.839 -169.013 660.65 -250.588 829.965 -172.817" stroke="white" stroke-miterlimit="10"/>
</g>
</g>
<rect x="0.5" y="0.5" width="428" height="286" rx="7.5" stroke="url(#paint1_linear_812_15870)"/>
<defs>
<linearGradient id="paint0_linear_812_15870" x1="188.146" y1="128.007" x2="189.15" y2="231.004" gradientUnits="userSpaceOnUse">
<stop offset="0.190151" stop-color="white" stop-opacity="0.9"/>
<stop offset="1" stop-color="white" stop-opacity="0"/>
</linearGradient>
<linearGradient id="paint1_linear_812_15870" x1="214.5" y1="0" x2="214.5" y2="287" gradientUnits="userSpaceOnUse">
<stop stop-color="white" stop-opacity="0.32"/>
<stop offset="1" stop-color="white" stop-opacity="0.08"/>
</linearGradient>
<clipPath id="clip0_812_15870">
<rect width="429" height="287" rx="8" fill="white"/>
</clipPath>
<clipPath id="clip1_812_15870">
<rect width="349" height="149" fill="white" transform="translate(20 82)"/>
</clipPath>
<clipPath id="clip2_812_15870">
<rect width="349" height="103" fill="white" transform="translate(20 128)"/>
</clipPath>
<clipPath id="clip3_812_15870">
<rect width="897.634" height="479" fill="white" transform="translate(39.5078 -460) rotate(17.058)"/>
</clipPath>
</defs>
</svg>
