<svg width="182" height="24" viewBox="0 0 182 24" fill="none" xmlns="http://www.w3.org/2000/svg">
<g clip-path="url(#clip0_789_13318)">
<path d="M56.9596 8.69835C56.0706 8.1441 54.9932 7.8623 53.7571 7.8623C52.5209 7.8623 51.4202 8.15033 50.4845 8.71859C49.5457 9.27284 48.7984 10.0622 48.2644 11.0664C47.7475 12.0503 47.4844 13.2242 47.4844 14.5538C47.4844 15.8834 47.7459 17.0075 48.2644 17.9945C48.7984 18.98 49.5457 19.7616 50.4845 20.3158C51.4217 20.867 52.5069 21.1472 53.7088 21.1472C54.6928 21.1472 55.574 20.9682 56.329 20.6163C57.0997 20.2645 57.7552 19.7803 58.2752 19.1746C58.7952 18.555 59.1688 17.8497 59.3868 17.0775C59.3992 17.0308 59.3899 16.981 59.3603 16.9405C59.3307 16.9 59.2856 16.8782 59.2358 16.8782H56.779C56.7167 16.8782 56.6591 16.9156 56.6358 16.9748C56.4038 17.5337 56.0426 17.9805 55.5615 18.3059C55.0835 18.6313 54.4608 18.7948 53.7088 18.7948C53.0845 18.7948 52.4991 18.6453 51.9698 18.3495C51.4389 18.0366 51.0045 17.5773 50.6776 16.9872C50.4269 16.4984 50.2743 15.9145 50.2229 15.2482H59.5549C59.6359 15.2482 59.7044 15.1843 59.7106 15.1034C59.7277 14.8714 59.7355 14.6612 59.7355 14.4915C59.7526 14.2907 59.7604 14.1039 59.7604 13.9388C59.7604 12.8366 59.5144 11.8199 59.0302 10.9169C58.5445 9.99524 57.847 9.24793 56.9611 8.69524L56.9596 8.69835ZM51.9651 10.66C52.4975 10.3642 53.0907 10.2132 53.7322 10.2132C54.6367 10.2132 55.4027 10.4966 56.0114 11.057C56.5813 11.5693 56.9066 12.287 56.9814 13.1946H50.2619C50.3335 12.7073 50.472 12.2823 50.6729 11.9289C51.0014 11.3669 51.4342 10.9418 51.9651 10.66Z" fill="white"/>
<path d="M72.1783 8.22515C72.1487 8.18311 72.102 8.1582 72.0506 8.1582H69.5207C69.4553 8.1582 69.3961 8.20024 69.3743 8.26251L65.9834 17.8701L62.6159 8.26407C62.5941 8.2018 62.5349 8.15976 62.4695 8.15976H59.8898C59.8384 8.15976 59.7901 8.18467 59.7621 8.22671C59.7325 8.26874 59.7263 8.32168 59.745 8.36994L64.3892 20.7519C64.4125 20.8126 64.4701 20.8531 64.5355 20.8531H67.4344C67.4998 20.8531 67.5574 20.8126 67.5808 20.7519L72.2001 8.36994C72.2172 8.32168 72.211 8.26874 72.1814 8.22671L72.1783 8.22515Z" fill="white"/>
<path d="M81.6783 8.69835C80.7893 8.1441 79.712 7.8623 78.4758 7.8623C77.2397 7.8623 76.1389 8.15033 75.2032 8.71859C74.2644 9.27284 73.5187 10.0622 72.9831 11.0664C72.4662 12.0503 72.2031 13.2242 72.2031 14.5538C72.2031 15.8834 72.4647 17.009 72.9831 17.9945C73.5187 18.98 74.2644 19.7616 75.2032 20.3158C76.1405 20.867 77.2256 21.1472 78.4276 21.1472C79.4115 21.1472 80.2927 20.9682 81.0478 20.6163C81.8185 20.2645 82.4739 19.7803 82.9939 19.1746C83.5139 18.555 83.8876 17.8497 84.1055 17.0775C84.118 17.0308 84.1086 16.981 84.0791 16.9405C84.0495 16.9 84.0043 16.8782 83.9545 16.8782H81.4977C81.4355 16.8782 81.3779 16.9156 81.3545 16.9748C81.1225 17.5337 80.7613 17.9805 80.2803 18.3059C79.8023 18.6313 79.1795 18.7948 78.4276 18.7948C77.8032 18.7948 77.2179 18.6453 76.6885 18.3495C76.1576 18.0366 75.7232 17.5773 75.3963 16.9872C75.1456 16.4984 74.9931 15.9145 74.9417 15.2482H84.2737C84.3546 15.2482 84.4231 15.1843 84.4294 15.1034C84.4465 14.873 84.4543 14.6628 84.4543 14.4915C84.4714 14.2922 84.4792 14.1054 84.4792 13.9388C84.4792 12.8366 84.2332 11.8199 83.749 10.9169C83.2632 9.99524 82.5658 9.24793 81.6783 8.69524V8.69835ZM76.6854 10.66C77.2179 10.3642 77.811 10.2132 78.4525 10.2132C79.357 10.2132 80.123 10.4966 80.7318 11.057C81.3016 11.5693 81.627 12.287 81.7017 13.1946H74.9822C75.0538 12.7073 75.1923 12.2823 75.3932 11.9289C75.7217 11.3669 76.1545 10.9403 76.6854 10.66Z" fill="white"/>
<path d="M88.4562 2.85156H85.9994C85.9135 2.85156 85.8438 2.92127 85.8438 3.00725V20.6966C85.8438 20.7826 85.9135 20.8523 85.9994 20.8523H88.4562C88.5422 20.8523 88.6119 20.7826 88.6119 20.6966V3.00725C88.6119 2.92127 88.5422 2.85156 88.4562 2.85156Z" fill="white"/>
<path d="M98.2664 13.817C97.5736 13.571 96.7811 13.3624 95.9139 13.1974C95.3161 13.0681 94.8023 12.9296 94.3913 12.7879C94.0052 12.6322 93.7094 12.4469 93.5132 12.2352C93.3295 12.0375 93.2361 11.8102 93.2361 11.5564C93.2361 11.1454 93.3996 10.8247 93.7374 10.574C94.0846 10.3171 94.5999 10.1863 95.2663 10.1863C95.9326 10.1863 96.4728 10.3342 96.873 10.6269C97.2637 10.8978 97.4848 11.2808 97.544 11.7946C97.5533 11.8724 97.6203 11.9316 97.6981 11.9316H100.082C100.127 11.9316 100.169 11.9129 100.198 11.8787C100.228 11.846 100.242 11.8008 100.236 11.7572C100.083 10.5242 99.5679 9.5558 98.7039 8.877C97.8429 8.20287 96.6955 7.86035 95.2912 7.86035C94.3244 7.86035 93.4665 8.03005 92.7457 8.36634C92.0326 8.69017 91.4737 9.15568 91.0845 9.7473C90.6921 10.328 90.4929 10.9928 90.4929 11.7261C90.4929 12.3426 90.6236 12.8735 90.8852 13.3079C91.1436 13.7205 91.4908 14.0677 91.919 14.3401C92.3549 14.6079 92.8437 14.8352 93.3793 15.0189C93.918 15.1824 94.4878 15.3163 95.067 15.4175C95.6617 15.5296 96.1755 15.6588 96.599 15.8067C97.0084 15.9281 97.3151 16.1025 97.516 16.3329C97.7137 16.5307 97.8149 16.8405 97.8149 17.2546C97.8149 17.5364 97.7386 17.8089 97.5922 18.058C97.4459 18.2915 97.2046 18.4861 96.8776 18.6356C96.5538 18.7726 96.1272 18.8426 95.6119 18.8426C95.0623 18.8426 94.5812 18.7492 94.1811 18.5639C93.795 18.3771 93.4836 18.128 93.2579 17.8291C93.0384 17.5146 92.8936 17.1799 92.8157 16.8047C92.8002 16.733 92.7363 16.6801 92.6632 16.6801H90.1566C90.1114 16.6801 90.0694 16.6988 90.0398 16.733C90.0102 16.7657 89.9962 16.8109 90.0009 16.8545C90.1021 17.7139 90.3932 18.4752 90.865 19.1151C91.3382 19.7565 91.9875 20.2609 92.7955 20.6144C93.5988 20.9662 94.5454 21.1437 95.6088 21.1437C96.6721 21.1437 97.5144 20.974 98.2524 20.6393C99.0121 20.3014 99.6038 19.8203 100.013 19.21C100.44 18.5951 100.647 17.8774 100.63 17.0818C100.63 16.1617 100.41 15.4424 99.979 14.9411C99.5539 14.4475 98.9779 14.0692 98.2664 13.8139V13.817Z" fill="white"/>
<path d="M132.858 8.69719C131.922 8.1445 130.838 7.86426 129.635 7.86426C128.432 7.86426 127.362 8.1445 126.412 8.69564C125.459 9.24677 124.695 10.0346 124.142 11.0387C123.591 12.0243 123.312 13.1981 123.312 14.5293C123.312 15.8604 123.583 16.9938 124.119 17.998C124.67 18.9835 125.425 19.7635 126.361 20.3178C127.314 20.8689 128.399 21.1476 129.584 21.1476C130.768 21.1476 131.88 20.8689 132.831 20.3178C133.786 19.7651 134.541 18.9835 135.076 17.998C135.627 17.0125 135.906 15.8386 135.906 14.5059C135.906 13.1732 135.627 12.0009 135.078 11.0154C134.541 10.0268 133.793 9.24677 132.858 8.69719ZM131.321 18.2534C130.806 18.5647 130.222 18.7235 129.584 18.7235C128.945 18.7235 128.4 18.5647 127.873 18.2534C127.356 17.9404 126.929 17.4734 126.605 16.8677C126.289 16.2387 126.13 15.4432 126.13 14.5059C126.13 13.5687 126.291 12.7825 126.605 12.169C126.931 11.5447 127.367 11.0699 127.898 10.7585C128.428 10.4471 129.014 10.2883 129.637 10.2883C130.259 10.2883 130.834 10.4456 131.349 10.7585C131.878 11.0683 132.304 11.5432 132.616 12.1675C132.931 12.784 133.091 13.5702 133.091 14.5044C133.091 15.4385 132.923 16.2356 132.593 16.8646C132.275 17.4843 131.86 17.9373 131.323 18.2518L131.321 18.2534Z" fill="white"/>
<path d="M141.483 10.7819C142.013 10.4549 142.598 10.2883 143.219 10.2883C143.987 10.2883 144.652 10.4783 145.198 10.8519C145.751 11.2193 146.109 11.7502 146.263 12.4275C146.279 12.4976 146.343 12.5489 146.414 12.5489H148.969C149.016 12.5489 149.061 12.5271 149.09 12.4913C149.12 12.4555 149.131 12.4073 149.122 12.3621C148.837 10.9889 148.164 9.88198 147.124 9.07552C146.083 8.27216 144.778 7.86426 143.246 7.86426C142.027 7.86426 140.925 8.15228 139.973 8.72055C139.019 9.2748 138.254 10.0641 137.703 11.0668C137.169 12.0538 136.898 13.2184 136.898 14.5308C136.898 15.8433 137.169 16.9845 137.705 17.9731C138.254 18.9571 139.017 19.7449 139.973 20.3178C140.928 20.8689 142.028 21.1492 143.246 21.1492C144.781 21.1492 146.086 20.7413 147.126 19.9364C148.166 19.1128 148.837 18.0167 149.122 16.6762C149.131 16.6311 149.12 16.5828 149.09 16.5455C149.061 16.5081 149.016 16.4879 148.969 16.4879H146.414C146.343 16.4879 146.28 16.5377 146.263 16.6062C146.154 17.053 145.952 17.4438 145.657 17.7707C145.38 18.093 145.028 18.3437 144.614 18.5118C144.208 18.669 143.739 18.7484 143.219 18.7484C142.752 18.7484 142.301 18.6613 141.882 18.4916C141.459 18.3016 141.079 18.0245 140.756 17.6711C140.44 17.3068 140.187 16.8615 139.998 16.3462C139.81 15.8106 139.713 15.191 139.713 14.5059C139.713 13.5827 139.872 12.8043 140.185 12.1955C140.515 11.5681 140.951 11.0932 141.48 10.7819H141.483Z" fill="white"/>
<path d="M153.136 8.1582H150.679C150.593 8.1582 150.523 8.22791 150.523 8.31389V20.6958C150.523 20.7818 150.593 20.8515 150.679 20.8515H153.136C153.222 20.8515 153.292 20.7818 153.292 20.6958V8.31389C153.292 8.22791 153.222 8.1582 153.136 8.1582Z" fill="white"/>
<path d="M153.164 3.21271C152.826 2.89199 152.403 2.72852 151.903 2.72852C151.403 2.72852 150.955 2.89199 150.617 3.21271C150.29 3.52097 150.125 3.92265 150.125 4.4084C150.125 4.89414 150.29 5.3254 150.617 5.65235C150.956 5.97307 151.389 6.13654 151.903 6.13654C152.417 6.13654 152.825 5.97307 153.164 5.65235C153.507 5.32852 153.681 4.90971 153.681 4.4084C153.681 3.90708 153.507 3.51786 153.164 3.21426V3.21271Z" fill="white"/>
<path d="M163.448 8.4323C162.645 8.01349 161.636 7.80176 160.453 7.80176C159.553 7.80176 158.689 7.97924 157.888 8.32954C157.082 8.66427 156.408 9.15936 155.885 9.8008C155.377 10.4282 155.069 11.2004 154.968 12.0941C154.963 12.1377 154.977 12.1828 155.007 12.2155C155.036 12.2482 155.078 12.2669 155.123 12.2669H157.58C157.655 12.2669 157.719 12.214 157.733 12.1408C157.856 11.4978 158.162 11.0105 158.651 10.6929C159.143 10.3519 159.75 10.1807 160.454 10.1807C161.063 10.1807 161.566 10.2974 161.953 10.5294C162.347 10.7412 162.646 11.0712 162.844 11.5118C163.031 11.9291 163.132 12.4584 163.146 13.0874H160.085C158.975 13.0874 158.005 13.2477 157.202 13.5638C156.389 13.8876 155.754 14.3609 155.316 14.9681C154.874 15.5644 154.648 16.2992 154.648 17.1493C154.648 17.8452 154.821 18.5069 155.161 19.1172C155.5 19.7135 156.026 20.1961 156.722 20.5542C157.415 20.9092 158.29 21.0882 159.324 21.0882C159.861 21.0882 160.356 21.0197 160.789 20.8874C161.248 20.7675 161.651 20.5947 161.984 20.3767C162.338 20.1603 162.648 19.8925 162.906 19.5827C163.053 19.4068 163.19 19.2231 163.314 19.0331L163.467 20.6523C163.474 20.7317 163.541 20.794 163.622 20.794H165.76C165.846 20.794 165.916 20.7239 165.916 20.6383V12.9737C165.916 11.9197 165.702 11.0012 165.284 10.2476C164.877 9.46918 164.259 8.86044 163.45 8.43697L163.448 8.4323ZM157.784 17.9495C157.617 17.6786 157.538 17.3595 157.538 16.9734C157.538 16.6075 157.625 16.2977 157.804 16.0283C157.983 15.7621 158.273 15.5519 158.668 15.3994C159.092 15.2265 159.651 15.1394 160.331 15.1394H163.095C163.071 15.5831 162.984 16.0252 162.836 16.458C162.696 16.8955 162.473 17.2988 162.176 17.66C161.899 18.0009 161.552 18.2765 161.145 18.4804C160.747 18.6797 160.292 18.7809 159.791 18.7809C159.29 18.7809 158.888 18.7031 158.553 18.5505C158.221 18.3995 157.961 18.194 157.786 17.948L157.784 17.9495Z" fill="white"/>
<path d="M169.878 2.79004H167.421C167.335 2.79004 167.266 2.85974 167.266 2.94573V20.6351C167.266 20.7211 167.335 20.7908 167.421 20.7908H169.878C169.964 20.7908 170.034 20.7211 170.034 20.6351V2.94573C170.034 2.85974 169.964 2.79004 169.878 2.79004Z" fill="white"/>
<path d="M181.402 14.8827C180.977 14.3891 180.401 14.0108 179.691 13.7555C178.995 13.5079 178.203 13.2993 177.337 13.1358C176.738 13.0066 176.224 12.868 175.815 12.7264C175.427 12.5707 175.131 12.3854 174.937 12.1737C174.75 11.9744 174.66 11.7518 174.66 11.4949C174.66 11.0839 174.823 10.7616 175.161 10.5125C175.51 10.2556 176.023 10.1248 176.69 10.1248C177.356 10.1248 177.896 10.2727 178.296 10.5654C178.687 10.8379 178.907 11.2193 178.967 11.7331C178.977 11.8109 179.044 11.8701 179.122 11.8701H181.505C181.55 11.8701 181.592 11.8514 181.622 11.8172C181.651 11.7845 181.666 11.7393 181.659 11.6957C181.507 10.4627 180.991 9.49428 180.126 8.81547C179.265 8.14134 178.117 7.79883 176.713 7.79883C175.746 7.79883 174.89 7.96853 174.168 8.30482C173.453 8.62865 172.894 9.09416 172.506 9.68577C172.114 10.2649 171.915 10.9313 171.915 11.6646C171.915 12.2811 172.045 12.812 172.305 13.2464C172.565 13.6589 172.911 14.0061 173.339 14.2786C173.774 14.5448 174.264 14.7721 174.801 14.9574C175.34 15.1209 175.908 15.2563 176.489 15.356C177.082 15.468 177.596 15.5973 178.021 15.7452C178.43 15.8666 178.737 16.041 178.938 16.2714C179.136 16.4691 179.237 16.7789 179.237 17.1931C179.237 17.4749 179.162 17.7458 179.016 17.9964C178.868 18.2315 178.626 18.4261 178.3 18.5756C177.976 18.7126 177.549 18.7827 177.034 18.7827C176.484 18.7827 176.002 18.6892 175.601 18.504C175.217 18.3172 174.905 18.0696 174.678 17.7691C174.462 17.4577 174.314 17.1121 174.236 16.7447C174.22 16.6731 174.158 16.6201 174.083 16.6201H171.578C171.533 16.6201 171.491 16.6388 171.462 16.6715C171.432 16.7042 171.418 16.7494 171.423 16.793C171.522 17.6524 171.814 18.4137 172.287 19.0536C172.759 19.695 173.408 20.1994 174.216 20.5528C175.019 20.9047 175.967 21.0822 177.031 21.0822C178.094 21.0822 178.935 20.9125 179.673 20.5778C180.432 20.2399 181.024 19.7588 181.434 19.1485C181.86 18.5336 182.067 17.8158 182.05 17.0203C182.05 16.1017 181.831 15.3809 181.399 14.8795L181.402 14.8827Z" fill="white"/>
<path d="M115.519 21.2834C114.323 21.2834 113.196 21.1106 112.139 20.7634C111.081 20.4162 110.188 19.8542 109.461 19.0726C108.734 18.291 108.296 17.3631 108.042 16.1659C108.022 16.0694 108.097 15.9775 108.195 15.9775H110.726C110.793 15.9775 110.853 16.0211 110.873 16.0849C111.1 16.7622 111.452 17.2931 111.93 17.6807C112.433 18.0886 113.017 18.3704 113.685 18.5261C114.351 18.6818 115.023 18.7597 115.699 18.7597C116.375 18.7597 116.943 18.6725 117.507 18.4997C118.07 18.3269 118.534 18.0404 118.897 17.6418C119.261 17.2433 119.443 16.7233 119.443 16.0818C119.443 15.5961 119.348 15.1975 119.157 14.8861C118.966 14.5748 118.702 14.3179 118.365 14.1186C118.027 13.9193 117.623 13.7589 117.155 13.6375C116.618 13.4647 116.04 13.3168 115.425 13.1954C114.81 13.0739 114.203 12.9354 113.605 12.7797C113.007 12.624 112.448 12.4247 111.928 12.1818C111.496 12.009 111.074 11.7957 110.667 11.5451C110.259 11.2944 109.909 10.9908 109.615 10.6343C109.321 10.2793 109.082 9.85895 108.9 9.3732C108.718 8.88745 108.628 8.3332 108.628 7.70889C108.628 6.87751 108.762 6.16601 109.031 5.57751C109.3 4.98901 109.655 4.49392 110.097 4.09536C110.54 3.69679 111.05 3.38075 111.631 3.14566C112.212 2.91212 112.822 2.74242 113.463 2.63811C114.105 2.5338 114.729 2.48242 115.335 2.48242C116.443 2.48242 117.468 2.65524 118.403 3.00242C119.339 3.34961 120.114 3.89919 120.731 4.65428C121.318 5.37356 121.65 6.3108 121.723 7.46601C121.729 7.55476 121.656 7.63104 121.567 7.63104H119.191C119.113 7.63104 119.05 7.57188 119.037 7.49404C118.953 6.89931 118.738 6.41979 118.391 6.05703C118.017 5.66625 117.555 5.38913 117.001 5.22566C116.446 5.06063 115.856 4.97811 115.232 4.97811C114.781 4.97811 114.331 5.01703 113.881 5.09488C113.429 5.17272 113.018 5.31128 112.646 5.51057C112.272 5.70985 111.978 5.97452 111.762 6.30302C111.545 6.63308 111.436 7.03943 111.436 7.52518C111.436 7.94086 111.524 8.30985 111.696 8.63056C111.869 8.95128 112.117 9.22062 112.437 9.43703C112.758 9.65344 113.118 9.84027 113.516 9.99595C114.245 10.2731 115.042 10.4864 115.908 10.6327C116.775 10.7806 117.589 10.983 118.352 11.2446C118.906 11.4174 119.426 11.6307 119.912 11.8813C120.398 12.132 120.814 12.4356 121.161 12.7906C121.508 13.1455 121.776 13.5628 121.967 14.0392C122.157 14.5156 122.254 15.0667 122.254 15.691C122.254 16.7139 122.071 17.5842 121.707 18.3035C121.343 19.0228 120.849 19.5988 120.225 20.0332C119.601 20.466 118.881 20.7836 118.067 20.9829C117.253 21.1822 116.403 21.2818 115.519 21.2818V21.2834Z" fill="white"/>
<path d="M38.4791 18.1122H47.4405V18.1137C47.4841 18.1137 47.5184 18.1838 47.5184 18.2694V20.7262C47.5184 20.8118 47.4841 20.8819 47.4405 20.8819L39.0575 20.8674C37.2083 20.8642 35.7109 19.3643 35.7109 17.5151V14.6341V3.00725C35.7109 2.92162 35.781 2.85156 35.8666 2.85156H38.3234C38.409 2.85156 38.4791 2.92162 38.4791 3.00725V18.1122Z" fill="white"/>
<path d="M0.00156663 16.0293H17.8419C18.5877 16.0262 19.3677 16.0168 20.1072 16.0371C20.5447 16.0838 20.9308 16.2831 21.2141 16.6193C21.5535 17.0226 21.6765 17.5566 21.8494 18.0486L22.4955 19.8919C22.6434 20.3154 23.6335 23.0431 23.618 23.2314C22.8894 23.2579 22.0813 23.2392 21.3496 23.2392H17.2612H4.70336C3.2539 23.2423 2.18588 23.2174 1.07115 22.1011C-0.0871759 20.9413 0.00156663 19.8094 0.00156663 18.3273V16.0293Z" fill="#EF5E32"/>
<path d="M0 7.69268H9.54216L12.5843 7.68957C13.4655 7.68957 14.4588 7.55879 15.2077 8.07568C15.9269 8.56921 16.1122 9.39903 16.3847 10.1759L17.2456 12.656L17.7594 14.1662C17.8357 14.3888 17.9945 14.8248 18.0287 15.0365C17.3686 15.0614 16.5886 15.0412 15.9207 15.0412H0.00467066L0 7.69268Z" fill="#FF8C3A"/>
<path d="M2.86506 0.0193611C3.84434 -0.021118 5.05404 0.0146904 6.05045 0.0131335L7.46877 0.0100198C7.75991 0.0100198 8.05572 0.00846288 8.34686 0.0271455C8.70027 0.0504988 9.1938 0.397684 9.32925 0.724631C9.58302 1.33337 9.77141 2.00283 9.9738 2.63493C10.416 3.98631 10.8503 5.33924 11.2769 6.69373C10.3397 6.70775 9.3853 6.69996 8.4465 6.69996H0.00350432L0.00661809 4.10152C0.00661809 3.60798 -0.0291903 2.72212 0.0657798 2.28307C0.166977 1.81756 0.386498 1.38319 0.702546 1.02511C1.27704 0.374331 2.01033 0.0676246 2.86506 0.0193611Z" fill="#FF964F"/>
</g>
<defs>
<clipPath id="clip0_789_13318">
<rect width="182" height="23.1976" fill="white"/>
</clipPath>
</defs>
</svg>
