<svg width="17" height="16" viewBox="0 0 17 16" fill="none" xmlns="http://www.w3.org/2000/svg">
<path d="M0.0025431 11.0331H12.2814C12.7947 11.031 13.3315 11.0246 13.8405 11.0385C14.1416 11.0706 14.4074 11.2078 14.6024 11.4393C14.836 11.7168 14.9206 12.0843 15.0396 12.4229L15.4843 13.6916C15.5861 13.9831 16.2676 15.8605 16.2568 15.9901C15.7554 16.0083 15.1992 15.9955 14.6956 15.9955H11.8817H3.23862C2.24101 15.9976 1.50592 15.9805 0.738696 15.2122C-0.0585351 14.4139 0.0025431 13.6349 0.0025431 12.6147V11.0331Z" fill="#EF5E32"/>
<path d="M0.000488281 5.29502H6.568L8.66181 5.29288C9.2683 5.29288 9.95195 5.20287 10.4674 5.55862C10.9624 5.8983 11.0899 6.46944 11.2775 7.00414L11.87 8.71111L12.2236 9.75051C12.2761 9.90375 12.3854 10.2038 12.409 10.3495C11.9547 10.3667 11.4178 10.3527 10.9581 10.3527H0.00370292L0.000488281 5.29502Z" fill="#FF8C3A"/>
<path d="M1.97192 0.0133255C2.64592 -0.0145347 3.47851 0.0101109 4.1643 0.00903933L5.14048 0.00689624C5.34086 0.00689624 5.54446 0.00582469 5.74484 0.0186833C5.98808 0.0347565 6.32776 0.273712 6.42098 0.498737C6.59564 0.917712 6.7253 1.37848 6.8646 1.81353C7.16892 2.74363 7.46789 3.6748 7.76149 4.60705C7.11642 4.61669 6.45956 4.61134 5.81342 4.61134H0.0024119L0.00455499 2.82292C0.00455499 2.48324 -0.0200906 1.87353 0.0452738 1.57136C0.114924 1.25096 0.266013 0.952001 0.483537 0.705545C0.878938 0.257638 1.38364 0.0465435 1.97192 0.0133255Z" fill="#FF964F"/>
</svg>
